<mxfile host="app.diagrams.net" modified="2023-06-02T23:09:28.443Z" agent="Mozilla/5.0 (Windows NT 10.0; Win64; x64) AppleWebKit/537.36 (KHTML, like Gecko) Chrome/114.0.0.0 Safari/537.36" etag="TEIfoawZUmrBid0QeMh3" version="21.3.6" type="onedrive">
  <diagram name="Page-1" id="mysk-ZPa9F_PA_Nj0_xp">
    <mxGraphModel grid="1" page="1" gridSize="10" guides="1" tooltips="1" connect="1" arrows="1" fold="1" pageScale="1" pageWidth="827" pageHeight="1169" math="0" shadow="0">
      <root>
        <mxCell id="0" />
        <mxCell id="1" parent="0" />
        <mxCell id="XB-GGh58G5ihhV7Ilf28-2" value="" style="edgeStyle=orthogonalEdgeStyle;rounded=0;orthogonalLoop=1;jettySize=auto;html=1;" edge="1" parent="1" source="wdAWqG1FVsQUKpZkSjq6-1" target="wdAWqG1FVsQUKpZkSjq6-8">
          <mxGeometry relative="1" as="geometry" />
        </mxCell>
        <mxCell id="wdAWqG1FVsQUKpZkSjq6-1" value="" style="shape=image;verticalLabelPosition=bottom;labelBackgroundColor=default;verticalAlign=top;aspect=fixed;imageAspect=0;image=https://cdn.icon-icons.com/icons2/2699/PNG/512/fivetran_logo_icon_170149.png;" vertex="1" parent="1">
          <mxGeometry x="360" y="200" width="120" height="120" as="geometry" />
        </mxCell>
        <mxCell id="XB-GGh58G5ihhV7Ilf28-3" value="" style="edgeStyle=orthogonalEdgeStyle;rounded=0;orthogonalLoop=1;jettySize=auto;html=1;" edge="1" parent="1" source="wdAWqG1FVsQUKpZkSjq6-8" target="wdAWqG1FVsQUKpZkSjq6-10">
          <mxGeometry relative="1" as="geometry" />
        </mxCell>
        <mxCell id="wdAWqG1FVsQUKpZkSjq6-8" value="" style="shape=image;verticalLabelPosition=bottom;labelBackgroundColor=default;verticalAlign=top;aspect=fixed;imageAspect=0;image=data:image/png,iVBORw0KGgoAAAANSUhEUgAAA5kAAAOVCAYAAADjlCRdAAAAAXNSR0IArs4c6QAAAARnQU1BAACxjwv8YQUAAAAJcEhZcwAAFxEAABcRAcom8z8AAP+lSURBVHhe7J0JmFxFub/DvgnihqBAJEymq6onQY0IXpe477vgjtf178J139FrvOJ2Xa6IC3JdUMCFkSQz3WfrmSSTBC4uBEFFkEAYMjPdZ+2e7CRA0v/66lRAyAFmJt1z+pz+vc/zPkkgy8w5VdX1VdX31RwAAADto8eqPY4b7hnCcM8WTvhJbng/kL++khnuCmZ6f5b+U/7c46Z3p/QeZroN+XtG5Y83MMtbI39eZob3C+kSYUfv5CXvBQXbfZL+6wHINT3WnsPmGzXOy7WXi0r4/+SP32Bl9zLZHyzZj66Wfebvsv+MyX60Sf64h5n+Nvnfq/LXN3HT/4P8eUX+3t/JH7/L7eAj8ve/llsTT+mx1h+j/wkAAAAAAAA6F5q4FszwacKM3iUnvBfJie0f5ER3nJvu7r61O5t9a3Y2i6u2NYsrNjfF8GRTVBpN4URNbodNbvlNOQGWPwbyv4Xy/9WbYkj+nuFNzeLKLc3i6h3Nvqvukv+tQb8v4kbt7zII/R2rBB8vGO7z5pfHnqi/DAAyCzODXmF7r5b95suyD1myP/xTtvctxVVbVfsvjmxX/YH6BfUF1U9kf6F+E/cf2Y9kf6J+pf4/9R/Z34oj25qqD8p+xA1vp/x9t8vfv4oZ/ne4XX9j7+D4wkUXrztEfxkAAAAAAACkR8/aLY8TdnC2DCh/Kie365jp3qMCSTkpJtVkmAJJmgC3QlsGoTL4LK6M/36aPFOwKv/7bTKYXSos/8O9FfeUOXOaB+gvEYCOZVGpemTRCk+X/eZ87oSObOOhWlRRfUhKASW1772LMPur/HsoMFWB5739dFuTGbVtwo7WMNP7Ph8KXzBveMMj9ZcIAAAAAABA+xH9zUO54b1GBpW/kBPXKk1a+9bcqSaralfFbNGEeErKf4t2P+WkWe2Uyh/lhH0rd6KSMP130XFd/WUD0DEUhuoLmOV9idvBn2U7VgszfavvjHfqWxVQTtW9gefq7erEgD5ZcLMwvW8XK/4z9ZcMAAAAAABA6xGl6snM9D4hvUHIiSgFdbSrSLuLiZPXNKSAU02Yd6jdTvm1bpSB7wVFxz9NfxsApEN/8yDKreRWuJQ74aRamJFtVO30z3Zg+aDKr4OO29Kizdqd9PMdsk+t4pb39sJAeLT+TgAAAAAAANg/+JW3zxVW8N/Mie6Ig7ctescyaZLaQeodTrU744Sbme1fxg33DP1tATAriP4bD6UgjVn+GrUAMrIj3rGc1R3/mRl/vXEeNXei6+k4es9lKBoEAAAAAABmyLyltx0nJ8dfkAHauNp1oYlmwkQ0C1JeG30PMvC8k1v+/xaWjy3Q3yYAbaNYCV/FK9EqVYBn9fb4KGpC++x4LV/ncFIOdP064YRvO7u/eZD+NgEAAAAAAHhoqBgJM2ofYpa/nnYBaYKcOPHMoLQzEweb/iQza99aYI2fqL9tAFoGs71ncKe+TLa3PbRzSbvqSe0xc+4NNuOdzRFuBi/T3zIAAAAAAADJ8FLtZdwJr1ETyZVb1KQycbKZcVWF2nhnc1QYtfdjVwa0AmH4x/NK/UIZXO4oUiGfVlZW7iTtQF2nIr+/PXK8+O0COyzoRwAAAAAAAECM6PePZ5Z/EbfDu2nymNfg8oGq6yIox9TyLWFMPFk/DgCmDeVdyuByvSqIVakntre8SUE0fb8ysHaF6f+HfhQAAAAAAKDbEab7fDkp/lvf2l1dMzm+n3YQT5SdyGem9179WACYEn2D3uOZ4f2iSHmXq7Ymt7GcK1bQ976N+tKyUwfHevSjAQAAAAAA3QZVvWTl2n8Kp36nmiBmoNplO1UX1MvJMnPCn7FlE4/RjwmAB6VojD+P2+Hf6LqPTFRcbqdqsUYdQd/IBmuv148IAAAAAAB0C/PozksnGKSKl/F1Cu6+k8ZuVAYKtKvJ7PD6gjHxb/pxAbAPvOx9lA81tqrj5UltqUuluz95pX4Xs/zz6W5Q/bgAAAAAAECe4dbEU5gT3kjHY3NT9bLFqqq6lXrEDOzIgPuzaN26Q4TpfV9d5zE8mdh+ultXV3HeSbnOv8O9mgAAAAAAOYeVaou5HU6oaxUSJ4hwr8WVm+kI5M6C4b5TPz7Q5RQGbj6aGe6v+2gRIq+VY1ulFTTVMWLbN3tL1cfqRwgAAAAAAPIE7crJALPercVJpq+r7ggVQ5N38VLtU/oxgi6FLb3jBG6FjrqaxO7y/MupavlxUS07+INwfBQEAgAAAADIE9yovkcGS3eqS9SRfzkNZaA51NhbNfQb+nGCLmOB4c2T739dXNimuwtkzUR1J60d3Vwsj5+mHykAAAAAAMgyouy9jTvRbrpiAQHmzKQcM8rTZFbtS/qxgi5BGKPHy8DyOrUjl9A24NTsWy0DTSf6Jy+Pz9ePFgAAAAAAZBFmuq/kdninGMYO5v6qAs0Vm5usXP2Yfrwg58wbbjxSBpir1A5mQpuA01MFmpVwHbODE/QjBgAAAAAAWYLZ3jOEE0XFlVvkBA8BZitU170MNe4ulKtv048Z5BRxY/NQZnhXUvEaHJFtnfp5DlERJf2oAQAAAABAFuix/FO5E96GO/xar1hBVWfrW3oHx5+vHzfIIdz0/4eOSHMb1/y0VCoGtHZXU5juZXOWLDlQP24AAAAAANDJiBH/EcwOrkIOWfukOxK5E204dXAMFTNzCDNqH1f3YOKakvYoA/e+ke3NQrn6X/qRAwAAAACAjqXZPICVa79WR9JMHPFrp1QxU1j+Wsrb008f5ABerr2cDzV2iaFJ+Z5xzLxdUo6zGJ68hxu1t+tHDwAAAAAAOhE5Qf5gcWQb7vGbDfWxP2bULtCPH2ScnqXjJzLT26h2qpPeOWydhttU+eJ2EDJzole/AgAAAAAA0EnwQbfIrSCinMHESR1subQbw53onkK5+hL9GkBWud8pgOT3DVsvnQhghmvK54/8TAAAAACATmLRuuYhzPSHVaGShIkcbJ9q18sO/vFka8vj9OsAGYSZtXeIFZv2cJwCmF3tIO5D5epH9asAAAAAAACdQKE08WlVSRZXLaQiFVlihvtj/TpAxuituKcwy3PpHtSk9wvbqxjeJIPNsM7telG/EgAAAAAAkCbzy+OncSeaFMNUqCR5Egfbq6pCWqnf02vUXqpfC8gQzHB/j2rMaerGx2ZN11508bpD9GsBAAAAAABpwQ13GSbIaeuqKxl42b12YcU9Sr8akAG44b0mzq3FMdlUpWOzK7c0heW9Tb8aAAAAAACQBjRBLg41kEfWCVp+Ux1ZNtyP6NcDOpynW9ExzPSuL66S7y3pncJZtbhyKx07X7/A2Pgo/YoAAAAAAMBsMndk9HBW9v6odtASJmxw9lVXMpjeaI9VQxGgDCAM7/105Q9ymTtEuhZo9Y5mwah9Sr8iAAAAAAAwmwg7eEtxhQxqrCB5wgZnX9rNXL2ddmM+p18T6FB6rPXHMNO9SS8MwA5RxO/j9oVL3eP0qwIAAAAAALPB3EtoF7P6R7ULkzBRg+mp7ik1sJvZ6ch39QFUZO5A9W4mM2uf0K8KAAAAAADMBsx0XymGGnuEjV3MjpN2M2XwIt/Rf+jXBTqMeJGmdn1x1dbkdwhTld4LM9x/9FjRMfqVAQAAAACAdiMnYBYdy0yaoMH0pSOYBaP290Wl6pH6lYEOghvBG+luRoGj5p0pLdSs3Nrktn+OfmUAAAAAAKCdMKO2SE6+dqprF5ImaDB97bApKo1mwfZerV8b6BiaBxTKtXLfmjuT3x3sCCkVgJnusH5pAAAAAACgnbBy7Vu4F7Pzjd9R7Tf6tYEOgdv1IreCbbwS7fPOYOcYL6L5d7JS9an61QEAAAAAgHZAOUq87N5SpOIyCRMz2DmKoYb80Y/EcONk/fpAB8AM70u49icDUgGgNTtpN/N8/eoAAAAAAEA76DVqLxVOvclR8KfzpbyyVdua3HDfo18fSJnFI82D5fv4s3ovSe8MdpSUl8kM9y8nXrPnCP0KAQAAAABAq+FG7adU3j9pQgY7T3VFhukZ+vWBlGEl7xncDndyB0dlM6FaTPP39Jr+M/UrBAAAAAAArUQ4Y4/mhvtPVXUxaUIGO87i8KYmMzx/vuHN068RpAgru59HPnOGtOICQAXT+4Z+hQAAAAAAoJUUjPB5olLfjaOyGVIfmWW29xb9GkGKMMNdS9fLJL4r2JGqO2cN9yo66qxfIwAAAAAAaBXc9L9cxFHZzNm3Rr6zsnuxfo0gJRYYm+Zxw90SF2RKflew89RVZjfzQbeoXyUAAAAAAGgV3PBWFlfhqGzWFFQJ2HD/Ngc7ManCjOAtFLAIO0x8T7BT9XVuc/Am/SoBAAAAAEAr6LG2PI6Z7gSuLsmeotJoMqO2lZlBr36dIAWEGXyrb+2uxHcEO1vKy+Sm+z/6VQIAAAAAgFbQW/JewEzvLoGqmNnTDmn3bE+vEbxRv04wyyweGTlYvgu7uBr3Y2ZRyqOlvEz9OgEAAAAAQCvgZf+DKh/T8hMnYbCz7Vu7s1kw3S/r1wlmmZ4r1j+OG96oGJ5MfD+wsxUrVJXmMaqwrV8pAAAAAADYX7jpfw9H/bIrBZnyHV6uXyeYZQrLxxYw090tHORjZlE6cs4Nd7v0DP1KAQAAAADAfrGkeSA3vDJdhZE0AYOdr7rb1HCvOfOaPUfotwpmEWZ5r1NVSnH9TzaV700FmqaL4j8AAAAAAK1A9N/4CGa4f1VVSpMmYLDjFcObmsz07hDG6PH6tYJZpFCufbIo3wGOm2dXOsnBDO/j+pUCAAAAAID9oceqPU4GmXXc75ddqWCTDDJ3ocJsOshnf6E6CYAgM7OqdAHL/45+pQAAAAAAYH9YMDBRYKa7C5VlMyzdzeiETWZ7z9CvFcwizHCv7KPCWUnvBmZCKnwmx8HL9CsFAAAAAAD7Q6/pP1NOsu5BkJlhVU4Z7Wa6r9SvFcwi8rkPI8jMtmon2vDKc5rNA/RrBQAAAAAAM6Vgua+iY36CdsMSJl8wA1oUZE7KSbJ/jn6tYLbobx7EjdofUDgr21LxLGZ4V/VY6w/TbxYAAAAAAMyUgum/QVXFRJCZXWmRgIr/lL2P6dcKZom5I6OHc8O7FkFmti2u2CyDzNqNhYGbj9avFgAAAAAAzJReo/oa7GRmXPn+iiu30HHZ8/VrBbOE6L/xUBmc/Kk4giAzy4qhSfpxgi2beIx+tQAAAAAAYKbwcu3lapKFIDPDyiBTBjnMcH+sXyuYLfr7D6I7Sosj2xPeC8yK6p5T090iDB/XAAEAAAAA7C+9Ru2lapKFIDPTUpDDyt4l+rWCWUQGJ1chyMy2cZDp7Thtufsk/VoBAAAAAMBMQZCZD1WQaXi/0K8VzCIIMrPv3iBz4aB7in6tAAAAAABgpvQaPoLMHIggMyWazQO44V6NIDPbIsgEAAAAAGghCDLzIYLMlECQmQsRZAIAAAAAtBAEmfkQQWZKIMjMhQgyAQAAAABaCILMfIggMyUQZOZCBJkAAAAAAC0EQWY+RJCZEggycyGCTAAAAACAFoIgMx8iyEwNBJk5EEEmAAAAAEALQZCZDxFkpgR2MnMhgkwAAAAAgBaCIDMfIshMCQSZuRBBJgAAAABAC0GQmQ8RZKYEgsxciCATAAAAAKCF9Bo1BJk5EEFmenDTvQpBZrZFkAkAAAAA0EKwk5kPEWSmBHYycyGCTAAAAACAFoIgMx8iyEwJBJm5EEEmAAAAAEALwXHZfIggMz1wXDb7IsgEAAAAAGgh2MnMhwgyUwI7mbkQQSYAAAAAQAtBkJkPEWSmBILMXIggEwAAAACghSDIzIcIMlMDQWYORJAJAAAAANBCEGTmQwSZKYGdzFyIIBMAAAAAoIUgyMyHCDJTAkFmLkSQCQAAAADQQlBdNh8iyEwPVJfNvggyAQAAAABaCHYy8yGCzJTATmYuRJAJAAAAANBCEGTmQwSZKYEgMxciyAQAAAAAaCEIMvMhgsyUQJCZCxFkAgAAAAC0EASZ+RBBZkogyMyFCDIBAAAAAFoIgsx8iCAzJRBk5kIEmQAAAAAALQRBZj5EkJkSCDJzIYJMAAAAAIAWgitM8iGCzPTAFSbZF0EmAAAAAEALwU5mPkSQmRLYycyFCDIBAAAAAFoIgsx8iCAzJRBk5kIEmQAAAAAALQRBZj5EkJkSCDJzIYJMAAAAAIAWgiAzHyLITAkEmbkQQSYAAAAAQAtBkJkPEWSmBILMXIggEwAAAACghSDIzIcIMlMCQWYuRJAJAAAAANBCEGTmQwSZKYEgMxciyAQAAAAAaCEIMvMhgsyUQJCZCxFkAgAAAAC0EASZ+RBBZkogyMyFCDIBAAAAAFoIgsx8iCAzJRBk5kIEmQAAAAAALQRBZj5EkJkSCDJzIYJMAAAAAIAWgiAzHyLITAkEmbkQQSYAAAAAQAtBkJkPEWSmBILMXIggEwAAAACghSDIzIcIMlMCQWYuRJAJAAAAANBCEGTmQwSZKYEgMxciyAQAAAAAaCEIMvMhgsyUQJCZCxFkAgAAAAC0EASZ+RBBZkogyMyFCDIBAAAAAFoIgsx8iCAzJRBk5kIEmQAAAAAALQRBZj5EkJkSCDJzIYJMAAAAAIAW0mvUEGTmQASZ6cFN9yoEmdkWQSYAAAAAQAvBTmY+RJCZEtjJzIUIMgEAAAAAWgiCzHyIIDMlEGTmQgSZAAAAAAAtBEFmPkSQmRIIMnMhgkwAAAAAgBaCnMx8iCAzPZCTmX0RZAIAAAAAtBDsZOZDBJkpgZ3MXIggEwAAAACghSDIzIcIMlMCQWYuRJAJAAAAaM7ubx401xg9Xjh+z/zy+GlF03+mMN3nF8req1nZfbP8+bu44Z9TNGtvkL/npcwKFhfM8GlFo8ZFqXpyj7X+GP1XgS4Gx2XzIYLM9MBx2eyLIBP8K8IZe3TBdp/E7XqRG+4ZhXL4XGYErxCGe3bBmHhnwXDfKYzgbGYHr5A/fx6zvDNZpd7XW3FPYcMTj9F/DQAAdD5zLxk9nAY8Zvuv52X3v+Sgdzk3/dXyx1uY6XrM9LbTh2Rx1dZmceUWLf1876/ljys2N+Xvu0faYIa7Uf7Z65jlD8hfX8gt/4N9MgBdYGx6lP4nQZeAncx8iCAzNbCTmQMRZHYpzeYBCyvucUUnfJ4wvU/KedXFzAps2af/Jp3ghreZW3J8vXdOlTC3kj9yK5Djr7uVm25VjsM3cjuoyLnVz+Qc67PMiV4k+v3j5b91oP5XAQAgXYThHy8HrDfJAPC7crC6Sg5c20QlUoNa39qdalJJgaMYmmwKJ2rKQU0OdP5DKpxQfpg2mmJ4kwpI+9bIv2f1DvnrSfr/98hB8jb5d13Gyt7HiqXa6XP6mwfpLwfkFASZ+RBBZmogyMyBCDK7BxnwPUIGfy9mlvclOW8qyfmVS0GiWLFJzonubPatvlMFjjQvUu2CPhsT5lP3U/4e+r30Z1TwKedV9HepOZqcm8mxOZD/pkWbBHJu91Ix4j9CfzkAADA7sLLbJyf775eDnslNv0rBY99Vd6nAMh7sdCCZ8CE5c2mQlAMsBaAy+Lw38LSDLfL/38Dt6Dvc9l44d6R5uP4yQY7Acdl8iCAzPXBcNvsiyMw3fYPe47kZvIlb3q9oMV3Oe+7uW7tLjZtiqKEDSTm/Smgb++XeAFT+G/Rv0b8p/9s9cszYINTX4r2l6NRP0l8mAAC0Fhr85AT/XG64FTn4NCjAK67apgI+NfAlDVztVg6M9KFLK3J98utRX4cdXCv/+1eKRsT1lw5yAILMfIggMz0QZGZfBJn54+z+/oN4ufpsOS7+WL7fW9QOo+ynaneRTn8ltIPZkP5t+hrU17Jya5M70Sg3/F8Xbf/1Cy+94Sj95QMAwMwp2JNP4mb4Ze6Eo3uPV6gVtYRBKXVlAEKBb3FkGwWgW7jlXSIs/1n6WwEZBsdl8yGCzJRAddlciCAzP4j+Gw/ldvBGGbw5tGDep4I5ypts9SmwFii/JhVwqvkfHc9t/IFbwbvl94DjtACA6TPfqHE5sHyHm75Pu4SUB9CRg1+i8Q4n5RrI4Hin/Pny3kr4fP2tgQyCIDMfIshMDQSZORBBZvY5oVQ9Upj+u+Rn2R+LlBtJ86ssfa5ZgVrIV7ubdvA3ZrrnLjA2ohgjAODh4eXx+dyu/w93Ip/yHmnVKjvB5b6qIx90lNYJ7+FmsIyVaov1twoyBILMfIggMzUQZOZABJnZ5cQrxo7gRu0cbnjXqlNhq7all2rUCm0ZbFLVWjo5Zno3CafxYQSbAIBEei5bf4wMws7jlSigqmWqkmvSwJJR7w027UAGm/5vi+Xx0/S3DjIAgsx8iCAzJXBcNhciyMwmzHRfKQPKqwUdOaXgsh3Fe9KSjtKqYFOOLU70V24Eb9TfNgAAUEGI8LW8Ur9WHYvNWXD5QFUl3LU7KViJuOF9kS3DhcRZAEFmPkSQmRIIMnMhgsxs0euETM4zfiUDsT1qkTtPweUDpWCTikFWVBXcK3ut8YX6MQAAupEFxqZHMdP7cVy2WhXLSR48cqi6JyqecN1MOQU91vpj9GMBHQiCzHyIIDM1EGTmQASZ2YAbtbm8En2TO2Ggci5TrBI76zqhumJOzifrwvD+n34kAIBuonew+kwZYP6FiuN01QD4r6pjHlQunAJs71pRnni1fjygw8AVJvkQQWZ64AqT7Isgs7PpsdYfxu3oI7xS33hvTYuE99gN0tFgdcWdE14ijNHj9SMCAOQdYXvv55XGJkw4tPqYB4+D7d9ya+Ip+lGBDgE7mfkQQWZK4LhsLkSQ2blwK3g5r0RXqWvUZID1wHfXlcrP6761u2hu9Tc26J2pHxUAII8sKlWPZKb3/eKKTfEKU9Kg0M06YbNI156Y/mZhR98uOhMn6UcHUgZBZj5EkJkSCDJzIYLMzqNYqp0uKtEV0t2qf3VR2tFUVc/FDiZ7jdrb9WMDAOSJwlD4BOFEFgVR8fFYd5+BAMbSERdVYbcSjcqB8SMUnOvHCFICQWY+RJCZGggycyCCzM5BlKony/fxPe7Ut6n5QremHU1R2t0Vw5t2c6P6Ff0IAQB5YP6yUc6t4Po4GTvH1c1aLA2KxVVbaYfzmqLlvko/TpACyMnMhwgy0wM5mdkXQWb6nHjFNUfId/BR+S7uUDUtqJpqwruCD9Rt3ltk0gx+JPqbh+pHCgDIKnzAPUMOgutppS2548OHlPI1aWLmRHv4UP3y+UaN60cLZhEEmfkQQWZ6IMjMvggy04VZ/ou5Hf0f9SPkXc5MQdVn5XyUmW7/vP4Nj9SPFgCQNYqlsdOFE1WLCDD3WzoKQ/drymDTF5b/uZ7LcOXJbILjsvkQQWZq4LhsDkSQmQ5Fyz9VBkc/40797rgaPU6E7Zd2oOZTMtAcPPGKsSP0YwYAZIXC8rEF3PTH1AXAyL9smVQwSX3I2OE6bgZvmrNkyYH6kYM2giAzHyLITAkU/smFCDJnF7Zs4jHyc/48+dxryLtssTJQp+PGBdP9TY+15zD9yAEAnc58Y+M8XqnfjACzTaojtNtUgSD5oWMV7PC5+tGDNoEgMx8iyEwJBJm5EEHm7DD3ktHDmem9VzjhTTSPQjX+Nkk7mvL5ymf94zlLmliwB6DTmbf0tuO4E/xZFflJ6tSwdcqARwXylfou7tQvKQxMFPRrAC0GOZn5EEFmeiAnM/siyGw/3Kq9nFvhNVT0r7hyi1pUfuB7gK2TPtPVuGS4qDoLQCcjRvxHMNNzEGDOripfk+7XrDQ8bkfnFQZuPlq/EtAisJOZDxFkpgR2MnMhgsz2wQc3FoUVXMrtYI/qJzbyLmdLate0W8xKE+fq1wEA6CjkJIImb/E1JVh5S0MaJOnoB3fq13MjeKN+M6AFIMjMhwgyUwNBZg5EkNl6hDP26IIdfpk7YaiuJEHeZSpS+hGdCiuUJnBdHACdBh+svoeOdmASnrKUr7lqqww4acCMytyoPUe/IrAfIMjMhwgyUwI7mbkQQWbrmDtCeZfV93E7+AdV4FdBTsIzh7NncRUVVQxu77HGT9SvCQCQNgVzbIGwg6i4AsnpnSIFQyqh3Yl2yV//kpXdPv26wAxAkJkPEWSmBILMXIggszVws/pabrr/RwvzyLvsLNXVJkbtd/pVAQDSRK3GGbURKq+d1GFhutKkoEj5mk7YYFZ4fo9Ve5x+dWAaoPBPPkSQmR4o/JN9EWTuH/PL7tOF6Q+oz2XqC7jvsvOUn/HFFTLwL9U+oF8bACAtRLn2SZUHiJW4jpaO4vSt2SGDpOgWUfbeNqeJct3TATuZ+RBBZmpgJzMHIsicGX2D3uOZUftvZgVbqW4FPkc6W7FiMy0ARAU7RMV+ANKCrsxgpl/HMdmMSPmadDxHDqDMCc2CMfFv+lWChwFBZj5EkJkSOC6bCxFkTo/FI82DCyX3XdzwblFFfYYa+zxT2JnSCTBmuCaNXfp1AgBmE16uLsUx2QwqAyX13pxou7D8C7hRm6tfKXgQEGTmQwSZKYEgMxciyJw6hbL7XGa6w7Soq/IuE54n7GDtQL63rU1m1T6kXykAYLYoWO6rxFBjD8ptZ1eaMKj7Ne1wjFnexxZW3KP06wUPAEFmPkSQmRIIMnMhgsyHp2BPFLjl/i8z/btVKhHuu8ys6tSX6XpFZ+Ik/XoBAO1G9DcPZeXaH/vUhMHdp2PCbEn5B8URKt3t/5kZ/uv1awb/AoLMfIggMyUQZOZCBJkPjrhi7NHcDM7jph8UKe8yflYw49JCPCu739avGQDQbrhRe3tx5Was0OVJK1CBJn0wMssfLJrVZ+rXDSQIMvMhgszUQJCZAxFk7suii9cdwkz/HdyJ/krtWwyjRkWepKKJck7U4OVgvn7lAIB2sahUPZIZ7g3q0tqEDgmzLQVRcZ5tcKcw3IuYOdGrX31XgyAzHyLITAnsZOZCBJn3p2D7L2FOtEKs2NQsrtoqnw2q7OfR4tqdTW7UfqhfOwCgXciJwnsoGRpXluRbmkyofE3T95np/Scb3vwY3QS6EgSZ+RBBZkogyMyFCDJjWNntE0P1y7gT3VNE3mXujasC+5sKA7jSBIC2ceY1e46Qg+u1Kn8voSPC/Fkc3tSk4gUy0LyJG/45crLYlfdrIsjMhwgyUwJBZi7s9iCzt1R9LLPDr/Khel1dSYLCh12i31SLCYb7Pd0UAACtRhi1l4qhyd10BUZyR4T5VA6wq7aqgJNZnsXLwbN1k+gaEGTmQwSZKYEgMxd2bZDZf/ZBwnTfJb//mymdRAxP7vNsYL6lOiTM9DcKY/R43SoAAK1EdrTfq9WchA4Iu0C6Nyo+GrSTmcGP5xsb5+mmkXsQZOZDBJkpgSAzF3ZjkFkw3OeJoXqF0oTi+y6RKtSVWr76/CgY3vt10wAAtIoeyz+VGe6m+Gx6QgeEXSNNNOL7NYMJYYafLAyER+tmklsQZOZDBJkpgSAzF3ZTkFkYmChwJ/qp9K7iCPIuofz8oOJOZW+VbiIAgFYhO9ZH1QQBBX+gVt2vSVWGnehaYfln6aaSSxBk5kMEmSmBIDMXdkOQebKx8VHcCb7AnbqPvEv4r4qK2mTZ2js4vlA3FwDAftPfPIgbXgVHZeE+6iMkNPjKCciVvVbtdN1qcgWCzHyIIDMlEGTmwlwHmc05BxQs7228Uv8bFbvDfZdwH+V8h3JymeF+TrcaAMD+Ihy/R3aqHVjRgw+qDL6KdITWqW/hTvTd4vKJk3TzyQUIMvMhgsyUQJCZC/MaZHKj9hw5vzGLdDoHV7TBhzD+DKmtoM0X3XwAAPtDwah+mAZfDLzw4aScXQo25WRkVFTCc+deMnq4bkaZBkFmPkSQmRIIMnNh3oJM4Yz1cDO4mFeinbR7icr58OEUlYiudNvOy8F83YwAAPsDM9zlfWt2JnY4CJMsrtii8zUbVzM7eIVuSpkFQWY+RJCZEggyc2FegsxFwxseySz/c8KJanpRdJ/vFcJEKUWIrnMzvffp5gQAmCnzlrrHMaN2GwUNiR0Owgdzb76mE+3hlfqv+aBb1M0qcyDIzIcIMlMCQWYuzEOQyQcn3sjt4HqqMYG8SzgTKS9Tjme/1E0KADBTRMl/Fnfqu3GMBM5U4YTxlSeVep074Vd6S9XH6uaVGRBk5kMEmSmBIDMXZjnIZIPjZ3IrGFQpHXQVBdJ/4AxVp7QM7zox4j9CNy8AwEyQE4OPxBMDDMhw/xTDk01Vta/SuKlg++9cdPHFh+hm1vEgyMyHCDJTAkFmLsxikMmN2lw5f/ket8PtxTXy8wdjONxPqR8w09vGym6fbmYAgJnATPcyteqX0NEgnInFlVtUziav1FcJGbzpptbRIMjMhwgyUwJBZi7MUpC5gO67NP3PcNsfV/ddxl87hPsvpQLJeTErV1+nmxsAYNosaR7ITfcGBJmw5dqBmvDzSkRHsX/LStWn6lbXkfQaNQSZORBBZnrIz5KrEGRm2ywEmYsuXncIM2vvkAHm3/tkeyuuoLxLnMSCrTQOMmWw+RXd7AAA00WUqifLiUEVyfGwXdLdq8XVd9KPW+TA/T9FpzPv18ROZj5EkJkS2MnMhZ0eZHJj4oXM9Feo+y6RdwnbqN58+b1uegCA6SIs/1myE+3AMRPYbqkYgzrSZId3FCz/wwsvveEo3Qw7AgSZ+RBBZkogyMyFnRpk9jlVxizvFzKovIeqxnIr2Odrh7CVquOyhvsXGtt0MwQATAduum8SQ5PqaGNSJ4OwtfpNQSvQI9uozf2BG95rdFNMHQSZ+RBBZmogyMyBnRZk9li1xzEn+BJ3okDdd+lE+3zNELZD2i1npnsHWzbxGN0cAQDTQZj+uX1rdyV2MAjbpkX5mtv0hCFYOr/sPl03ydRAkJkPEWSmBoLMHNgpQSblXQrHfxe3w5uKI7jvEs6+agPG9MKiUeO6WQIApoOcFHwFQSZMS3W/Jl16bPnbZeD5gx7LP1U3zVkHhX/yIYLM9EDhn+zbCUEmc6IXya9jhTr1shJFCWE6ikrUZGX3zqLpP1M3TQDAdJAd6UfqEv2EDgbhbEkTm741O2mH02WG+7m5y0eP1U101sBOZj5EkJkSyMnMhWkGmdyuF3mlfjl36nfT7iXSeGCa0iI4FZZipvtK3UQBANNBdp5LMSmAnWJxeFOzuFoGCZZ3PS+5b9LNdFZAkJkPEWSmBILMXJhGkCmuuPHRMrj8L2kdeZewY7SD+Mis4b5RN1UAwHTgpru0uGpbcgeDMA3VJcjb5GSn0RSmP1Awa0/TzbWt4LhsPkSQmR44Lpt9ZzvI5JXw7XKsv1FVHo9z4CDsDNVcZGtTWLV/180VADBlaOW57BkIMmEnSsGeytc0/W3M9L7F7OAE3XLbAnYy8yGCzNTATmYOnK0gk9n1ZwinYd1736WJ+y5hhymDzL7VO5py/vFe3WwBAFNGBpnMcC0EmbCT3Xu/pvz5bTTYL1rXPES34JaCIDMfIshMCRyXzYXtDjLnl8eeyCv1C/lQYztN4JF3CTtWBJkA7Af3Bpmo3gY73+LKLereKm76q7jhvVC34paB47L5EEFmeuC4bPZtV5B5wsXrjhRO9GH5999BJ1Ro8VC2l/v92xB2lAgyAdg/mFFbjp1MmBnpfk1a/Ta93cIKLi2Y3gLdlPcb7GTmQwSZqYGdzBzYjiCz4ERvEE79j9Q24oXC5H8bwo6ScjJXbpVBZu0duikDAKaDnBT8GpMCmDWp+qA6QmuHdV6pf2OBNX6ibtIzBkFmPkSQmRI4LpsLWxlkFmz3ucwOTSrooxaz5aT9gf8ehB2rqi7baBYM92zdpAEA00FOCv5X5UUkdTAIO1w1eaFg04lGhRV8fNHF647UTXvaIMjMhwgyUwNBZg5sRZDJBzcW5QT9l9wO76YrqTCmwiyqr9LZw8u1l+umDQCYDrLzfKNv7a59OheEWTKuULitySv1PzHLe51u3tMCOZn5EEFmeiAnM/vuT5BZGAifUDC9b3ArqKu8S9x3CTNs3Bfc7azkPUM3cQDAdCiUvU/2XXX3Pp0LwsxJ+RMj29TupvxwGOCGe4Zu5lMCO5n5EEFmSuC4bC6cSZB54hVjRzDTP1cGlxtw3yXMi6odG15QsCcKuqkDAKYDN/xzKLGZCqokdTIIsyYFieoIuFPfxpzwguLyW0/Szf0hQZCZDxFkpgSCzFw43SCTW7WXc8u7mqrUF1dsQd4lzI26SNXtc5dPHqubOwBgOhQM93nMcO8SjvpggTA30mRJrapX6qNy4vPBxUtGDtbNPhEEmfkQQWZKIMjMhVMNMgsDEwVmupdyOV6qd46FapgzaeFEfpb8STd5AMB0EYN+j+xEvhjelNjJIMy6tLpOu/XCqa9gVrBYN/19QJCZDxFkpgSCzFz4cEHmvP4Nj+RG7VPMDty+NTuRdwlzKwWZhbL7G930AQDTZdHF6w6Rnenv6shsQieDMBeq+zW30wRqJ92vKYyJJ+sucC8o/JMPEWSmBwr/ZN8HCzLnXjJ6uCjX/l3+vxuoyBoWpmG+jWs8yJ+fp7sAAGAmyE70e1qxuX8HgzBvumoCVaR8zUp9MzO9bxUGNj5BdwPsZOZEBJnpgSAz+yYFmcyMXsRMf21xxSa1u4O8S5h7qZDgyi3ys8R9he4GAICZIGz/8/GKDT44YHdIFyxTvia3o1uZ7b2X+kGv5T9L/T8EmZkWQWZK4LhsLtRB5na2bOIx86/cOI+Z3s+4FewujuxA3iXsGqkfyLY/WTRqXI9wAICZ0Gd6L1JHX2x8gMBuMl6pFCs2U1Biyf/2TVUECxOpTIsgMz1k/8FOZsalRTbZf7Zxo/ZD+eNYkYqnIe8SdplqHDPcP9D1PHp4AwDMhKJTP0l+oFTFMO62gl2oHagjYKLSSP7/MFMiyEwN7GTmSLUAh7xL2I3SUdnVO5rM9H+ixzYAwIxZ0jxQTg4cdbdgUoeDsBtEnlEuRJCZEjguCyHMg1agUmqYEbxFj24AgP2Bme7nVYVZTLQhhBkWQWZ6oPAPhDDr0qkmZriThaHw3sKAAID9gJWqT5Wd6x7hoOgJhDC7IshMCexkQghzoKpAb3rGnCVLDtSjGwBgf+ix1h8mJ2Z/xn2ZEMIsiyAzJRBkQgizLuVjqjEs+Kge2QAArYCb7pf71u7ct9NBCGFGRJCZEggyIYQZVwxRAUx3Ey8H8/XIBgBoBaLsPp2b/k59TxaEEGZOBJmpgSATQphp9fhl6DENANAyms0D5ORsZXFk2z4dD0IIsyCCzJTATiaEMMvSUdmVW5qs7L5Zj2oAgFbCDe/tqDILIcyqCDJTAkEmhDDDCjn3ZYa7fu7yyWP1qAYAaCXCGXs0M2rrUQAIQphFEWSmBIJMCGFWteRnB1WVNWpf1CMaAKAdqDsz4xLOEEKYKRFkpgSCTAhhRhXDm+hzwz+tHD1Rj2gAgHbA7OAEGWi6xRWbEjsjhBB2qggyUwJBJoQwk/pNdbOC5X5Hj2YAgHZSKFfP66PdTORmQggzJILM9OCmexWCTAhhlqRdTBloeqJUPVkPZQCAdnLyVZsexQz3Nqq0ldQpIYSwE0WQmRLYyYQQZtC+NXfSj+fpkQwAMBuwsve+4iqqNBvs0ykhhLATRZCZEggyIYQZUxW5NLxbqOilHskAALNBj7XnMFau/RFFgCCEWRFBZkogyIQQZkk7aBZXbaNczHfrUQwAMJsIo/ZSMdS4Rzj15E4KIYQdJILM9EBOJoQwK8YbKLVVi9Y1D9FDGABgtmGGe4E6s44iQBDCDhdBZnogyIQQZkFV7McOJnutxkI9fAEA0uC05ZPHctP/azx5cPfprBBC2CkiyEwJHJeFEGZBdUx2a5OXqx/VoxcAIE2YVVvM7fAuMTSZ3GkhhLADRJCZEggyIYQZsG/NziYrV0tyzDpQj14AgLQplN0vq2OzNqrNQgg7UwSZKYEgE0LY4VI1WeGEE0XLP1WPXACATuDEa8aOYKY7qO8UghDCjhNBZkogyIQQdrBiqEHu5KXqa/WoBQDoJPoGvccLy7+uuBqBJoSw80SQmR4o/AMh7ERFJVJ5mKzs/ocergAAnYiwaoI70UZ1v5CBQkAQws4RQWZKYCcTQtiJWkF8XYnhflePVgCAToYbEy8UQ5NbxIrNshMj0IQQdoYIMlMCQSaEsNO0/Gbf2p30mfB70d88VI9WAIBOp1CqvlVUGjuKCDQhhB0igsz0wHFZCGHHKAPM4pqdVKyyssDY+Cg9TAEAsgIbHHsLt8I7iyu3yE6NQBNCmK4IMlMCO5kQwk6RjsiuubPJTN+ku971KAUAyBrCmDhbVBpbEGhCCNMWQWZ6YCcTQpi6dtCkWxCY6Q7M69/wSD08AQCyCjeqr+GV+iQmGBDCNEWQmRLYyYQQpq0TqRxMYQfLCgPh0Xp0AgBkHWZ6L+J2MK7u0bT85AEAQgjbKILMlECQCSFMUTE02aQTdXIu+uMTrxg7Qo9MAIC8wMyJXuHU11CgKZwocSCAEMJ2iSAzJRBkQghTUl2pZ4c75c8/qkckAEAemXvJ9ccKy7+Iqs7GlWeTBwUIIWy1CDJTAkEmhHC2pfzLtTubfKhxM12tp0cjAEDeEaXa+0WlERRX0/HZIHmAgBDCFoogMzUQZEIIZ026p52OxwonXCpK1ZP1OAQA6BaEFQleqRt9cuKBXU0IYbtFkJkS2MmEEM6Gunost/2Qme65Z/f3H6RHIQBAt7Ho4osPkZOPjwinPk73FiFXE0LYLhFkpgSCTAhhmxXDm5rFVVvlz/1SYfnYAj36AAC6nfnGxnnM9H/OnWi3moigAi2EsMUiyEwJBJkQwjZJmxOqoORQPRC2f64ccQ6IBx4AAPgXWKn6YmYHVxVX71Dn6RFsQghbJYLM9OCmexWCTAhhy7SDJs0VxVBjN6/UfyEcv0cPNwAAkMzCS284ipn+uXIAuTkeQCaTBxgIIZyGCDLTA0EmhLAlWr46FkvHY4UzaRXL/kv0MAMAAFOjx6o9jpvBN3il3lDBpsrXdPcdcCCEcAoiyEwPBJkQwv1V5V2uluOIU/8Ht/1z5sxp4mgsAGDmcNstikr956IS3aMmKbjyBEI4AxFkpgeCTAjhTKVNBioOySt1VwyFn2XLJh6jhxYAANh/mOG+Qjj1P+LKEwjhTESQmRIo/AMhnIlWnHcpg8u7pb9i5kSvHlUAAKC1PL7iHiUs/8Pcqd/et5qqiTWSByYIIXyACDLTAzuZEMKpG+ddqg0FJ1pZtJF3CQCYJeaXx54onOhbotLY1Ef5mnaYMEhBCOF9IshMCexkQginKBV7VHmXdnQzt4L3iP4bD9UjCQAAzB5yAHqKqNSvpB3N4io5KOHKEwjhg4ggMyUQZEIIH8a9eZfMCjbJudxXFi51j9MjCAAApEfB8s/iTv3a4sg25GtCCBNFkJkSCDIhhA+mvu+SNgmYGfTPNyaerEcOAADoDOh+TW5HHxWV+gbcrwkhfKAIMlMCQSaE8IGq+y63NcXwpAwu/RW9hv9SPWIAAEBnUhja+ARuRt+UAWe9b82d+n7NhAEOQthVIshMDxT+gRDuVazYHI/HdnB9oVR965yRkYP1UAEAAJ1PwfQWyADzUm6Hu1USOfI1IexqEWSmB4JMCKGo1Ju0+C/nZeOFcu2TPdb6Y/QQAQAA2UM4/ku5HVwlVm5pFqVJAx+EMP8iyEwJHJeFsLu1wzjv0g53cCv4QcF2n6RHBwAAyDZzR0YPZ6Z/rnDCO4prdjRFBfdrQthtIshMD+xkQtiFUt7lyi3qeCyzQ7NgTPybHhIAACBfFJ2Jk2gVjdvBTiqVTVXNEgdGCGHuRJCZHggyIewuqfiiPhp7Czf8c+YsaR6ohwMAAMgvMrh8thz4bDG8SVU3Q74mhPkXQWZK4LgshF0jFVvsW60W8Se5GXzjlMENj9cjAQAAdAn9zYNodY2Z/o00+SnKgDNpwIQQ5kMEmSmBIBPC/Et5l9THnfAebvm/7rO8hXoEAACA7kQ4Y4+WA+R53Ao8deXJEPI1IcyjCDLTA8dlIcyp6r7Lrc0i5V060Qpm+S/W3R4AAADROzh5ipwIfY/b/mbcrwlh/kSQmRLYyYQwl1JRH0o5EpXoOmF5b5vT33+Q7vUAAAAeCLcmnkJHPbgd7FaTIhQHgjAXIshMD+xkQpgf6cSXWoyvRKNyjvTRE0rVI3VXBwAA8HAUytWXcCsYufd+TRQHgjDTIshMCexkQpgLBeVdUsXYSmMTt6PvLFg6fqLu5QAAAKbDonXrDpGB5ruZE66ngRX5mhBmVwSZKYEgE8Jsq/Iu6Vhsvcnt+pXMDp6qezcAAID9QRijxzMn+G/uhDpfM0weiCGEHSuCzJRAkAlhZhUrNquxk1fq65gdvV73agAAAK2kMFB7mrDCpbSaF9+viXxNCLMigsz0QE4mhNmS5jm0qM6dqMqs8HM9VnSM7s4AAADahRyAX8vs8E/FkW2qbPcDB2cIYeeJIDMlsJMJYXa0g2Zx9Q669/JOYQUXCcfv0T0ZAADAbLCoVD1SWP6HRaU+GldZqycP2BDCjhBBZkogyIQwE9J9l2J4U5NZviXnN8/SPRgAAEAaiFL1ZG6HP5BB5o4+tfqHI7QQdqIIMlMCQSaEHa0YmtS7l8E/uOGfg/suAQCgg6BVPxlsDhVXblWrgbjyBMLOEkFmSiDIhLAjFU7U7Fu7k+Yrm5jln99bqj5W91oAAACdxOIlIwcXTf8d3Imuj/M1tyQO7BDC2RdBZkogyISwo6T7LlVRH9O7m1ver4qOf5rurQAAADqZws9uPprb0Ue5U7+tuBr3a0LYCSLITAkEmRB2hnTf5cg2tYMpTH+Al6vP1r0UAABAligMbHyCDDS/Lpz6Fl2tLXnghxC2XQSZ6YErTCBMVyroQ31Q2MEfean6Wt01AQAAZJliqXa6qEQDdN2Jytc0ka8J4WyLIDMlsJMJYWqqvEs6GmuHHi+7n1lYcY/SPRMAAEBeEE79rbzS+AdVoRUrNiV+IEAI2yOCzJRAkAnh7GuHzeJq2eesYLf89S/7SlWmeyQAAIA8wpZNPIY7jS9wp16N79dEviaEsyGCzJRAkAnh7El5l6u2qeOxMsB0+MDEC3VPBAAA0A0Ix+/hTvRDbofbKV+Tqr0lfmBACFsigsz0QE4mhO333rxLJ7xOjnVvmbNkyYG6CwIAAOg2uOGewQx3UFTqavUR92tC2B4RZKYGdjIhbKM0f1B5l5VoTJjeJ3qs9cfovgcAAKDbkZOwN3LTvb5PTsSoQFDSBwmEcOYiyEwJHJeFsD3SfZd0EqpS387t4AeF5e6TdK8DAAAA7mNe/4ZHsrL7WW76tb41O9XqZOIHC4Rw2iLITA8cl4Wwheq8yyLlXdpRmZUmnqG7GgAAAPDgiMGxHmYGPxZ2sFOtUiJfE8L9FkFmeiDIhLA1Ut4lnXgSlfp1zArerLsYAAAAMHWKpv9MbvqGGJpEviaE+ymCzJTAcVkI91sx1FB5l6LSmOBW+KnCz24+WvcwAAAAYAbICRoru29mpv8XmqQJla+JYBPC6YogMyUQZEI4Y4UTxkV9nPo2boc/KNjIuwQAANBCeqzoGGF7n+BWMFZUq5nI14RwOiLITAkEmRBOX8q7HNmmPuuFU18q+9AZukcBAAAArYdfWZvLbf973Inv1+R2kPwBBSG8nwgy0wM5mRBOXbEivu9Sfr7/idn+63U3AgAAANoPrWpyKyzT8dniyq3I14TwYUSQmRLYyYRwSgqn3iyu2dnkTlQVlfonRP+Nj9C9CAAAAJhFliw5sDDovpM74T/UEdrhycQPLgghgswUQZAJ4UNpB3HepR3eLQPNnwnH79F9BwAAAEgPtmziMQXT/zJ3Ii+uPod8TQgfKILM1ECQCWGS+r5LWiAWlYbDHO9Fus8AAAAAnQNbtqGXWcFFMsjcjvs1Iby/CDJTAsdlIdzHIqW60NVkpv9XYXlvm9PfPEj3GAAAAKAzYYPemcKpLxOVhvwQkxM75GtCiCAzPRBkQqilk0bqaKzljzHT+8Rpy0eP1f0EAAAAyAZUlU4Gm9eqXc3hTYkfeBB2iwgyUwI7mRBSvmWzbzUFl8GdBaP2A1Gqnqx7CAAAAJA9qDqd/HD7tKjUa32rdyJfE3atCDJTAkEm7GZV3uXWuDCf5Zd7B6vP1D0DAAAAyD5Fyz+VO42f8Epjl5rs4X5N2GUiyEwNBJmwK6UTRMWRHbR7+TdheG+hivC6TwAAAAD5olB2nysq9SGxYkt8v2bCByOEeRRBZkpgJxN2mcKJdN5l4HPL+4Jwxh6tewMAAACQY+h+Tcd/lxhq3Ew5ImII92vC/IsgMyUQZMJu0Q6axdXqpNDd8teXFOyJgu4FAAAAQPfQc8X6xzGnfj6v1BtFCjadKPmDE8IciCAzJRBkwrxLeZcr6XTQFgowV3LLe4Fu/QAAAED30mt5C1klukJUGnvUvV248gTmUASZ6cFN9yoEmTCP0kmg4podVD32Vlb23if6bzxUN3sAAAAAEAWr8SoZaP7h3hXZhA9UCLMqgszUwE4mzJ3qvku6ksQJG9wKvi6M0eN1ewcAAADAAzmhVD2S2+EHuB3dTFXxcL8mzIsIMlMCx2VhjhQO3Xe5QwaX0Z3C9H/OBzcWdUsHAAAAwMOxsOIex+3gi8x0PaqSh/s1YdZFkJkSCDJhHqS8y5Ft9Fm4R9jhsoIx8W+6hQMAAABgutD9mszyL5IfsLvU6i3u14QZFUFmSiDIhBlXrNjcpHoFohJdw5zglbplAwAAAGB/4UbtOcz07CJdLr1qK4oDwcyJIDMlEGTCjCoqDXXfJatEdwgn+vDcS0YP160aAAAAAC1jSfNAXqqdw63gJnW/5jDu14TZEUFmSiDIhFnTjvMuRaW+XXpBjzV+om7NAAAAAGgXPVbtccLwviSDzbrK18T9mjADIshMD1xhAjMh5V2u2qqOx8rg0mC29wzdhAEAAAAwW7DyWB83/ctp1VdNIC3ka8LOVQWZZe9nuvmCWYSZ3loEmbCTpUrqRao7UKn/jdnBW3TTBQAAAEBasIHxVzAzuOre+zWRrwk7Ttqh2EY//5FutmAWYaa/Sk3gE98NhOkp6L7LNXTfZd3ldvTFBcbGR+lmCwAAAIC06bHWH1You+/mdvCPosrXxP2asIPUx+C46X5PN1kwi8ggc1hVp056NxCmIZ3AoeDSDnfIAPOHvBzM180VAAAAAJ0GWzbxGG4FX+B2VFXBJu7XhJ0gBZm0y264X9FNFcwi3PDKarco6d1AOJvSWDCyTQWZzPKXFwwf910CAAAAWaG34p7Cbf9i5kS7+igXC/drwjSVE0vaXWdl72O6iYJZhBnu5TguC9OWruBSn0emt46Vq6/TzRMAAAAAWaNguM/jTrSSjioWV2yWH+7I14QpaAVNMdRocsM/RzdNMIvI4P5ClROLfG2YglQBPd5JD3xmuZ/tuWz9MbppAgAAACCzrFt3CDOD93En3KCuPBnC/ZpwlrVlkCknmgUjfJ5ulWAWYYb7OboWAkEmnFVlv9e5wLuZ4f28YE8UdJMEAAAAQF5gS+84QTjh13ilXu+jfE11v6Z7/0kBhG1QtrsmM927mRn06uYIZhE5wX+LqDTUjnLS+4GwpVLeJd13GRegq/QOjj9fN0UAAAAA5BU+uLEoA8xLRSW6R+VpIV8TtlkxPElB5h19KzY8XjdDMIuwwfEzVT+3w8T3A2GrjO+73E5Fff5WsLy3zelvHqSbIQAAZIxm80DR7z9COGOPnl+OnthreQtFqfosbnsvFGXv1cIOzmaW97pi2X8JN4LnMKO2qGC7T2LDE48pDIRHLx5pHqz/JgC6Cm5HLxRDk8P33q+JfE3YJqmapAwyVyxa1zxENz8wi/RY4yeysltXu5kJ7wfC/fXe+y4tv8pN9zNzl48eq5sfAF0FXSk3r3/DI3tL1ccKx+8RZffpxYHx53Gz9rKC6b9BWP5ZzHBfIczw+azkPWP+UMSF4R9/2sjksYtK1SP1XwPSgAJJOVl5JTfcjzDLv4AZnsVM70Y5qHnyx61ysLtTvry75a93q8GPVm8pD8Vw98j/fo90FzP9bfLHOje8W+SfXyl//RNu+J8uGO7ZfAh3NYEu4uz+g+Qg+C45QbiZcmdox+lfJw4QtsK+q+5qyg/Ri3SrA7MMTVy4UftTvJiU/I4gnImC7rtUJ2KiHdwKfjjf8ObpZgdA7hE3Ng8tmOHTWLn270U7+KKMQy6V8cY1crwdlXHGpPz1dukuGZPcI92jUhbuOz0mYxLvLvnjDvlnNsv/PyH/zF/kz6+Uv+/rwvTeV7DD584bbjxS/3Og1cwvjz2xUPZfIgPB8+VLG5EvZ5yCxr61u5p9a3bee+6fKhfSShrlmd0rHQ2S0o+UE3Tvf6ffR7+fjnWs3Nqk/DQ1CaLqh1bgywbxZ/nSLyya/htwQTDoBmjFTfaV/5J9I6QLsqmf6EEQwv1T52cVDPcjurmBFJATl1/R52biO4Jwuu7Nu6R5k+mXaEdGNzUAcsuii9cdIgz/ybwSvUfGJZfLvvAP6RbqCxRHFEe2q5NhtGBPJ0fuH5fE8YiKSx4Yk6i4ZFLdAkAnf1SMs3pHUwWoTngbL3sGs4NPMMs7k05h6i8HzITCUPgEYQbvkw/393Ig26AePL24vQGlfDn3G+xapR2ohkGBJ71k+lEOnr78fw63vS+ystsnv7wD4q8SgPwhrJpgTv0y7kS7qc+pUwBJfQXCKSqcepMZ7l1yfH22bmYgBQpG7VPo07AVxnmXO2gu9hdhuGfrJgZALqGTIMyqLZafYxfIudFV3HR3xDEJxQkyoFRF1dowrsq/k4JQFXjK+EeN3/K/y/92nfx//ysD1lfP68cu55Sg1QF1DNbyf8os3ysOb1bn+9XdfmlVxKMXLANc2umkFywb2J2ygZVk8PvevhUeCliA3CL73MtFJVqrBjYcsYP7oT6CPXHaCHK00kSY7vPlZ9c9NGl54DuCcCrSbgudIGNO5ArD/9zc5dejT4Pcwm23KNv9eTKY+6OMB/YUR3aoQC/NMZR2QtW8jE6cyf7IzeAfMjb5WtGqna6/bPCv6BzLc+ULvJbbwZ6+tTv3Hlvd5+Gm6t4VhdWykVHAaXpjzA6/WrBD3PsEcsncS0YPF3b9/bKdr1er1sjXhDOQVnuZ5S/XzQqkxGnLR4+Vk5EJ3JMLpyvNfdR9l5X6du4EPzrVGevRzQqA3NFr+s/kTv2XMiaZVJtdcs6vjrl22ikQO1AbcRQ3cSfaKvvpADe819DcTX8r3YsYHOthVvAt+WBuV9vOK+VLzMoKqwyA6bgI7XDKhujLF/2jgjm2QH9rAOQKYYweLwfXr0hDGnAz009hR6g+AI0A+ZgdgJyAXElBf9J7gnAf5aRaHdGrRLu5Hf6eG+4ZuikBkDuEUXspt/2SbOt3qYV1teGVjfQC2tVUu6z0NTvRtTI2+WBXVniev2yUy4HqezIwC9WuIB2HzfDVCbS7o8p228FmYbkX6bxNAHLHAjssyAH3f6X30LGRrAy+MD3VcR4r2CGc6Om6GYEUke/kA2pxNOFdQfiv7s27lBPWq3kleJluQgDkjl5KJTC8krACtWOf6YV02t2kmjK0+1qp/1WY/rk9l60/Rn+r+YXuseRl97/khCNSuyE5O7JDib+UqyB/vllOvr8rStWT9bcOQK5gpvci2c6vUgWy1CJRcp+AUO2ald1rqcy7bj4gRVRhL8ufjCuCJr8z2N3GeZd0YqU+we3oo3MvGcHRO5BL+uhefSe6LN65lG2ejsQm9IlMSqcQKHeTTiI40V+54b5Rf9v5o1CqvUEGl3+7L68rvzsg9OFNpYflRPwO6fsWXuoepR8DALlh8UjzcDlofUS2+ZqakKgE9OQ+AbtVfdTOdL+smw1Im2bzAG54K+P3kvTOYNeqdkBkuxiq38Ur4f/2Dt5xim41AOSKvsENj5eB1xe4EzaKa3bmOwXIkv2agk2Kvezwyt5Bb6F+DNknvnsvuJgCL7Wi3UXH61TJYSpt7IR/ELb3av1IAMgVxWUbT2WGe5Ew/Z3qGN59lwzDLld9cNvhDlot1s0FdADMqH2o2z6P4UOrTqVQFXGnvlJUwufrpgJArli8ZORgYYfvF5XGLXH+YvcUQaNdWlVYtVKPmFX7kH4k2YWXq8+W38x1XV0ohLaraWWQKuU60W+RNA/yiihVnyUM11L3zGICC6Vq0cFwK4tHmgfrZgI6AG7U5sr3E6HKLNx7RZsYqt8s5yjvnrNkCfoqyCUF23s1H2qsUrt66lq27pyjqFxr+Qzk9/9b0Z/RtD5Wrn5MDljb4wALk00KslVxICoxXIm+3WPVHqcfFQD5YUnzQDmBPUf2+b+pxPOMF/WC+6EqrS4/yK3g3bp1gA6iYLi/VJ9JSe8O5l5Kb6B79rhTD4VTP7/nivWYk4BcIgbuEHLe/TtaUFGFrDrtesQUVLua1P/t6OZC2X2uflSdz6JS9UgZUF2kjoniTr19VPmaVBzIDm+Sz+ldiy5ed4h+dADkBrqPr2DWPikDzDF1kgFFRrpOWi1lhjsmnE2P1s0CdBDCdJ8vrGBPrgpdwIeXFn/i6pk75bv/ORWC0k0CgFzR++t/PpbZwX/K+Udw34lKd98+0cWqI8OVyU2sXH2ffmydCyWJc8tfSUGUcPDB9VCqO0FXbJbPqb6C29EL9SMEIFcUl0+cxEzv29wON9GqeTzIJ/cJmC+pmAIzal/TTQF0GHSEmRu1a+jEQdL7gzmTUndWbVMLfjK4LDMrWKybAgC5YtG6dYdwK3iPqNRvVteRYMPrIXSbxeFN8TOy/O92bGpLseyfxp3ob+rSbRyPnZp6RZE79bukl8w3alw/TgByBR+YeAq3wt/Iyc0edYQexYFybfyBFYQLDG+ebgKgAymUq2+jxU70x3xLk8jiKlVN+AZmuW+mCsO6CQCQK+SY9hJeqY/cm3eJeGRK0vH5uIZC7beFgZuP1o+zMyga48+TL7LaR5PHhC8ePrS0uxPnRjR8PtQ4b17/hkfqRwtArpCBx8uZE62lFXXcr5lfVa5Hufo/+rWDDqXHWn+YnFRch93MfKomjtQXTa/Ky+5nTls+eax+9QDkioIdFrgd/kLOp+/GQvbMFPKZ0UahnKOZT+6UujGsNLaYO1GID6n9l3KYaGu/OFS/nhv+OVRERT9mAHIDTWyZ4X9IfhiMqjwJ3K+ZK2kc41bgFWz3SfqVgw6GLuimdyYspLjkRktOFuMCJ3dx0//JwoqL+y5BLlH3XZr+f3Gn7hepSjLyLvdPy2/2XXWX/Lm/mi2beIx+zOnAB8bPkC+0pq4rSPpi4fTVeRPFFZuaRae+stfwX6ofNwC54tTlEydxM7iQqlCrEvooQJJ9afwakZPbsvsZ/ZpBh3N2s3kQL9eGVFCS9E5hdqT+t/e+S8tfScWd9GsGIFcsrLhHMdM/l1vBraqQFfIuWycFmrSjabhOjxUdox/57FJYPrZAWOGo2pZO+iLh/kn5mqrqU7RbTsJ/w0rVp+pHD0CuYCXvGdwJBqkgRXy/Jo65ZFO32UcnWgz3hsJA2Fk5HeAhYZZ3JrODXThVkF33noSSE8SbeHni3aL/xkP16wUgPzSbBwjLP4ub/p/VhgzyLtujDjS54S+b9bFk4dLbjhN2uI62phO/ONgyaetf5VQ40RZmBd+SE4ET9GsAIFcUTP8Nsr3f98GR0B9g50oVxcVQYw8rV1+nXynIEPK9XaQmFQnvFnaucd6luhbNF5b3JdzBDfKKWpC2vDK1eZWih+CyvVKgqarEuxfpV9B+Fl8yeriw3IG+NbuSvyjYFtUuT3ze/DZheO/HKiXIIwsvveEo2cb/g1fqt6rS40M4ApMNXfVhVChVl+pXCTLGAis6Ub7LKgpyZUNagFYL/Xa0TVj+Rcyc6NWvEoBcwa+szRWm/31u+ncitWZ2VePMqi3NQnnik/p1tBdWrn1f7azhSFsKUr7FFpVzwZ1oZcFwn6dfCwC54pTBDY9nTv18KiqmigPh3t2OVl2DYYV+wZ4o6FcIMggvu+8urthCu2KJ7xl2gJa+79IJ93A7+H3Rqp2uXx8AuaLH2nMYM13Ku9yo7t/Hcf5UpE0uORe7q1D2Xq1fTXvgRu3tlFwrKrhQPVWpzPDq7fTSd8mf/0i+l7n6FQGQK4RVE8VK/dc07sT5mjge03HKgIQWv1ip+l792kBW6W8eVCi7S/vW4qRSJ0onO1TeJaUrldxX6bcGQO6Yb3gvFJa35t5CVgn9Ac6Wrpx/bW0yy3N5eXy+fkWthSZ73AkDHKXpHONcDHVcZkx2xo933AWqALQIZkev55X6DTTBwhjUWeoqdJfjyqV8UHTqJ3HTH6VJRdL7hrPv3s964UQR5V0uwl3aIKeoWMP0fskt/2519z5OTXaMVMVX/lihHWb9ulrDideMHSEnEVf1rUGJ805U0HUn6vLZcB1V3dKvDYBcMU9OrITT+Jxw6uMqP7nSSOwPcLZ01YcOs4Lre0vVx+rXBHKAGKy9lE7KICc6XSn3jBbWmHwXzA5+wQc3FvUrAiBX7L3vkpl+XR2NVfddJvcLmJLqFKWMAw33K/q1tQZmVD8XVy/DikLHujdPgybelm/Iid9i/foAyBW9g+4pMtD8PhW8iAtfIH8sDdWOshNFhYHa0/SrATmClyY+rY6oIx969lWf51vVtSS8EpW5ETxHvxYAcsXCS92jmBV+iFveLbjvsvNV+Zl2uKvXqj5Lv8L9Y8HAREEOeHU12CX8g7Cz3Lvyya3gbjrCJgz/yfpVApAr5OTrDNnOB2m3BfmasystZolKfU+hXH2bfh0ghzDT+5laYEbfmjXF8OamOiboRNcLOzhbvwoAcgez/dfLz5E/0IKKKmiZ0B9g51mkmjCme83CinuUfpUzhxu1X6u8v4R/CHaudNRATw42FezgG4Wh8An6lQKQJw7gZvAmbofX071ZqsppQn+ArVM49aaqQGrUPqXfAcgplPsnP0OGimoOgECznaq8S0oDGGpMCMv/XI8VHaNfAwC5gtneM2R7H6DFyuIqyrvE2JIp6aTFyHYq9vc5/UpnBjOrLxKVaDfH2ejMGlejkxMEwxulUtAnXjF2hH69AOSGuctHj+W2/2k5+E2g1Hn7VItXcjxhRu1r+tGDnHPKoPd4ZgV/xGJzm7SDuKBGJdou51o/LNjuk/SjByBXzDe8eawS/Vg49R247zLb0rFmZof1+UaN69c7TUaaB8uJxFpVUCbhH4DZ8t77NS3v6qLtv0S/ZQByxcKKe4qwgouY6d2tj40n9gc4A51QV5dzvzen2TxAP3LQBZy6fOIkGQz9VeVAJ7UNOH1pN4CuZ6BTAZXIoN0d/bgByBULL73hKGEHnxCVRlVVScYicA501WlJVq5eql/z9BCW9zZV2AHFfvKj/FBTuR6mv0dOwi+hfFv9ugHIFQXDfZ5s7yvp+CzyNfff+Pi9DDCs4If6EYMug+5HY7b/j3hHE/1pf1Tjkrrruv5Pbofn6EcMQO4QZe/VvFL/M21YUb5xUn+A2ZRSZ7gT3cVKtekVGhX9/iO44f5VTc4S/mKYbWnCqHJsLN+XweZ/smUTj9GvHoDcsGhd8xBueG+Xbf46GsuKK+UHHILNaRvnzcjPgrL7P3P6+w/Sjxd0IbwczBd2+BcUA5qZVJmRTljIZ3gHt6Pzeqza4/SjBSBXsFLwVFGJficq9T1Y6M2vtOjIjNrgnDnTON2kdjFXbkGjyLlUMVgdf7PDv3PbP2fxkpGDdRMAIDeI/hsfwUz3P7gV3K6O6lAJ7oT+APeVVp7V0SbD+6J+nKDLKQxsfIL8zKioHU1cbzIlBR01p8mYHWzlhvudolM/ST9OAHJFcfmtJ3Er/C6v1Derz1vUdMm39BlgB3f3Wv7UrjTpsdYfxgx3bXysMuEvhDlT38cV33nnFCv1Z+qmAECu6LGiE5npfVsOiJspt4wmfsl9ApJqx8WpR6Ls4ZoScD/UaSfL/wnlFFJxOcrPSWpDXa8VV2FUueGGd2XBDHGnLMglcy8ZOZzZ/rkyqLwDi7ndZbyb6f5aN4WHpmBXX6KqyaLqU3e5t8KdE+2gi+5FqXqybhIA5Ir55fHTuO3/lnbocIwnQbprd+1OGhP+ykoTKEYCHhRWrn6MDzW20fVBiW2pi6WaFvH4Elwtfbl+ZADkjkK5+hJRidaq+y5pwyKhP8D8qhYU7HBygR0+fJ0X+Qd+q6oyJvxFMP/SxDs+4hCOCiv6MK1Y66YBQK4oWLWzKJAqjuzAB6NWTYypCrUdXI58MTAVuD3xQmFHN9PCBE4H0GdoIy6SZQZewah96kxcGwZyCh/cWJSfFb8QTnT3vTv2CX0C5t/4qkT3K7ppJNNbcU9hplePj78k/0WwO6Sy6rQqxSv1P3EneJNsHriyAOSO05aPHiss7+PcCUe7On+ETjJQMRenXhVm8D79eACYEkW64sT0flmUcwe1SJHUxvKu7EPxAn2wjVv+d8TgWI9+PADkCm7cPlfGCt/idtjo6s9NeK+0QM3KtVvFyENsTIly7ZPx3XI4PgallE9CVTmHJyk3q8JL3gt0UwEgVxSWjz6J2/7FnFZkaQzsonSBePdSFXori4Ga0I8EgGkjrPBtsg9toOqz8cSzC3I19eck1TWQE29TlN2n68cBQK6gmwhY2f08t4MJFVxiQwpqhZwzUSVhbniv0c3l/lC5f2a4V6scgoS/AHaxsvHofM275cThpz3LNp6qmw0AuYIWUpgd2BR4xYVv8htsqpxUmijYUZUZtQ/NWdI8UD8GAGZMz9LxE0Ul/LlsX7vjBZv8HqGjSbbKR7X8a6kq/5z+Jq74Abmk13DfKPvyX9Xn4vAmbEbBfaSUCWZ4P9dN5v4UTG+BDDIpiEj8wxBS21C5JpX6hBxsPjr3ktHDdfMBIFdwM3iTqEQmd6J7VJvP0c5mnHe9k6pd7mSWf9ECw5unv20AWga3ai8XQ/U1tEuetwJbe2sXMDvcKidV/72w4h6lv20AcsX8sn+asPwr1KIkpVAhuIQPIi26sbI7vsDY9CjdfO5D/o/PqlwKNCD4MKrjdTRpqETXFK3wVboJAZA3Dija9ZcIO7TUAova2czuItzegiTC9Hdyw/01KseCdiP6bzxU2NE7uVP/873BZoZ3NmkSpQpc2MF2Zvo/F4b/ZP2tApArZNs+Xn5WfJXZQZx32UUpJHCGyrGd2kmvUXupbkaa/uZB8jc4asU+6Q9C+EApD2Vkm1rR5Xb9yoIx8W+6NQGQL5YsOZCuIOBWaHA7vIuOAKqS3RlYkFN5EnT0l8Z2J9oiPwR+hZwxMNsUBsKjheO/S7bJP6tFypHtmelDauI0vCkOLp0okuPATxFcgryi+qrlflj2zQ3U5pF3Caesiguo+Fnte7o5xRSXbTyVm36AxgSnK+WsxRPYcCezgp+IwVtRUQ/kFlGqPktU6r+SwWadPoBVwQ9a4e2kybIlJ8W047J2l9p5ZaZ3m5wcf5fZwVP1twFAKpx4xdgRzKi+RbZHWrBp0IKNCjjphEBH9SE/PhJLfVwV9PE3ymDzG9x2i/pbASB3sLL7Ztn+r1P3XVIxOBMnG+H0VEGm4V7dY60/TDcr2bBM95W6umDiH4Lw4VQfyHSkohLVuO1/uuey9cfo5gVA7mBm0MsM93Nysnw1tX8KNtUOZ6Uh+0MK4yhNioc3xV/D8KT8tTchbDrOF5xduDo8Wn/ZAHQM840al5ORT8vgbaXsS3epie3egDOpjbdb2YeKK+IdS5oPMcvbLuz6cvk1vmfhUvc4/WUDkDtkGz9DWMEAnS6I77tELABnpjrdaHqbektVppuXnDBZ7tdUrgRWLeB+WqSJLg1STnidKNfO0k0MgFxy4hXXHEFHxZnpny8/mFcy05uk9q+CTjlRpR3FOJelhWMr7VRSEQaVGx1PzFU+vR2OMcP7HbODtwhj9Hj9JQLQ0Sxat+4QKi5SMN0vCydcK4O7XZT/HPehrWrRRFV5buXElxZlZDCrFmbkv6H6EO1YWv4dzHQHZOD70V4nvG+SBEAOEaXGybLNX8CtcJs6kYa8S7i/0mKdHFNZ2Xudbma0Ku+tioPMhD8A4XSlRiYnvyrnxg6WcWP8DN3UAMg1rOL2FUzvrbIf/Eh6nQwIQwoKqZorHV+lPGYVfMrJLfUPChaVNOHd697/RgHq3kBSTrrpz/dddbc+vudtZ1awQQaVlvz5f9JplII9+ST9ZQCQTfr7D6KcYWH776TKx9xw/yw/Q1z6XFF94Kq71ImZvQsrcT+S/eRh+pFakJH9jv4c/R30d8k+c4/8uyfkv7FafmZ9hRnuK0SperL+SgDILQsvdY+SfeTDwg7viPMu6QROwlwOwmkbz/+5GX5ZNbZFpeqRcrDdUFxB56+T/gCEM5N2cIpr1MX22+SE4ft04b1qdAB0CYWBiQJdTiwM/8Ny0P0eN91B2Tf+T3qT1JcB4jb54w51nYjp3SXdJfvKdvnfJmUAOSYnwH+TDsn/fildlcCN2qeY6b+Ddk97rAhH0kHuKdjuk4qm+0pern2Q294XC0bthzIg/L2ct6yRfeIfsn9UpZtlH9lBx27lf7tL/pr603bpVtnn6P//Tf5c/n63X1j+14TtvV/2sxcXBsIn6H8GgK6AWdHrhBP+UZ0UWLE5ce4G4f5IbUuOz4OqwQnH75ED8CRWMmC7pNVkdS+fHYwLM/hEj4V8TdC99Fh7DqMKfr2l6mMLQ+ETaAyme4rlOHwGt4Kn0KR6YcU9ju6aEv3+IxaPjBys/ygAQEPXo8RVa8ceTf1l/rA3r2DWnla0wtOpQE/voHtK3wrv8fT/qR/R79d/FICug/oGr9SvpPkYnahp6fFzCP9Flb5jen9f0mweOIcbwXO4E+2J84aS/wCErVAdWaJrT0zvL1TFbM4S2QABAAAAAEDLoSPgMrj8ngwut6ijsZTfnDA/g7BVUhoDN9xq36D3+Dm9RvDGvqt2Jf5GCFuuyteUgSbl0ZieyY3ac/RYCAAAAAAA9hM6MVa0w8/wSmMMeZdwNqXdckpfmO/4p81htn9u39qdib8RwrZpB6pUPLP8XbzsXzzf8ObpsREAAAAAAMyAguWfJYPKdapK84pNyXMwCNsknYxVx7Kd8Hl0P85XqNJa0m+EsN3em69peVVmeR9bVFp3pB4nAQAAAADAFOADE0/hdv1KVVGZboxA3iVMQ9nuaF5fMGtvmMMM96K43GzCb4RwllT5mqodutcUzeCVeswEAAAAAAAPwimD3uO5E36dV+qTtHuJGiswbeM0zNoH5vBy7TcoYww7QsrXHNne5E7UZJZ3RdGqna7HUAAAAAAAoFFXEFr+h4QTrVfBJfIuYYeo2qPhfm4ON7zfI8iEHaW6X/NOGXSGW4UTfn8B8jUBAAAAAObMWbLkQGHVzrr/fZc4Ggs7R9owKpS9b8yhCzOLVG424TdBmKai0mj2UbBZqU8U7fDThYGbj9ZDLAAAAABAV1E0q89ktm+J4b15l0Hi/AnCNFV3sRq171FOpqnuNEn4TRB2gkLdr6mO0V5bdKI36LEWAAAAACD3FGz3Sdzwfsjt4E5VrBN5l7CDvS/INN0B7GTCjlfla9L9mo0mH2r8nlsTT9FjLwAAAABA7lhYcY9ihvdxGVyOUcVOqsifOEeCsIOMg0yXgkzvCuRkwsxoh/ERWifaxO3om1RVTY/FAAAAAAC5QM55Xius4I/FkR3qRNc+8yEIO1R1+tCknMyye1lx5ZZ9fgOEnSzdA0XBpqg0buGV6D2LR0YO1uMyAAAAAEAmEYb/ZGYH/epCe9oRwn2XMGPS/JyZ/ufpuOxPiitxTybMprRAopLf7WgVM70X6TEaAAAAACAznOrUT5Lzmm9yO9jUt/rOpnCQdwmzad/aXU1ern2Qgszz9bYmhNnUDuKteSe6Wwabv+ZWgHxNAEAi6m45c6K316qd3mu6z+eW94L2GL6gUHafK4yJJ1PRDv3PAwDA/ZjX33gkM2ufYJa/UQWXuO8SZty+tTubdM3OnILhfpiSiZN+E4RZUjhRfAFspbFZOOEFRWvjqXoMBwB0MXMvGTmc294LmeFewJ3gz3K88OXP7957EqK4amvrHZF/b1xUbzszvXFuBauYHfynqPhP1l8WAKCLEf03HsqHGudwO7we913C3GgHKqWNG94L5wjbe0vf1Xcl/0YIMyitAuriQC63/U/3XLb+GD2mAwC6iCVLlhxYNP03CCdaIyqRDPx2yAAwrlJNi1Iq16mtyg/bSr1J14TRAhj928zyd8kA93L57z9df5kAgC5DmOHz5Riw4t6UHxovEuYzEGZN+mxlpis/52qL4oZOEaeMPJN+M4RZlSZ26j4pJ7yOJpp6bAcAdAGsVH0qH2qspM83VTyD7pVLeyIn/336AFZFy4Yb27jpXrzg1xsfpb9kAEDOoaP63Il+yivRLjU/sTD3hvlSDE82meF688tjT5yzwA4LMtrcgjPgMJfKSd3enQtm+QM08dRjPQAgp8gPuFfIoDKivJBOvbRcnbig4gh2tLro1E/SXzoAIIfMXT56rKhEn+dDDbeoKuPjvkuYT6mYLDO9m+aMNA+eUxi4+Whu+rfjrkyYa+VEM97VDLYUDP+7PUvHT9RjPwAgR7DB2ut5pT5JeZHcdPcdCzpJy1eBpvxA/gsvj8/X3wIAIEdwO3ijDCpvoAKFdMIqcSyAMCeqtBDTM3Xzpwtf3f9TZ8ITfjOEeZJ2D2gVkTvhaMH0PtBjrT9MdwMAQMZhlv/vwonujBdNOzzA/BdVDvlQ4+/zl41y/a0AADIO5V1zJxosDk8i7xJ2iXR6cCsdl/2a7gb0wexeEK/6Jv0BCHMmHaGVk1C1pW/7awpl/yW6KwAAMgorV9/HK/W7xAraKchOgLlXurqAOdH6gukt0N8SACCDzL9i7InCDr/Hnfo2KvjVqUf2IWy5KkVta1NY/lm6O8yZIz/U3opVFth1WkGzuHo7fQDcw23vl72lKtNdAgCQIdhg7f+JocY9VHAgiwHmXtWE1ApvLRo17GgCkDF6vm8dxuzwXDkW3d63eiddp5bYzyHMq1TFnVveFmHVhO4Wc+YIw38yN/2d3MFqC+w+91Z7lJM7nxveFxcYqPYIQFZg5dq/cye6Ow4wk/t4liyulmORHf5jvrFxnv4WAQAdDjdrL+OV+lW0YUPXkiT1bQjzbt8I5WPW/njmFWNH6K4xZ05hIDyaG+51yMuE3Wx85cl22tH/Ozf8cxZd3DxEdxEAQAciytW3yYBsVzGjR2QfTDo6KyesN4jBsR79rQIAOhBuBU/hlcZvRCXara5KwpUksIul0zjM9H6su8d9UF5m3wgd1cGRWdjF6vPkatJq+au4GbxMdxEAQAdRKNXeL4YaO+NqjfkJMPeqTlfYwU2sPNanv2UAQIfQO+iewpzwAl6pb6aJNZ2ISurHEHaLwgpUP+gtea/V3eQ+mOW/WCUnI0EZQprcNftUvmbQZKbbT0fKdVcBAKQMN9yPiKH67qznYD6c6tolO7q1sHwMxYAA6ABOWz56rOyb5wmnXlX3XeKOeQiV1BfkfNnrsWqP093lPnqs6Bhu1G4Xw7gvE8K90qqM+iCxg83Mqn1t3lL3ON1lAAApwEruuXKCJz/Q8h1g7lXtklQa67GjCUC6FMq1s5gT/YUWf3DfJYT3t7hmp/zRvVx3l31hhnsBXQyd9Ich7GZpQqsqP5r+Pylfc86SJQfqbgMAmCUKpdoHOFWR7ZIAc69xMaDolp6BO+6r2AcAmBVUcUw7vJJ2anATA4QJ2oFaeBGm91bdbfaltxI+X3aku3G2HMIkfXW3JnUkZngWs2qLddcBALQZZrr/IYbqOsBM6p/5Nj4669+CHU0AZgdmBycwJ/hv7oSTlCMtkE4GYaJF2tk33GriUdm9LFq37hBm1G6giXTSXwIhlNp0v+aOJrOCXcIJf1qww4LuQgCANsBM7xN051y3Bph7VacpKvVbxfIJ5IgD0CYWVtyjuBF8hNvh7Sq4RN4lhA+pqipruRfoLvTgCPlhrlZME/4SCOF9iko9rgDpRJ4MOL/Ehiceo7sRAKBF8LL7GQouuz3A3Gu8oxluLFq10/UjAgC0iILln8Xt4E90HUlxBdUowdFYCB9KdfrVDnf2mbWn6W704Jx2xdgTacsz7lzJfyGE8D733q8pO9qNohL9+5yz+w/S3QkAsB8Uyt559FlEu5hJfa9bLdJ1Y3YwXiyNIdAEoAWwkvcMGVAO0mJWfN8lgksIp6I62We41tn9zanNfeUf+gZ2MyGcjvH9moIWZyoNp1B2n6u7EwBgBjDT/3wcYNYT+htUC1uV+h1i2djT9SMDAEyT3sE7TuGW9wMZVO5Qx9HtILG/QQgTpII/lQYFma/QXerhKdjuk+QfjuI7yBL+UghhsrLDxXlT0S5RiX4qHL9HdysAwBThpdoXsYP58BZH6ARFfUKUXQSaAEyDHmv9MQXT+yQzPVflXWIxC8Jpq+a7Ru0q0X/jobprTQ1Wrn1L5ZvhyACE0/befM1KwxVW+LnCQHi07loAgIeAlavYwZyy7t4iZGOFqeTDAADmMKP2em6419F1JEgNg3BmUrXl4tBkk/qT7lpTp+jUT5J/SajK0ib85RDCh5fyNWmlR06Yr+Nm8CbdvQAACcig6TP0mYMAczrGgSZ36reL5aOoOgvAg0A7/tzyllKhEtx3CeH+SSkbrFRbO6fZnNm98cx0z+9bs1P+ZeiIEM5Y+UFGH2h0/Fx+uJnI1wRgX5jlfVz1EVwXMAPdZt/Idrre5Lb55fHT9CMFAEiKln8qt4MLuRlsUyeMcN8lhPslLdSISuPuQrn6Et3Npo9wxh4t/7J/UkGTB/4DEMJpKj/Y4nzN+i7uhJfgUnUAYljZ/Wx8TQkCzJmrdzTt8HZm1BbpRwtA1zJ3+eixfKhxHnfq1TjvEuMLhK2wb+0uOiZ7ue5qM4dZ1dfRB79wsPIDYSu8N1/TCSeZ7f3nAmPjo3R3A6DrYJb3JarKjCOyrVFdb+KEG1F1FnQz3AnexCv1v9LCC6WtJPUVCOH0Vbco2KFHJwR0d9s/ZLT66/jYbPI/CCGcvrRz07daVbW7gZsu8jVB10EpGcWVWxFgtlhVdbZSn+ADY8/RjxqAroBbwVOEU1+m7q+mU3jIu4SwdVKxnxVbmrw88W7d5fafojNxErP8O2gyQEdyEv9hCOH0/dd8TTvs7y3VcLk66Aq4Ufu6DoaS+wbcD10VaMoJgS+s6rP0IwcgtxQGNj5BOOHXuBNtQt4lhO2xSH2r7P5Gd7vWUSj5bxCVxh5K9kz6hyGEM9WNV4fiCpFbmen9mJkTvbrrAZA7mOl/lXYZ8HnSTinQ3CbHlMjtHaw+Uz96AHJFYeDmo5kTfExU6hvU0dgh3O8OYTuMNxqDUVrQ0d2vtbCy+5O+q3bh+AGEbZIKE8SrsEFQMLyvs6V3nKC7HwC5QB2RRYA5S8Y7mmKoMc6WTTxDvwIAsk9/8yBm+u+QweVfaDEF911C2D7pxJF0NytXX6d7YOuhC+VlgLlKTYITvggIYWuk47NUvYvb/i3ccN+zeMnIwbobApBZ5AeUzsFEgDlrGntzNKNa0cSOJsg+vFx9tnDqleLKLbjvEsJ2awfxSbuS+xXdBdtHwXafxCx/vcr3SPpiIIQtU32IUpK16Tm9po8JIsgsBdP7hso/xg5mCup7NK3A4+Xg2fqVAJApCstHn8Tt8EJRqe9Q14HJyW9ye4cQtkTLb+rCr7+c02weqLtiexHl6Om8EoU0AeYGCgFB2Fb3riJZwZ3y1z9qWdloAGYJZnrfVguTCDDTU35WqxzNSt0tlMefq18NAB2PGPEfwSzv47LtjtOEl47uJbZxCGFLLa6+kwLNVXSSVXfH2aF3sPZSXmlsVfelINCEsO3SB6teUapx2//0ouHGI3V3BKAzaTYP5Kb7PXVcEwFmBygDTTpeWKkHrFR9sX5LAHQsolw7izvRn9UYgvsuIZw19ebGrcVlKW1ssLL7Ztn57447PgJNCGfDouxv+ujb9byE+zVBh9JsHsCN2g9VxUcEmB0kBZpb6YTEZK9Ze5l+WwB0FNxwz5CfcYNiqKHzLnE0FsLZUp08sqOx1K/VYyXvvXIQuEcFmtjRhHB23Hu/ZqXRZIa7nBm1RbpLApA+zTkHyEnhD9RRG9xX14HqQHOoXufl8ZfrtwZA6swvjz2RG/53mR1uUzspGD8gnFVVgFmp38aWb+yMeWWhNPEuMbx5R1xCGoEmhLOlkB/Aqtqz5W9hhvffhaGwPfcXATBVlowczA1P7WByBxPEzlUGmnTvWSVqsMGJV+q3B0AqnHjFNUfwcu2D3Apup880WkBNbrcQwnbZN7KjyaxwPSu7fbprdgZssPoW7kQ71LGGhC8cQtg+6UhRHGwGG5jpnruoVD1Sd00AZg8ZYDLDvQg7mFkxDjSFHWzhpepr9VsEYFYplCdeLT+7rqbd9XizAleSQDir7q0ia0c3d1yAuZfewbGXcqd+u65GlPyNQAjb5n33hgXXyF9j0ghmj5HmwdwJf6oWOxBgZkgKNLfQQtVmYbhn67cJQNvReZdX0okcdUQPeZcQzrrqRNxaGWA60cgCw5unu2dnUjRqnJv+anXcAcUeIJx9KV+TKvHJ/ifs+vLeCu7XBO1l7iWjhzPL+0W8EooAM3vKQJPu43Xq21l54s36tQLQFpg50ctM78fys2pHPFfEmAHh7Os2xfBknDZh+T/tsdYfo7toZ3PiFWNHcDv4ARUDUlecJH5zEMK2SqvDqym3pb6DO9FPeHl8vu6iALQMGu+Z4V6uVkJxOXqGpUBTfl7bwS5Wrr1Dv14AWsbCpe5x3PG/wm0/iPMucd8lhOlImxE7KPd5S8GofkR30WxRMNx3yolu0IfjsxCmZny/puyDlYbLneALpy0fPVZ3UQD2i8Ujo4fLMf636oJ0BJg5kFa2N9OYsZOXaufo1wzAfiH6bzyUO9G7uVO/SV1phPsuIUzNvXeuyx//wkq1xbqbZhNhTDxZRswjxZFt2NWEMEXpg72PPuAr9b8x23uL7qIAzAgqLsUt/9fYwcyf6hSSDDRZufbv+nUDMCO44b2Q29EqQfUC6FheQnuDEM6COpWKO8E98tcX9lyx/nG6m2YbWsUSTuPDvNIYxxEJCFOUBplVW9WCj6hEA6xUfarupgBMmTOvGTuCm+5vVICJYh05VB+ddaJdhXL1bfq1AzBleivuKXJs+IlsQ3fRsTyMExCmZ1FvMsif38AM9xW6m+aL3kE56AxFP+GV+q64khiO0EKYilRNTO1qNjYXK41viv7R43U3BeAhUUffzODyuMgPJo751W2KFWpHcwczcPIBTI2Fl7pHMTv4BHfC8aLaVEABSAhTk2pzrKG7L4N6oex+ed5w45G6q+YXYbrPL1bqV1GgSaXTEx8MhLDtqvs1aTeqEt3KreA9Z/c3D9LdFIB96LH2HCYnkJf1rdmFnYmuMN7RlOPEtt7SxJt0MwAgEWGHrxZO/Q90jRbSoyBM0b23DFQaMsD0ruzYuy/bxeJLRg4XTvRh+eF1i3oQw5PJDwpC2Hbp+gK14FOpr2KW/2LdTQG4lzOpiqzpygCTCrkhwOwe9dHZCq43AckUrfB02T6u5E6k77vEKTUIU5GCS8p/psVBO/hDwfLP0t20OxGGfzyzo//kdhiqoxW4WxPCdLSDvStfd3Mr/E3R8U/T3RR0OYsuXncIK1cvRZGfblUGmitloGkFdxbM2ht0swBdTmH56JOEU/8+XYMQz99w3yWEaSmGJuObBAzvFuG476LifLqrAj7oFuXk5XLuhLuRJA5hWrpqoYfKzMu+uJlZ/gXzDW+e7qagC9E5mL9UH14IMLvYvTuaja3CqnX36niX01uqPlbO0b7AnfoEXVFHR/KS2wyEsN3SnC0+YeRPygDz63Qfre6q4IHIgevlzA7X0Hl+lLuGMD1VviYNXE5UlRPMzxQGbj5ad1PQJcy9ZPRwZrqXosgPjN1bdba+VRju2bqZgG6hv3kQt8Nz5GfCP6lwHFWsTG4nEMK2q06f7aAf72Gmf9n88jhOn02FHmv9Ydxy381NXw1kyNeEMD3pzrw4zyZcxw3vNbqbgpxz4hVjRxTKtd8gwIT309DFgOxwp8D1Jl1DX6m2mNv1isr3ovx95F1CmI4q7zK+io5bwRC3Jl6guymYDvOWusfJ6Px82gKmiQ7yNSFMSRrUqGIg9UEruLJYGjtdd1OQQxZW3KOY5V9BOZgCASbcR7reRO1o3slL4+foZgNyCFu2oVeO//8rx/6dKo0C4wGEqUmbbuq+Szu8qWC471w8MnKw7qpgpvRa3kJu+pfLgW53/HAxyEGYhlTYQefmbWWGf0Hv4B2n6G4KcsK8/g2PZFawHDuY8OGkUw5073Wh5L5LNx+QExYuve04Oe/6Mrcjj8Z8UakntgEIYful/kfFtWRwGXHb/zLlReuuCloFs6ovlg97hI7qqHxNHNeAMBWp0EMchIRjzHTPXTzSxGpaDuixomOYURtUVWRRfA0+rG6cl2eHd/ca7nt0MwIZh1nBm7kd3KyCS6QrQZiedhinKznRTm6FP52/bJTrbgrawaKLm4cUTPddcgL0TzUADqGqGYRpqRZ8Vmyhn6+aXx5/ue6mIIP0WOuP4bZfigNMLODBqerGO5pDjV2sXH2fbk4ggwir+izZ9wdpXoWFfAhTVOVd0n2Xcn5lh3av5T9Ld1MwG/QNbni8fBHfkJOizfHxPdzPBGEqWvH9mtwJm8zyf8fKbp/upiAjzF0+eiw3ZYBJu9OYWMJpKwPNIXV09m5m1P6fblYgI9A1VQXTv1iO4Tt1vlfCO4YQzobqvsvVVNm/fhMz/XfMWbLkQN1VwWzDStWnypeylI7vUWESTJAgTMd78zUtv8FM79unLp84SXdT0MFQbgezPAsBJtxf1dFKJ9wtjNr7dfMCHYww/OOZ6Z7PTb+GvEsI01XYeg5VqdeZHX4VeZcdhCj7Z3Hb/yvtqKijOwkvEELYftUqHB25NL3bmV1/b9+g93jdTUGHMW/pbccxO1ipFwf2eZcQTk86OjtJwcpuVnLP1c0MdCCFck3OmaKbVQVp5F1CmJ50NHbVtmZxqCHnT9HvcN9lh0JHvpjpfp5bgaeuPMGqHISpSVccFEe20arcLRRsLl6CUtudxPzy2BO5Ha5WFesQYMIWSgtNYogCzdondHMDHQKz7ziB2/7/8Eq0S53+Snh/EMLZUdW1oCPqTnQts2uv190UdDLMnOgVpv9zOYHaFd/rhPwCCFORVujU5d1badFnmBvuGbqbghRRAabh/kHtYJoIMGHrpeIxtENWMPxP6WYHUoYb/jncqd+Go7EQpinlsE82+9bI+KQSjcl++enCwM1H624KsgIvV5/Nbb9MH3RxviZK8kOYinYQr9bZ0VZmeEtOKK07UndTMMvML0dP5FZ4DY7IwnZLtRLUUUzD/bRufiAFFljjJwonukydLllJ1cDR7yFMQ9kPVTqRcBqb5LzoO6JUPVl3U5BVCmbtDTLA/JM68xxftwAhTMF49U4GN3YwVBiYKOguCmYJCjCFHfxBHZHFRBPOgnt3NLlRw45mCvDy+Mu55Y+qFCKc6oIwHakK/+rtFGTew4cmLxfGxJN1FwV54ISL1x0pbP9cXonioyJyspvYECCE7dXym1QmXwxvup0NTrxSd1HQZtQRWdP7v/iIbMJ7gbBN0tFM+sxlJnI0ZxNmuZ8VTv1O5F5CmJ4qXWjFZsq7XF0cqr9Ed0+QR9hSSnqPvsEr9QbdQ0Nb10mNAkLYXlVRIDu8SwadH9TdE7QJZgcncCu4GkdkYVqqHU0ZbLKy9zHdLEGbmDsyergw3IsouMSCOoTpqFL1RnY0mR3+g1vRu3u+v/4w3UVB3uGDblE4wWWiEt2jLpLHxAvCWZauO9ik8raY6Z8/p9k8QHdP0ELmX7lxHneiP6ucWIxzMEVVoDnU2MPK7md18wQthi2beAx3wqV9q3E8FsI0VHmX8YJuyI3gi7jvsothlv9i4dTXFFdt1QnxyY0GQtgOZaBZqTfjhZ7gksLVISqstRCqtC0/6P4WH5FFgAnTVx2dXbG5SQXAdDMFLUIM3CGYFfyR8i9R6BDCWdYOVCqQ/My9R45vv+gthUx3TdDNiP4bD+V2+AFeqd9KBTFotTWxAUEI2yMNzmt30Y7mClqJ110T7AcUYDIrvLFIZdKTnjmEKakWllZulf3dPV83V7CfsMHxM7kTbUDONYSzr7qqjfIuDW+EmdUX6W4JwH3ofM1vikpjixqocdQEwtmTCgJddRf1u0rPZeuP0d0SzIDCwO0F7oT/UEdkk541nJ5WoI4eqhx++lzAseP9VgWaq7Y2ean6Fd1swQyR7fMp3A7GqHpl0rOGELZH2pSi+i7MCm5lpvfeRRevO0R3SwCS6bVqp8sPwIHi8Kb4QxDHzCCcHSnQpB1NK1h+5hVjR+guCaaBcMZ65ITzb+rYTtIzhg+vbIcUUNIxbmqPKpXCDui+xz3xf9+mFkTu/e/4jJiR6lnKZ8hKEzg6O0N6S1VGE1yVcpDwjCGErZcWHVVwaXpbmVH7b2bfcYLukgBMjWIleLMYavw9vm4BFdognBUp0FyzUwaa3i/O7m8epLsjmALcqM2VE84bEGDOXDrypK98uFMd3y673xbl2iflj28uWO6rWLn27/L/nSf9kQw6/0Y7mxR0Is1iZqodTfnMC/KZ6mYMpkjfoPd4+QyvwxFZCGdJOT9RVZsrjaaw/IGCWXua7o4ATB9xxdijhRMt4ZV6SAO5Oi6V1PAghK3TpouLdzRpgq+7IngYegfdU7gTXocAc2aqcvP62JNwws8VjRp/uKNPC4yNjxIl/1nM9H4sg6XN931GuPv8/fDBVRM2+fyZ6X5eP1rwMJx4xdgRzPSH+9buTHymEMLWStXw+9SJgeCvtOiouyIA+4+wakI49Uu5E+3GlScQtl91lI6uOClNvEt3Q/Ag8PL4fG6H2MGcoTSmM8tzmeN/Vhj+8fqxTgs+MPEU7jQu5nawW6zcLP9eBJrTMd7R3EKFM76oHyl4CHi5ejEd5cZcBML2SnOR+LSAH8jx6QunLR89VndDAFoLrwQv43b0f7jyBML2K1ZsavKher23VDtdd0HwAIrLNp4qn9Xf+1BFdgb6zT66LNvy/8gqbp9+pPtFwfLP4pWGF+fzI9CcjhRoqj6PQPMh4eWJD9IRY9yDCWEbVXmX8nPVCu5ipv+zgh0WdBcEoH2ceMU1RzA7PFd+IN5CR/poCz2xgUII91NXDfLMcG+Yu3wSq4cPoDAwURBOiCI/M5Fya+Iq4qspt00/0pZQNCb+jVthjXI1E/9t+KDGgSYt4Ppf1o8T/Aui7D5dPqMtKhhPeH4Qwv3UCuK8y6HJZsEMKr0l7wW6+wEwe4j+0ePlBOXLcrISUqES+nBMbLAQwpmrCwHxcu2nuusBScH0FsgPw38iwJyBe9uUE4wsXOoepx9pSylQoFmpT6Dq5/Slz1Ka5BUM7+v6cQKJcDY9mlne9WhTELZBWnik+y6p8Jsd/EkYwdlzms0DdfcDIB2ohLgw3ItkA92hJnw4wgJhS6WcCDoxIMzqW3W362p6B8cXynFmA+7BnIEqwFSl59fONP9yqrBlE8/glYYMNGlHE0dnp6PKyZaTPWZ4/60fZ9fDSu6P1eIIrsyBsKXSriVdSSIq0T/lZ8QHz7wGV6iBDoNZ3pnc8MvUWFU+jpzMJDVmCOH01XcSjolS9WTd5boSbrtFdVR/BAHmtKWVajoiawWr2NLZudeMDY6fKdttFYHm9N0baHLsaMp+771GHSWWzyTpWUEIp6sbF/WRwSWvRHVm+ecvXHpbW062ANAimgdQaWNmBepIC/I1IWydVK6flWqX687Wdagq13a4HjuYM3DvEVk7GGLLJh6jH+mswA33DO7Ux3HMcfqKigw0R7Y2hel+VT/OrkM4Y4+WgfYtKuDGQgWE+y/lXdIcvVK/RwaYl/NBt6i7GwCdz9zlo8cyw/2cnNC46u405GtCuP/SKn6lvrvX8F+qu1rXwJZWnyqfwa0IVGbg3gDT8od6S9XH6kc6q/RatdNl290Y37OW8DXCB1XtaK7cQkU4vqEfZ1ch5xJfU7stOCYL4X5LlZnptKGoRGu7cS4BcoQYHOuRE5v/lcHmXWr3wQ4SGz2EcGpSkCUnXX/usdYfprtZ7okrSkZ3IMCcgbRiLQNMZvkDC4xNj9KPNBUKAxufxu3odrzH6asCTfXc3O/NWbKka4px9A56C2Ub3iqGGvs8Ewjh1KU+RIuNolK/jZvhB0T/jYfqbgZAtika7vOYHawQtIJCuWXI14RwZlJenexDrFz7d929cs388tjThR1VEZjMQDuIj1hb/u8WlapH6keaKr2Wt5DRkWe8z+lLgebqHbLve9+Xj/KA+InmG264v4ovgk94HhDCh1U48X2XMsjcIseQ7xYGNj5Bdy8A8sPikZGDC6b/LnXtAB2hHZpM7BAQwoeWiqgw071ejPiP0N0rl3Br4ilyvBhDQDIDKcBUk3P38k4JMPcy36hxbkc34/qZ6UsTRip6xcq1b+nHmVsKA7WncTvcgXQbCGcgLUjLz07awRROfRkzwkW6awGQX+heNm76/8WdKEC+JoQzsAt2M9U1JU60AQHmDFQBJl314F3Sqceq6eorZgU3ItCcgbSjSRXcc151lpXdX/etQfuAcLrS/KC4kvIuG9cwy3ud7lIAdA99cpLBrfCnMsjcSUeABO7XhHDK0iRTBpl/OfGK/N1nxYzaIjmRRu7eDBQywKRrSop2+L9z+psH6UfakfDy+HxuBX+Pi7okfz8wWeHUdaBZ+6Z+nLlCjwHbsQgN4dRVVwjSwp0TbWC2f+6ii9d11CkWAGYdblefzZzQpOtOcL8mhFPUDuMqcab7Jt2VcgGzgsVc5WDSdQUJ3zd8cGWb6Fu7qykn6L+Qk4tD9CPtaJg50Suc6O+4lmb6xsWAZD8pexfmrYgHK9V+XlyrduMhhA+jyrukXX+nPik/P785vxw9UXclAAAhJ5dvlp3jBpWgPIx8TQgfTuorzHTtOc1mLoqAzDe8edzyJ+IjlLgPbzruLe4gn9vFor+ZqYAjrkIeXE87sEnfG3wIaWGBnpvl/yZr7/3BKNjuk5jhbhIVVJSF8CHVeZc0Dkh/W3T803Q3AgA8ELpfU1Siz4tK3bsvXxOTTQiTpJ0MZnq7hOE/WXehzELFaZjhrcSO1vRVO1p0fNpwv6MfZ+agwIKbwR+QozkD79vB/m/9ODMNL3vnqYkzTjVB+KCq2xrUiR//D4XyxKt19wEAPByUqyMDzJ/zSuOu+MMG92tCuI9yEqby2cpe5i9p52X3v2iijL4+Pe+9P7FUy3wRGGH4x3MnuiquiosAYzrSgiy1Bdl/Xq4fZyY58Zo9R3DD+zPysSFMlvo6FXZjln+HyrvssOrhAGQG+WHzQvnBuYZW6Sn/LKnDQdjNFlep3MV1CyvuUbrbZI6CPVHgdrAZF65PT3WdBe38Ge539aPMPPPLY0+UbeFaFAOavmoXuFz7v7mXjB6uH2fmkG35DG6Hd6vjfwnfI4RdqxXE9+Ra/i5uuj8Sw9WTdbcBAMwUKmggKuG5olK/g1ZvkKcB4X1SVWYZbOwumv4zdZfJHMxwL9BXbsApqnYwV9Nuj/s9/RhzAzdqc4Xp/0XnGu7zvcNkqbIw1TMQZS+zR+fk9/EN7GJC+K/6Kh1CbbRYwZAcH5+juwsAoFXwK2tzeaV+IXeirbRiq44GJXZICLtLystghpfJfKyepeMncsOt4qTC1I2PyMp3brrf1o8xd6gcTTv4syoGhEBzysY5zX5pzpLmgfpRZobFI82D5ViwDpWlIYwt0q0Lqk97N8u+8R7qI7q7AADaAd2fJZx6v6jUd6vOhxwu2OXGRV9qfz0hg7kZ3PLejp2LqasCzFUqwPyqfoS5hdnBCXJ8vxqB5tSle/Lks6ovsMOCfoyZQb7rp8jxYAuOzcNuN867vJOOxnry1+f1lqqP1d0EADAbyA+kl8tgU+drbknsqBB2g2pX3/Z3Mtt7hu4emYGVvZ8hyJyaey/glwHm+frx5Z75V4w9kVne1SgGNHWpPwnTe6t+hJlBjgXvQy4u7GqpUjRtntjhDm55Pzx1cKxHdw8AwGzTY60/jDvhB7kd3U6r3cjXhN1q39qdMvjwz9VdIxs0mwfIgOn64kosEj2ctLIdPyf3y/rpdQ2FoY1P4HZwFXY0p2ZxZEcmj88zo/Zz+tqTvicIc60c12gBUQxvop+XC8bEv+luAQBIm1OXT5zEK+H3uBNtV0doUZkOdpm0eyEDtst1l8gEp41MHiuDpqr6YE34nmAsLZ6pnFWj9gX96LqOhUtvO47b/moUA3p44+Pz7u/1o8sE4sbmofJrvwljAew2qc0XaQffDv/ea3hvp8VX3S0AAJ0Erf4IJxpQx8roCB4mI7BLpA8qZnq3Zun6gsJA+AQZGLtUETPpe4L6iKwKML2uDTD3MtcYPV4GT2vj+1Qxtj+YtOPNjNoK/dgyQcH0FjDD20479knfE4R5U51OoUUzJ3Tl+P5F4Yw9WncHAEAHcwCzvNdxK7iGPmxRtRJ2g6pYhuFtY8NBr+4HHQ+CzIdWXU8jx6/CYPU8/ci6noVL3eOYHSxX98Mi0ExUHz9fpR9ZJmCD3lvoBBLd/frA7wfCXCnbuTpx50Tb5Dz1hwJ5lwBkj0UXV4/k5doHmendQUessEIK86yenO2RgeZrdBfoeBBkPoQygFIFIIzaD/XjAprHX+oeJZ/R/+nS/vABxkFmLVNBJi+7X8ZRaJhrZduO8y7l550TLuUD42fo5g8AyCqiVD1ZTrx/yK3gLlx5AnMrfYBRXmbZ/axu+h0PgswHV11TYnh/kc/oaP24wL+grrKqNDbjuot9zWSQafqXq2PQCd8PhFmXxim1iOLU/1q03DfrZg8AyAvMChbLD7JVdHxWHyeCMFf2XXW3/NH9kW7yHQ+CzAfRjpp8eNMuGSi8TD8qkAArTSzB9Tf7mrUgk/LImemtpV2epO8HwqxK14vFwWU4Keef/8V+NfEY3ewBAHlD9N94qPwwe690PVXzwuQW5kl9x9xS3dw7HgSZyarAqVwz9GMCDwJdUE7FrrBoeH+zFmT2WFseR5/JqCwLc6MdyHF8G6Vp7ZYB5m/6LG+hbu4AgLzTN+g9Xg4E35Bu6luzU6023W+AgDCDFldubXLDvWZRqXqkbuodDYLMBGlyMtRoMjN4pX5M4CEQhhfvZloJz7JLzVqQuWDYm8cMbxs+h2H29dXncHGV7INOdDUz3FfoZg4A6DZ6B8cXyoHhl9zy70a+Jsy6RbrGxHBvpQqcuol3NAgy97W4Qr3D2042Nj1KPybwEBSG6gvkxG4nR1XSe81akNlreQtpcQX3W8MsK4YmVbG2YqXxD2YH76WTc7qJAwC6mYLhPk8Gmivpw1l9QKPCHcyg+hoTv+jUT9JNu6NBkLmvqviJ4f6vfkTgYaBL/GVQfpW60iTheXajWQsyRan6LLquRwWaCd8PhJ0s3VygUlUq9bpwoiVsGfIuAQAPQPQ3D+Ul7wNy0LiVVqOQHwKzpjpuZng7eTmYr5t1R4Mg8wHSUdkVm5vC8N6vHxGYAtxyv4vKpPeZtSBTfq0vU2MXgkyYJWm8phNwQ427RKXxu4LpLdBNGgAAknmyVXscXQMhB5AJdb+mOobl7jvAQNhp6t2ArBQZQJB5f2mizQz3HjZYfZF+RGAKyGf3ATG8GekO2qwFmWyw9np1jzWCTJgRqY+pzy0nGhRm+HzdlAEAYGoUrY2nMiu4SA4iW5ArAjOhDjKZHTxVN+OOBkHm/VUTbdPbwQa9M/UjAlOAlauv46a/Rx25THiu3Wb2djK91yLIhFlR7bpX6uu4U3+TbsIAADB95l4ycjg3vLJYuTlxsIGwo9RBJhXS0E24o0GQeX/3BpncGD9DPyIwBaiCIzfd3Wryl/Bcu00VZBreSv14Op6C5b4KQSbMgmohqxLdww3/07r5AgDANOlvHiQn7Odwp/4HObDsQSEgmAXpaDczvd29Tsh0S+5oEGTeX+HUm8yo3cWN2nP0IwJTQFi1s2iMjlMbkp9tN5m547Km+0oEmTAz0rF8y98tLfOS9wLdjAEA4OHpGwoWyw+8IbFic3wpOgJMmBF14Z8dwvF7dHPuaBBk3l8VJNnBHmH5Z+lHBKYAM7yPq+qyGKuVmQsyDfcVCDJhppRttUgVZU1PBpver3pL1Uws7AIAUoIbtbnCqf9IDNV3qoph+MCDGTM+bulO9g66p+hm3dEgyHyAMkiiiQuzvC/pRwSmgAwyf47qsveZtSCzYLvPRXVZmEWp3VKBSDl2h1QwsnB1eLRu1gAAQFeX3PgI5kQf4060UVWTjfOiIMycKlgz3LHCwMYn6Obd0SDI3Fe1wGW69pxm80D9mMBDsGi48UhmuOvFClw5tdfM7WSW3T61C43CTTCjFoc3NYsj6jTFtazsvU43bQBANyPs4Gzu1K+lo1Z0PDZp8IAwK8aTS2+dDN4ysZqKIDNBJ6KdzK0Fe6KgHxN4COQze60Yku0H15fca+Z2Mpe7T2Km18ACL8y0dBKF5pJqDA+WM7v+DN3EAQDdBHV+4dRLavUJuTwwJ1IOsZysmXOWZGMXDEFmsuo9lqtf1Y8JPBj9/Qexsmur3PmE59itZi3IVHdTG+6tQn4eJ30/EGZKO4zzNa1gB3eiH2UlfQUAsJ/wK2+fKweAH/BKfXsfDQI4ngNzZN/au+QHm3eJbu4dD4LMZONTFf4Ys4MT9KMCCfSWJl4gx/K7UVX2/mYtyDzzmj1HyPZ+TXHV1n2+Fwizqqg04nzNSjTGKtHHCwM3I18TgDzSY60/hlv+p+SEBHmXMJ9aFGTuajLL/Zpu9h0PgswHlxbBWKmWmXc52yxa1zyEmd5alQeV8Py62awFmQQzar/rW7tzn+8Fwqwb31Qgx6lK/c8FOzhbN3kAQOZZsuTAgum9ldvhDcWRHc0i8i5hXrVDtXjCyrV36Nbf8SDIfHDVQthQYxsb9F6kHxf4F2S7OR9XTCWbySBTvs++NQgyYU7dm69ZaVDefYlZ3pm66QMAsogoVZ8lJ962WkWiYziYjMAcq4ISw72TlYKn6i7Q8SDIfGiLK+W4ZYdjfNAt6kcGJKJcfZts77txIiXZLAaZwvLeRgVTBFJYYI6l9t1HFcQrje28Ur9wgTV+ou4CAIAsIIPLk5kZXMidaAfyLmG3qAI1w632WNExuit0PPOviJ6IIPOhjYs5+f8o2CGqzUoK5YlXi+FNm+IrS9x9nhfcG2R62drJtIOn0iIZFg5gN7g3X1M49TuKlfBDov/GQ3VXAAB0ImLEf0TB8j/MnXAUeZew21S7XoZbmTOneYDuEh3PwqW3HSe/5hqqSj60dHcmc4IbxeBYj350XQkf9F4jJ2dbVBBlIMB8MGksYKbr6MeWCQoD4dHM8DZiLIDdJKVwqWP/Tv0qbgYv090BANAx9PcfxE33TcIK19GZd+Rdwm6U8pmY6f2n7hWZgFZvZbBwG/rsw0uBpnCiG5kZ9OrH11UUyt6ruRNt1Yspic8IxlJ6iAwyL9OPLjPI8esKXEcDu04riAPNSrRbOPX+3lLtdN0lAABpwkveC2QnrdBxu/i+S1zIDbtPdYWDE97DBquZKxLDDM9SgUPC9wXvr8rlsYOb5hs1rh9fV1Ao1d4ghiaxgzlFi2t3Npnhfk4/vszArNqHUPwHdquUkxzna9a3yrnsDxcYG+fprgEAmE14eXw+t/yfygnXPXrildhpIewG1eS7XB3tLVUfq7tIZhCm+/ki3SWW8H3BfaUdTTkBubmvVGX6EeaaQrl2Fh/atBUB5tRUhXMq9XsKdvhc/QgzQ8GsPY1Z/nakusBuNs7X3EkLxxPM8j6+sHLDUbqLAADaybzhxiO56X5GfhB5cdJ0lNhJIewm6aiNDNYGdDfJFHQ0iNvBTuFgYjlV1cKa07iJD27MddVZYXpvFXZ0Z3HlZgSYU5RO9DDDvaFwdZi5i9/njoweLr/2v6pTSQnfG4TdJOUnq2O0dvgnUZ54te4mAIB2wAz/9dz0r+uTna6I4gAQxqr7t7Y2RWniXbqrZIv+5kGsXBtWO3RJ3x9MlO79lZOP21mpmpkra6ZDYXDinaLSuJOuoEKAOXVVkSjL/6x+jJmDld1vIy8TQu3efE0n2iPH+9/2Do4v1F0FANAKhFV9Fje8Eh2hifMucd8lhHstDk9SkQ+3J8P3bTHLe51aOMKx92mpdrAr0SgdM9SPMhcwo/YhPtTYFVcaRYA5VamAFo0FdP+sfpSZgw16Z8rJ9D24LxPCvbrq1F4xvpJvklnBf/csxf2aAOwXvBzMF05wETf9ndS58KED4b7SsXFmepfobpNJxI3NQ3mpNkLfS9L3CB9cdXR2qL6RG+Nn6MeZaZjhfZwWFBFgTlPLV2NBwQzO048ykyweGT2cG+41dGIp8fuEsIsVQ/H9mtwKRnnJ/cgJpeqRuusAAKbCAmPjo5jtf57boUsFQVAEAMJkaeFF7fCbwSt198ksRbP6TOFEO2lnNul7hQ8u7WgyOV6KZdVn6ceZSeSk6dNU9EIMURtAgDllDTcuFGLUbpjXv+GR+nFmFvk9naeOCOLUEoT7SikydL8m5V9bwR8plUx3HQDAQ3AAs4O3cCf8qzoGhrxLCB/S4gpVcfMW0X/jI3QfyjTMqH2cPjxptRZBxnR0ZaC5jfJ2XDY4fqZ+nJlCtuNP01VUFGTi3U9H+e7lZFP2mYAPuLnYzS4uq3E5FuzCAjOEDyEFmyplgvqJv6y3NIb7NQFIotf0n8ntqEyTy7iyHFYwIXxI6XgcFfmw3c/rbpQLWLn6eRoHsJs1XeNggw81xrMWaNLighiqY3Fhuhr3BZisVH2xfpy5QLaJ3+HOTAgfXjrRpI/QbuWG/11Rqp6suxEA3Y0YHOthVnARd6Idqrok8i4hnJJixSaaZNbml6Mn6u6UG1jJPVcGS3chL2/6qmOGlTrdr5aJQJOVZICpjsgiwJyebpyPa4U1+QwX68eZG5hVW8yd8G5cbQTh1Izv11TB5kZWrn5MjPi5OOEEwLSZu3z0WFGJPi8nQ8i7hHAGxkU+vG/oLpU7mOm9TzjhbjpCieBjeqqjs1ZQ7fQdTVXkZ6ixG7vW01UGmHRMbqgxKsru0/XjzBfN5gHccB21aJL4DCCESVLKSR+darH8a3sN943Ul3SvAiDnNJsHCsd/l5xU/J1WYZF3CeH0pcCLWX6DTgLonpVLCqXa+3mlLoMQ2uVKfhYwyb3HKCfHWWniGfpxdhTya/wMvVfsYE5Xyr+VAaYT3cEHJp6iH2cuKVjuq2gBApXlIZymKl+TPgPqdNrBEJaf6aJwADwsdKRHNvhKceUWOQHaKjsC8i4hnImUq8TKtQt118o1BcP9iJpoItCctipHs1J3uVF7jn6cHUHB8r6givzgnU7TeAeT24HHB/JxZc1DMfeS0cOZUbtKpdIkPg8I4UNqh006LSh/vFP6g8Jy90m6ewGQD4rL/FO5E1wsJzu79AdkcmeAED6sYsVm+aNfKzr1k3QXyz2sVPuEKgyDo7PTVBcDsoI6H5h4oX6cqcIM92u00IgqstM3zreNXF6uPls/ztzDTO9FnI7NO9jNhHCmUkqaztccY1bwsUW4XxNkHbqvi1n+Z2VwWetbjbxLCPdbK1BHYGh3T3ezrqFguR+WE+x74kAz4dnAB5ECza20axj2Do69VD/OVJABw7fUMV4Uc5m2tJsnn9vt85dtyGcO5kOgKs2uRaVZCPdXWqRWJwmd6JqCFb5KdzEAsoWw3bOFE/0FeZcQtkrKxdpGFWWvPfGKa47QXa2r6DXc9/Chxi7saE5X2XZWykCz0pjk5drL9eOcRaiIi//dOMCMEr4++ODurSIb3M4HRnOdg/lgFI0al9//JBaYIGyB+n5N7oR7ZLD5m/ll/zTd1QDobKhsvmy0g8Vhuu9yq2rMiY0cQjgtaXIuKvU9wqiluhuVNqxcfR+v1O9GoDld9Y6mE25mgxOv1I+z/SxZciAruRcgwJyZ8dVe0e1i+cST9RPtSgpG9SvYzYSwddJ4rPI1nagh5xZfFf2jx+vuBkBnwa+8fS63gwv33neJanAQttb4YvLqT3SX62p4qfYBFXSrqy+SnxdMkC7vpx3N4U2begerr9GPs61ww/thXA0VnwnTVe1gDtVv7+nSHcx/pceKjpHt9zoUAYKwtVIBNlVM0InWMyd43+IlIwfrbgdAuoj+Gx/BLO9jzA43FpF3CWFb1HfF3cCGJx6ju17Xw8u1D8rx5i4cx5+m9waak5t5GwPNs/v7D1IB5mp1LCv5a4EPql6s3ZD3a0qmQ7FUO5124nFsFsLWqwqykU59hTDd5+tuB0A6yAnEa7gV/EmtUquKl8kNF0I4c9VunR3uYLbXkfcdpgk3qu+hqtViBQWaODo7ZXWgyZ36Vlauvk4/zpbCjdoP1U4cAsxpGz+36JYFprdAP06gkc/noyo3HVXqIWy9sl+p0wJOdJcMNn/Gy+PzddcDYHboLdVO56a/TJ3npsEeeZcQtkc7VBPOQmni07r7gQfAyrV3yEBmVxGB5vRUgeYWOiq1jZ6hfpz7zeKR5sHc9v+nuIpWxBFgTlfq76LSuLG3VGX6kYJ/ZUnzQF52lyI/E8L2SacS6coT+aPH7eg89qubcIoKtBdmTvTS6jS3g+3qShJMICBsn5Yf50mY7qVn9zcP0t0QJNBbGj+HDzW240TFNJWBpjpuTGO55f9EDFdP1o90RqjCb3YwFO804fNhulIRDmYFN2L34KGZX46eyE3/n2rHFwtLELZNOpoeL3zVbxZm8L6e768/THdDAFrDwop7HDNqS7gV+HplI7ExQghbJ/U1Zvmr5g03Hqm7IngI2GD1LfcFmph4Tkc6lUILh3KMH6W7jXsH3VP0Y50Souw+vThU/6EMkLaro1Y43TJtaSJHASYzg179WMFDINvqU4QV1lQVewP9HcL26atTLyS3w6uF7b1ad0MAZo469kT30ln+LTRxKKLABoSzolqht4K/n7p84iTdHcEUKJSqb5UfgruKCDRnJO1qxvk44Tiz3IuKlfBVwvF7aKHjhFL1yIUV96gTSs0j5y11j5tfHj+Nmd57uVkb5E60nXbdsQA5M2lBST7Dv/Us80/VTRlMgV5z/PnCibagv0M4C1K+5sg2Oc43msIOlhcGak/TXRGA6cGN2nOY5Q8XhzfHBSJMrExD2HYpT44qyVaiMTEQCd0dwTRQOZqVaBeqzs5cFWzSvZZDk01meNuY6V5fMNxr5ET+DwXTvYYZ7q20W6l+n5p0ILicqaoqux3+vcfaiABzBvDB8bfLSS/uzYVwlqRUORq3uB1t4WbwTWHgfk0wRXoH7zhFNqIfMSvYpXZTUMENwlkyDjDFUL1WMCb+TXdJMAMKgxPv5EMNHWhi4jkzfdpNV0dp1VGpVVvVgiP9SM9V3YWMY7H7pdrBtIKbqd6BbrpgBrDB8Y+JocYeuu8P/R3C2ZH6G+WR80r0T2G676Jrq3SXBOD+0DEoVg4+JhvOBDUarExDOLvqC+snEGC2BlaqvpdX6ncj0ISdqMqBrdRv7rFqOLHQAni5+lE+VL8HO5oQzqJWnK+paiHYQYWVaot1lwQgRjaU1wo7+KM6HoXqjBDOun2rKcCs314Y2Igchxaicgad6K44Zyv52UM426oCek7j72wZdjBbCTMnzuWVaLeqH4FiQBDOnvferxnuYqaP+zWBHJCNcBG3w9+r89WUB4ajTxDOsnRNCeU2hBv4wMRTdNcELYRyNEWlsUOsRHEQmL76iOwN/EpMwtoBM6vvFUOTd6qqswnPH0LYPukUpJ7TuMzyPzdveAOq43cbRad+EreD73An3KySd3HfJYSzrro2Ih6MrxYDODLXTgpW7SxuR1vFii3y2SPQhClIx8qoyI8T/pEbt8/VTRO0gYJZe4OwIx/X6UCYjqooXFzX5a/c8N4+B3d95x/Rf+MjhBV8nFeiUZV3qZLkkxsIhLBdxhfgqzwGy79o7vLRY3UXBW2kKCee3Klvw3UHMA3VEVk7/GPhNzc/QTdJ0Eb6Br2FotK4hq7W4VSkKuGdQAjbKC2sUcE4dXzdH+oddJ+vuyfIG3Iye5Zw6tdS3iXykyBMSbWbsYOOlGwWtvd+3T3BLNE7OPFGPtTYitxzOHvqI/GWf23Rwb23s0nvr//5WPkOfhnXm8CVRhCmoh3ou7/9u7nh/qp3cHyh7qIg61ClJ1GJDLrvjAZaHB2BMB2pD8YDbXCDwIpeasgPuTfySn17HGhiRxO21/hIfHCtKFVP1k0QzDLyPXxUDNUDvZuc+J4ghO313hQh05vkZvCNwkCIUx1ZhZXH+rgTXsKdSN13iYEVwpSkqmtqJyPYxE3/v07D8djUkcHlm4QV3llEjiZsm/EOpnDqfywuxw5m2oiBO4SoRFfsTVVIfmcQwnarNr2oHowdbJB+pPCzm4/W3RR0Oj1W7XHM8s/nlaiO+y4hTNf4Ans5obGjMrODp+puCjoAXpp4kxhqbIknnAg0YSv11cISM70/IcDsLJjtvUUG/jf1rd0p50eoSwFhWtJnb3FkW5NXwj9xO3yN7qKgEzm7v/8gZvrv4Hb9ZrV6OkQXEie/WAhhe41X6nZQgZ+buBW8R3bRA+KeCjqJouW+ilfqjeJKuu4AgSZsgVa8gykDzKsKAxtxHKwDmds/ejxTFfajbariL056QZiOVKdiZHtTVCIqRvq7+Y5/mu6moFPg5eqz5SBpUY6RWpVH3iWEqahyDuLCPpPcCr+7cOltx+luCjoUXq69nNvBZHyvHgJNuB9SgKmuBYtG5qHvdzwFw/83boc2VdpHzQoI05Pu61eVoJ2owZ3wK/OWuhg/00ZYNSFs/+fy5ezU99EkvjwIYZulvEvqg060m1vBr4ThP1l3U5ABWKn6YjnRDBFowhmrdzC5URvpLVUfq5sW6HwOkO/vtdyu/4kWCFF9H8L0vPcUWKX+T+n/6/n++sN0PwWzxfzy2BO54X1dTmzr6mgs8i4hTE06PSCGJ2kXc4UMMF+uuynIGGxw44vkWCoDzW3yvSLQhNNQBZg75Y/BENVF0E0KZAi6R5wb/qdFJboD8yoI01Xla9LVQ5Xo/wq292rdTUFb6W8exC333cwKb0XeJYTpSkes1M6FFWwoGO47F1287hDdU0FG4Yb3Qm4HDQSacMru3cG0g8oCY+OjdFMCGWV+OXqicMILZJC5U105hXxNCNPRCnS+Zp3mW7/lg25Rd1PQalhp4hnC8i0quR9XQ0TuAIRpSLkDqnKk5W/jTvjdBUvHT9TdFOQAFWhW6oGqeodAEz6UOsBkhmchwMwXvFJ7jhzrK0W68oSO0SNfE8JUjPM11emCkDvRFwoDuPKkZdAFzszwL+B2uC1eVUPeJYSpSBPKke1qZZuZXn9vqXa67qYgZ3BDTjArjRqtonIDgSZM0Ar0SQa/fNrIJO6+zSXNA4pW8GZeqd9AYz/dsZnYFiCEbVfdcUv9cKh+nbD8s3QnBTNB5QeUqx9ldqDzA3CfE4RpScUg1DUXln9NwXJfpbspyDF8efXZzPI9FWhiRxP+i8KOA0xhBQOFq0Osquecef0bHins6PMy2PTU/ZpOlNguIIRt1vLjXE2qgzFUXza/7D5dd1MwJZY0DxSGezYzvT/Tg4wrneGYBoRpSIs7cUEPf6Pslx8+8YqxI3RPBV0AGxw/kzvheHE1BZrJbQR2mSrA3EE//z0tBuumAroAXh6fLz8TfiqDzbv6RnCyDMK0VGlLqqJ/fRu3wx/0Drqn6G4KHgxmBYtlcGkWqYQv5QMhBwDCVFT3XVKulRVs5ab7PTq2rrsp6DLmLxt7uqhM3oEdTagCTLoH0/B+u7DiHqWbCOgyKG9bBpvD6vieKhKGuRqEaUhFgfRpzwluBV/o/fU/cX3UA2F28FQ5mb1UPqC7cN8lhCkq+17cB8O7uOX9ar4xgfsuwRzKv5VtYqJIuxcINLtSdURWjg3M8n+HEw1gzpKRg4UTvpU70XUqTwz3a0KYmqpAF83drOCfcoz+0MJLb8Ai4Lyltx0no/CvyUFqk4rEHdzLBGEq0jn/lVvjiYIVOrw08QLdTQFQUIVv7tRloIliQF0nBZh0ssHw+hFggn9l3nDjkTLY/KT8DJnQOyrJbQhC2F7VPG5LfBLUDv7Ay116bzndp1c0o3dwO7pZDUpDGJQgTEtKIFeVm53or9zw3k4VBXVXBeB+cGP8DDmJHFcrptjR7A71EVmqKI0jsuDBoJww2V4ulN6p5nU4kQZhOur7Nbkd7pZzul8VjRrX3TT/FO3wubxSX6XO8qv7LhMeEISw7VLeZVFOHoVTD+SE4D9xzx2YCmzZ6DN4JRpDjmYXqI7Pqztxr0CACaZC0Zj4N6qtIai2Bt2vmdSuIIRtV9XWoBx604+4GVzYZ3kLdTfNHz3W+InciX4oKvWdyLuEMEXpSMXINhqAdsvg8rK+UpXpbgrAlCiYtacJO7wj3tFMaGMw88r32yyu2dFkhn95j7X+MP3qAXh4ms0DCmXvbcz0/xGfVptMbGMQwvZLp0X7rtpFO5yTwvLPZ8smHqN7aj4QZf/fxVB9Q1Gd10feJYRpqe67pCINTvjHgjWB+y7BjOHWxFP4UOM2ddQ6oa3B7KpOOchxghm1n88dGT1cv3IApkWPVXucnNh+nZneVgo2uRMmtjcIYftVqVHUD+3g+oLhPk930+xCA4wcXH5G3xiOTUCYnlSMgY5NyMnjHczyPo7iHaAVsPJYH3eif2JHM0fSESt1FNq78Oz+5kH6VQMwY1ip+lTZnn5LuWKqbckf79fmIISzJJ1kk32Q7te0/E/N6e/P5hgvJ7Jnikp9nToqgdUrCFPx3jP5Tn2rHFy+J/o34L5L0FL44MYit8NbEWhm33gHU73HC/XrBaBlMMN9Bbe8q1UFzJVbVerGA9sghLD90hFaVYXWiQZ5eXy+7qLZgBvV93CnsSkuDIFBBMJZVxXskJNFJ7qbV6Jf0120unsC0HIKy8cWyLZ2GwLN7KpyMCnALNd+iB1M0C7o+DUzvP8nP5P+QbuaVAQyqT1CCNsszRPX7KDFxZoo187SXbRzWXzJ6OHc8r9Lx2PFMF3Mi8qDEM6qVNRn1VaVe8krjSFmei/S3ROAttJreQu5U98QB5oY+zOlDDDj3Fr/4jkjzYP1KwWgbVDxEWb4n5MTXdyvCWGK0pxRDDV2MtP/D909O4/e0j8fKyzP0nlf8gvHJAPC2VRdC6TO2kd/FU74tsyetQeZReVeWcEYdjSzI+1gUoDJTO/ndIe1fpUAzAqF5e6TmB1cSCkd1A6RXgXhbOuqokDFFepUwTfmLGkeqLtnZ9A3uOHxcmK7sm+tKpH7gC8eQthORSVq9q3ZKfte6Ak7+jzuuwRpwoyNi4QTjSLQzIB7A8xy7RIEmCBNRNl9umyPV9INBMVV25CvCeGsKgNN1fe2N7lR+2nP9zvk2qqiM3GSnNxeE09yMShAOGtalHcpBwQ7vFvY4c+YOdGruyUAqcIHJp4iP7A24HqTzpV2jNR1Rob7Y9F/46H61QGQKszyXiec+rVqVxP5mhDOqupkC11zYvqXp77wOK/iHie/kD+oHcyELxZC2B7j6nxbZIDpr0beJehEhDHxZGGF2NHsQFWASe/FCH7YcUejQNfTc9n6Y+hUDnfqXpyvSferIwULwllRnXC5U6VQLE4rR1+M+I9gVjDct3Zn8hcJIWy5YmhSTQ5l37tVOMH7eqwOOdIAQAK0o8ltVJ3tJONrSrY3C+UaAkzQ0fArx+czJ/yZqDR2qlMRNtKxIJwVZaCp5prl2oVzms0DdJecHehojfwilqoAE0dkIWy7NDFUR9JNf5Ib3teF4R+vuyMAHQ1bOtYnKvVb1H2tCW0bzp6Uvx1fLeb+DwqDgazArNpiXokcqpqu7tfE1XgQtl114mXVtiYrTSzRXXF2kB9QP1JndrGqBGF7pStJaFKoCmr5vymY3gLdDQHIDGLgDsHt8KYiAs2UpKIOMsBcRRN075v6tQCQJQ7glvd2UQlvVLcYDOHKEwjbrSoGNDS5R5gT79L9sL2Icu2TaiUJZaYhbKtUTro4sk3+3P8zM91X6i4IQCYpDEwUhCMniKqoQHKbh+0wrhrYJ8cSVq5+Vb8OADIJW3bTY4QdfpUPNRrxlSd0ZV5Su4cQ7r9ufO+6U9/cW/Kfpbthe+C29xo58d2FFSQI26eaEFKxA8urFcq1T1L+s+6CAGQaXr5tPneivyHQnD2FQ2Xptza54X5FvwYAMk+v5S3klfqVcj66Ry3GInULwrapT9TdxOzgBN0FW0vRqZ/ELH9M3V9koMoXhC3XDlRFL277O5np/qRo+afq7gdAbjh1cKyHO+E/cHS23e49IrutKUwXO5gglwg7fDWvNP5EgWZxeHNCP4AQtkK9OPxb3fVaSLN5ADO9K7D6DGEbpLxLmggOTdLupcXL1WfrngdALuktVRm3g5vwmdIu916svRUBJsg9J1y87kjmBB/jlfo4FaQUFZy2g7DlUsVZOVctGNUP667XGrgVvFvlYcp/IPEfhhDOQBlcqrxLdQzhBmZ4b5mzZAmuFABdQR8FmpX6P1B1tvXGASZNBmpf148bgNzDr6zNlWPK97hT30onJag6ZlL/gBDOTDG8iU7dTQqrJnS32z+4ITut6dXUxe8J/yCEcPpSXrPaxbGDcdnHPnXa8tFjdZcDoGvoWbbxVF4Jb8COZuukXRz6vGZG7Uv6MQPQVRSt2ukqX5OOi9P9msjXhLBl0uc1M1xz8ZLmwbrLzRz5QXU5JgAQtkZ1ETr1Jyfawiz/AlrE0V0NgK6kZ9n6U5np/wWfM/urqxavaKW5UPbO048XgK6FO+Fr+fDk1bToEm+UINiEcL+1g2ZxhexPhvd23dVmRqHkvkpVkkWJaAj3T+qUdCzWie7hlv8bZmxcpLsZAF2P6K+ezO3wTwg0Z+reAHNyDyvVPq4fKwBdz4n/v70zgZerKux/AFFALKAsLkgwJm/uuTMJalxwpe5tXduKW92X+q+2atUiatvUpZZal9K6oVbcqObVkLyZu817L3lJQKwaCygKIhCSvJm7zbyXfQMy/3POnAdoBsgy792ZO9/v5/P9ZHt5y73nnHt+92zLN59o++m7LC++WY1qyjrSof4g4uGol1C60W8XrLjlTFPVDo8LJloPkg+rn+iOsXyA/f4XQMRDMdZvUPURAn5jjXCiF5gqBgD3YlFl82NEkPy0tG5vh3qE963a5GeqVRzb2rKciIAJ0IHSyK1nWV70j8KLU9XGcL4m4tGpXwof6bp/209epw7gtNnsB/GI1Osu1XqQ6tSvbT9+ywUTE0c/fx0gx5g9AK5jM6BDtb2LrD2+VR0t9nfmMgLAfTBUTi1Zdy6XYfPO9nrNpEO9QsQHUr3YlL82Cn54rqleh8b8iY0nWE70M33AbYdPjIj3rXpDat6UTlte85ND5drppmoBwANQ9DY9XvjpL5g6+0Dec0yJ5YQXm8sHAIeA5UYvFG689u71mmwOhHh4yjqjntOWW/+MqVaHRsGNXm+Pb+MND+LhaNZdyo7fnVa1+Z3SyJYlpkoBwGGw0IsfL4LG9QTN+1bNlFCzjQqVGpv8ABwBC72bHyLD5julN6tZR+qs6k51DRE7a9Y4H/po5kLvwEOEU7+mvRaz8ydFxN9VLYJW2kFzrVWOX2SqEwAcIUMjtz9O+Om1ejfmDnVucDVrMNWLYCdmiizAUfK4kegsyw0/JbykyXpNxMNTb6jlRoc2mmk54Uvs0WbL9hnFRHwg1Vscva6jOnWj5SbvtJcNP9hUJQA4SvSIpptwjubdtneR1WthKuFF5jIBQBewKptLlht/V/jJXcW1u/TspM71EBFnbL/wDGtq8z5Tle4b+YEjutPc4RMhYls7aLZ31goaDStIP7nQq59hqhAAdBG1GZBdbWxgRFMFzGnlAatSe7+5PADQZayR2gttPxm3Wa+JeEjq2a9e+HZThTpjucmQcKJt+mzMDp8EceD1kvbIpZfsF376TasSlkz1AYBZorhy8rGy0/e/7RHNwezw6YAZNFqWG7/HXBYAmCWWXrbheFnX3iSf87/U0wE5XxPxPi2u2dkqVMK1pvp0Rj68L9JHLgzoQxzx/lRvNNWbTctLVhf99A9NtQGAOUCfo+klV+tzNAdqZCGUHdytKmTutyq1d5rLAQBzwDlXbDrNcpN/sKvNVL3kYr0m4sGqnc5ldtxTcOtPNlXnd1m6oXV8e8Mfji1BvLf6vEs1guIntxb89F328A2suwTIgCUrwjOtIB0bnKCpAuY2teZ7j1XZ8iZzGQBgjrFWbC7ZQfJd4acHdD+Z0xcQf8fSevlcdsJPmCrzu5S8aIn8xzt4S4PYVtUFvQ7MS3eKIP3ceYeyqBkAZhV7+Q0Pt53QK65VdTPfQVNtqCDbod0ybL7G/PgAkCHWSPhS2R/QJzAUV2+T9ZSZf4hKu31m8//Nn9h4gqku9yAf1h9igTOi1E9aJbWznJe0ZGd2eFHQeKqpJgDQA5y3cuOplhd7pbX5HdHUZ1WPTu0sePVXmR8bAHqAR11WO8ny4/cIv/FbztdEbNveMyC80/JrTzJVxdBqHSsqdYdt4nGglZ1Vfd6l6ty58cSQW/9jU0MAoMdY7Gw9TfhJNX9TZ8P2CObo9C4xMvlq8+MCQI+xYMUtZxaD9BPt9Zqcr4kDru5Db1ejmRebKtKm4Ifnyk51xNsYHFRV2S+t05te/cqq1N+s1iib6gEAPcp8NaLpp55+QZqTNVJ6Cp6f7hYjIQEToA8YKtesYnXqayJo7Ne7z3O+Jg6oZrCybKpGG+Emf6xHb5gqiwOmevNoOqhTwo//ifMuAfoLHTS9eGUegqZeslJtbBVO9Arz4wFAn2C74fNE0FytZ0SputyhjiPmWb1RnVPfaK24/VGmWsiK4UTL1Bknnf4DYi5V512qw2P95IDw4isKbrTYVAcA6DPsifhkWZevNGfYdq7zPa2aIrtdbQM/bTnhS8yPBQB9hj5f00/eIarN3xbXqfWanDuPA6SfyOdYQ/36bFMl5s0TTlglZOJgGOv1TmYL8mvo0AHkg6Xl2knCiyul9ftl3e6jWTlOO2AKP91luZMvNT8OAPQx9vDGR9pB419l2NymZlnYQdq5/iPmSbUuU+ZJy4vfrSvC2cs3nygfcrcwtI95Vx0WqxbnW356u+2Ff6PKvq4EAJAL7GDrw4UbVktrZafO749OnV6qMtrcWaiwiyxA3rCc+lJ7dGpY9T/0YA7L0jDnFtfsUFNmv64rgD0SL7SccJohfcytsrPZPlMv3SPc+At2uXaOLvwAkDvUiKblxt9QRwsUx7d2bhN6RDVl3x6d3lOo1P7CfPsAkEMsr/GnImj8VNf5Hm+XEI9G/TLFCa8xBT+5QFQbB/rlrS/iIauH7Xe07DHZoHvJiFWOnq4LPQDkm1brGKtS+7BdbTbaU9V662gB9VJXf19efLMob36l+a4BIMcUVt34MBGkHxLV5mRR1f9qs2P7gNjPmpmxv31UuXbSvEK59vrSVfsP+iDEflYFy/ZW4un1wkk4CgBgALG9ui1Gp78nguYdpfX79FFF+niBuZ6ypr6emlExvr1Vumqf+h62WU70r7+zAx8ADASLnWiBHSRfsYN0r55lxZEnmCPNzNh0yUj4uHlWpfb+0vq9B30QYj/aXncpG+2gEQkv+Zg63sC06wAwoFjVxotk0LxcthGTem3UxM6WCp1z4972m13ZkbS8+Abhx58f8qIl5lsDgAFFzyT0G75+Ka7WsXXo0yD2m2rmkOWEd5RG0yfPK5Trn9ZHOXT4QMS+UY0SqHIcNPbJ33/NcieHTDsOAKBZUg3PLFSnXibc8POWGw1rnXD2lJ9fONH3Laf+j7YXP2vB2K2nmG8FAGDevOHh4+xq480iSH+lZl/ZY9Od+ziI/aI6xkTPGopeoI4v+bo6OLbjByL2umbdpdqh0fbSscKq8Lmm6QYAAADoeRZ6N59RcOOPCy9pryNnvSb2sWoGj+3VXzXPdqPlegv1Dh+E2Mvefd5l0LhWONEbLlg28SDTXgMAAAD0FbbXsC03+i/p/n46ignx3uq9frzw7Wok84eETOwn1TB8ad3ulh00b7Oqyd8WVqUPM+0zAAAAQF8jnPpzLDceUevb9Mt0j82BsH/UZ9J70fvnWU64kpCJ/aAdpO1t/6tTW0W18S+LKpsfY9pjAAAAgFxRqEQvF178E3X2IH117BfVKLxwoo/Ns9xwpKjOEezwQYg9oVp3ObFTr1Gw/fSHll97kml/AQAAAHLL0nLtJNkXep/wks2s18R+sLR2d8tyo38wI5mETOxN9dbeE7vU1NifWl7jT02bCwAAADAwCOe2+bLj/h/CT3e3zwFnCi32pipkCif6exkyox8wBI+9pj7Lrv3Gri4b1IsKq25k3SUAAAAMNMWR2jNtP/bs8a0tfTqEF3fsRyFmpd60ygkvVtNlv6MPiu7wQYhzrpe0imt3tUS1fd6lHcQLTbsKAAAAAMPDxwmn/kbLN+drqnMJO/WpEDOwtH5fy3Lid88TbngZ52Ri9rbPu7THt8uA2VwjvOj5pikFAAAAgN9j4fKbz7C8+JOimjbb6zUbHfpXiHNr6ao7WnYl+ot5wokuUWveOn0Q4lw4s+5SeMkvbT9+iz18w4NN+wkAAAAA94MYCYuyD/VNETT2qfVwnK+Jmak261yzq1Uohy9TazL/Vr396PiBiLOoWnepyp7lxpHlxx+xrpx8hGkvAQAAAOAwKHnJBXaQevbYtJ4dxnpNnGvVcYOq3A158bPmCa/+htJV+zt+IOJsqN6w6RcbXrJbeNEXi178eNM+AgAAAMCRc4xww9fY1ebPSxO7OF8T51R7dKplOfWdViUszStUai+21cY/Hlsh4yyrNvXRx5GoNQPxiDWy5XzTIAIAAABAl7An4pNtN/qgCBqbSuv26s5/x74ZYhdVS+CEE9YWVMMz5w150RL5hz0c7oqzppqfPb6tVVyzU53r9GNRrr3StIEAAAAAMEs8fuXkY2XQ/JwdNLfroyXUdMZOfTXELqinaTvx9fNarWPmWWPbHiH/cktxjOF07L7qzVlRNmoyXN5mu/F7lnznuoeadg9gYFBvlBct3/yYohM/QzjRK2wnfovw4g8JN/645Yb/Zjnhly0v+qblRN/Umzc40ReFG15ke7W/KAbpcxc5dbFkRXhmYVX6sKUbWsebTwswMCz0bn7IgrGpU0oj0VkFN1psefGLrEr9zbKufEzWn69Yst7oOuRG35DPnv+QdelfbS9aZlWi9+ujHpzwJZZTX7qkGp559jWbTzSfFmBgKLnpk2XQXCHUOeR6s0XWa2L3VQNKsv0tm2LXOkZ2cq7Vo0wdPhjxSFRTYtvhMt0qH/yfkZ3jR5sCB5B7Fo9tXWBVJl9bcJJPy87wSlknfindbrnxHerBrmaOzIzuqzPOSuv3ttTa+Ltdt1f/e3tqeXiXDKN75P+fFk54o/x1jfwcX5WB9d2WV7/gvInpU82XBcgNhdH00cKt/3HBq3/I8uPvyrJ/tQyUv5W/bpP1Ya/89YB+zqze3qH+7JGd6N36jbqautWuR1FLBtD98v825P/9mayXV8iw+lHhJn+80KufYb4sQO4RbvpKGTb/Vz1/bNZrYpdV7a7MlZ8yxW3ePNnx+a4e3uzwwYiHpVp3qRou+VC3gnS58CafaIoZQG6x/ORRsgP7QuGln7bc+v/KehDp3ZPX72uvQx6XHV35Z1Uv9NbyftJeB6/eJN/X22T17/Jj1dQm/f/U/1fH/azeoUOo2qZeftwe+XG3iUo4Kj/2ooJbf7KeogLQZ7TXj4XPE9XGJbI8/0jWkS0yDN6l69BaGRplmNSBcaYeqSl/uh7dV/0xdUvXo0TXO/3/1Owa9YJHv9zZpz72LttPbpe/+rIef8AqTz7dHr7hZPNtAeQSVcZVeRfVdLOeQltlvSZ2Qdnm6gxQqb/KFDXZQXLq726flXkfjTXiIagf3BM7WyJIryl64ctM8QLIJXaw+eGW3/gz4UTfl+Hyt7rzKttRFQLV9vG6A9yhnnRN2ZjfMyK6Q3ea5d/vlWF3neWGnyxWm89cMHbrKebbBeg5bGfjI4tB8lJZh/5Thsafq+CoynG7Dt0zAjmbqq/xO3VIBlvhNzZYXvzvQ27tmfMv33iC+XYBckfBD8+Vz6r/EH66W5f/2X5uYa5V7anlJTvVkgZTxNRb+Ojp8h9kw0rhwsNXj9isU2/CGptlGXrvoy7bcJIpWgC5Q61rUeu9hJfcpIKlnpqnphypEZMO9WMu1R1mFXTVNEE1Yhqk18u//6iobFlkvn2AzLG9qWfpdcdeVLv75YxastMDfRAddPU09vaaNStorJN//77Cqk0s+YDcUgyaz5DPMP/u8zU71A3EB1IPNDnRT39n3fuSFbecaTn139rj2zv+J8SOyg6BmrInQ+Ze20++LJz6fFOkAHKHWFV/jj3a+K7w0p16Cp8Klr36Yk5NE5QhU00x1G+nvbgpgsaXbGfyCebHAZhzbCf+I+E3KtI9ah3l3SP+qrx2KseZGusXNarTpOqQ5cZb7KD5ycKqyYL5cQDyxfDwcersfFknf6XKvK6fHesGYmfV1GvZdn7VlKh7sNzwe/qA/A7/CfF3VHOuV+/QHVgRpEGpXL/AFCOA3KHWidl+slKGtjv0g7ff1q6oabWj03rEVVSb08KPL1u0krAJc8MFyyYeZPvRy4UXjuqR9rW79OyXjmW1V1V1aGxruwNVnQrVcRCicguzAyCXLFx+8xmyzH9Chs0pPUttDqatYw70E9222158z3rMGSy3/ibVEemFKV/Yu7YftLKj7ae/lAXpzbLosMkI5JKhcu1Zwgn/Rzacd+oyn4MHrZ6aKDsNlp/ukJ2IrxWdujA/LkDXUTu3Wl4yppdUqHCZg/P59DNQvbAJ0sRyo88s+uGmBebHBcgVi91osXz+fU8+Kw7ofVvIB3g/qv6F5USJ7cSPNEXoHorB5GNFpb6t794w4pzY7iSoB2szEtXG3y92Np1mig5ArlAbIRTc+DL5YN2T17e4ajRW7VBre0lDBoGPqk2MzI8PcNTYXt0Wfvpt2UG9K6+biaiphDpsemlduPFFS6ohZ0BDLlFHCckyf5XeIEvNYGOTUOygag8tN/ofWWQ6Dj4dIz9ohT7bsMN/xgF1Zt1l0NwjA+aXFjm8tYV8MlSunS47jB+ynGiLDmAD8MJNd5RVm++l1wknfLW5FABHxIKxqVMsP/kHEaSprkO5n2YX6+OJ2rvzJ9cU3Pqfz1vWOtZcDoDccMHExhOEl7xNeNFN+sgTNfOxY53AgdRL2i8gKuHbTJE5GOFEb9DnueXwrSMepmrdpdrSXW1uUm34Q178LFNMAPLFsmXHWl7yWttLb9BrLmUb2LFO5FVd13fqaYCWn35j6Ira6ebKABwyBWfyGbI8/Vy/lJRl6aBylmfvVYdk2PTFqi1PM5cFIFcsqIZn2k74z7LMT7NeE2csqv5DpR4ukeXDFJWD0ee+Veqb1Qd3+iQ4GNpj2/Ruena18QvhpW+QRYN1l5BLLDd6oahO+eqtrNrMSnUWO9WJgdBPW2rHT3k9fmZ50fnmEgE8IOqsbRE0pvXU2IGuQ2rmj5oZkOwSbnxZwWcnWsgnQ160xHLj78r6fkAf98Pg1ECr2z3Z5pnicd9Ybv1SNc2l0yfBfNtep6XOu5yalB2Gj7HuEvKKXa6dY1cbX5bl/A69rooH5N3qqX9+utNywouXbmgdby4ZwEEUVqWPtoPGd9U0qYEbvbwf9R4G6/eqQ8kj4YTvnT/ROsFcMoBcUajUXiyD5hq9XlOdrznIL5kGVL2hW7W5f6h8CDMehTf5RNnx2tl32/TjkavOAtMd7XSXLCyXLnYi1l1CLpGd4odZ1eYHZBu3qbhOj9Z3rhMD7symJraf/uCcK3jZBAdTWHn7M+Qz4zd69Fs+QzqVo0FXzQprz5CIrhbl6JXm0gHkigsmWg9Sy+1kO3C9ngXHC6eBUt1zy6mPXzAx8SBTJO4f4YYr9LSXDp8Mc6QXt0pq1ELNqffjK5kiB3nG9pML7Wrz52pqj15r3KlO4D2qqX/tWS1rxQ/r881lBJhXKE++zB6dSooT9BMeULVeUz5n1do1y0t+WPTqTzGXESBXqBeSlhd/WD47amrggtMqBkC14Y96qXA4GweqdUp6MS9vJ3PrzNQGea9/Iv/MG1bILbLxe5p82K0qjk3rzTmYznMYqhdRapZD0Ly2VK5Z5pLCACO88G2yf7Bbj9C54cFlBjs7M2PIS3YKP/78osrmx5hLCpArhqrh42R5/087aO5UG4GRJfJraWJny6rUfnr+NZtPNLf/EFi27FjZMatynEn+1GtF9OhEvEX4yXvP4mwvyCmqEycfbl8QwZR80Onp4AfVBzw0dUchaNxilWtPMpcXBhBRrr3XHp26s70DMwHzSFQHlusXN158m+1E75p/+UbWa0IusUa2nC+qjco908Z5wZsr1YszNSvMqb/R3PJDR/6n54hqc58dMNydC/Wud2rnv2SPcKL/LKwMzzW3GiBXLL5i02nCjy+yq83b27sks768G+prGaQbCys3LzaXGgaIQqX2PlmXDqiQRMA8etVmScXx7S3bb6yTnbVXmMsMkDsKbvR6ETR+odf5c75mblQvDiynfv0Rb2wmnPBb7VEvHih9q1oPsmaH3shD/tkf8mqcdwm5ZOllG463vfjNssP2C/VChXWX3Vev1Q+aN4kfbllkLjsMALIj8Zd2tXFX+zlCf6BrqvVMar1mtdGyg+YqNbXfXHKAXHH28s0Pl8/mf7KrzVSHTb1ek7akb1VLaWTbZVWid5pbfPgMBaklvLRpAgr2mWqHL30cgRtfbznR6+a1WseaWwuQK4ac+h/JRm9CjQwwLWd2VcsoLD+9tjCaPtpcfsgxBWfyQtk5vKN9fjadwtlQHQHQnpLe3Cmq0//BDu+QV4pOXYggvVxUp/bpl5YcH9aXqv0tLKd+w9KxqVPMrT0yhFP/mC4IXucvhL2nmuLcXvORhJZTu3j+yo2nmtsJkCusSliyveQ7shN8V/t8Rx5Ys6/aDEiv615D25JvLK9+gQw9W209K4CAOdvqPRPW72vJDnhNPsc/aA/fcLK5FQC5ouiEz5XlfVxPG9ebiHWuE9iD+qme9lxw4z83t/PIWejd/Ae2E/5fe0SswxfD3lFNvdEvBNL9wgm/JipMaYN8UhqJzhJO/AlZ5pt66o3aDbtTncDZUe86K4OmE33T3BLIGXqHSC/ZqJ/9DgFzLlWzkNRUNLs6/VPLif/M3BKAXHHhhcPHiSB5m12duqm9XpP9E/pB9ey33PpyeQuPad/Jo8Ryay8UQXpXew515y+KGarWXeq3QdvV79eI8uTzza0DyBXqzb7lhu+xvfhmNhHI2CBtT5lxow+Y2wM5YWm5dpLl1NfrXZk73XucffV+CjvbbZyXVoa8mP0UIJcsWHHLmZaXfMYOprarNoeXxr2r3uvCT5KFXvx4c/u6g1UJ/82c8dTxC2M26nWX7Xntvy5UwrfJTviDzS0DyBWyvL/ScuOfqo6XeaHSsU7g3FlUHeCgsXfI3fI8c5sgBxQq9S+2l1xQx7LWVscEqGd8tbHXDtJvMEMJ8oo6IsuuTv1AhswDegYFeaO3VC+W1Y7Y5fit5pZ1D3s4Ptlyo/W6sWNtRuaqUeWimq7mN2Lhx/+0tFw73dwqgFyxyKkLGS6/qzbHaD946Pj2kkV1GLMb/rY0Hp1lbhn0MaJcf6Pa7I/RhN5Sr9dUz/wgnSz44Xt5oQx5xQqSl4rq1I/UWk39QrlDfcC5V794dOpfN7ep+4iRsCjceLp90wmaWXj3W82gscvyky9b7uSQuT0AuWKxs+k02c5cJNucpL3uMu1YJzB7S+v1+sxvmVsHfcrisWiB7TdqHP/Tu+qD7dfsbIlqc42scy8wtw4gV5y9/JoTZX/3XcJv3Kj6vCyNyVadO7z4Z3aw+eHmFs0OhUr9VXbQuJMDzufYmfUZ6jiZoHmlXQmfam4JQK5Y6N38kIIbvlWGy1+qUTI1JbxjncCeUb0AkPfprkK5C7vNQUa0jhHl+pXtnYM732fsEWfO1wyad4gg/W/Lrz3J3ESAXLFgRXimmq0n/KSpluwxw2KuDdu7/waNsFiJzzO3ZXaxnPBiHXh8RhbmwuJ4+7xLu9rYwE5zkGfEaPNPZLuyzlZlfg3nXfaP8kEk75flRjcvkZ0Cczuhjyh40V+0N3Xgud4fhrrDrUcY/HSHrHucrwm5RfjNouVF3xFufFd7VI31mrOvbGNGp9Xg1i5Rqf+JuRVzg6iEX9dTpDiXbtZUo8X6rfLo1GbZ2f7Qku9c91Bz+QFyRcmLlohq8wrZnhwoTqhOE+1K3+mZY00q4efNbYU+wXbiR1pO/Tb9YqfTvcWett1X2KPazZrlhR9ecLQHpAP0KIVK/GLLjdbdfaKCy4vo2VLv/TK+rWVVan9tLv/coaa0yZv733rHWTqE3VVez5J6U1Nt7pAB83P28K3nmMsOkCusFbc/SlQbn5VOMRWm/9XLKLxkj9ol0Nxi6ANsN/w3/YKAmQN9rZ4BojZHc+PrLSd63bxWqzvn2AH0EGrTK+GEb5ft1Y2qr8z5mt13JmAKp/4xc9nnnrOXbz5RfjPfZ0Sze6o3yXqL4KDhsu4S8soFyyYeZPnJO0S1+Vt9LhaL+nOjGlGxnNqwudXQ4yxyGkJ40XbqYE6c2b9Bd7zjslgVPs3caoBcsaAaninL/L9YXrJDbw7IVP+uqF4Wq70wLDf6B3Ops+P8aw6cKBs1M6LJDT5S1QPejF7eKK/jG+Wl5Q0k5JJiMP1cO2iM3zPdpXOdwP5Uj0YHjf3CqT/H3HLoYYQTfl1PtexwL7F/VR1u9QJP+Mku2Uf77GKvcba55QC5Yqhcf4pworJ6scJeDkejWoMpr6HabNGJshvB/H2WXrbheOEm39LbDHPMwGGpOmRqmpJdbU7La/fP1pWTjzCXFSBXWG4yZAXNb4jq1L72ZhXMfsir6oWZ5YQrza2HHmVREJ8ngsZ2ppvlV71eU4VNL9mo1lY9qrzhJHP7AfLEMZYXvlYGzF+U1u5iV/rD1ZEBU14z+Sy403brHzTXtHdQc6RtJ/6Knh9dbXb+IfAeZ7YgrzbuUhuelEaiJeZSAuQKe/nmh9tB8o920Izb513SPuRd2a6pmS377XLtWaYYQA9iufVvFDmyZACM9awRfRSBG/1EONErTBEAyBWLna2nqVE44SaJGcD5vbqAndQjwEF6p+VG7zSXsjeRjdnH1ehcexpceNAPgmq9xI6WrRbUBo21lhO+xFw6gFyhNgez/Eitu/y1fvnEm8WBUj3gLTf8jikO0GOISrJIPqMZxRwk1Q7Q6uW2n+qZBlY5eropDgC5olSuWbK//VXp3vbLbWZZ3pe6TRidjgqV+qvM5ettCuXo9fbYdNI+y4a50TOqTrYevRyd+qXwGm9XnXBzyQByhXpTLvz0avXmnG3GB1M1Tc9yo51Fpy5MsYAeQt6jS/Q+ADyjB08ZMvU+GkFjl/RL6oWDKRYAuaLgTD7D9uJVKmSqDbFo7+6lvCZ641YvuU6tazWXrD9Q37Dtp/9bVDtHDvhwtfr522/1oynhJh+1g80PN5cJIFcsqoRPtf1kpV48PiEbdNZdDrDq3Mw9LcsL/9kUD+gR1Np/4US36S3qO947HATvPl8zaIa2l168YPhWzteEXFKoRC+3gsZP9d4xqt0b8LCp2n5zksV3Fy6vn2EuU39x3sqNp9pe9K+yo7l/IN+Yeokehra8eJ+8Bt8quJsXm0sDkCuKweRjhRt+QQSNHboRZ6dplJrD/X9ZWHXjw0xRgR5AuMlr9AwD3uqj9O5ZVkHz/0SQvMYUE4BcsdBr/IHsp1xkB+ntup8ygANgetfp9oulTQUnfou5NP1NoVJ7sex8/lQ3YgOyLqu9yH67WpM0XnTjZ5pLAZAr7In4ZFne3yf8dJOafqUP4+9QH3BA9ZNWUY1q+/GLTZGBHkCtx2sf2t/hnuFg6pnzNcem1VFqI5bPek3IJ4VVmx5t+8m/yXK+W8+2VMdudaoTeXKmfo/KYO0nV4jKlnxNkVdvsm2/8REZNs2OT/m8qTNTY4Uf3WI79XepXXfNJQDIFQU3/nPZWP1UTYvV009Yd4kHKR9sajaHE37ZFBvIGLtcO0fej8geZyMu7ODMes2qWq/Z/OIiZ9MCU3QAcsWiSu3Zsg9T1puVqkGwXM7AivXgnp5N6ifXWk78Z+bHzydqEwgxOnW58JL9eZpWpwupapj9dJ/lJ98trpx8rPmRAXJFwYmfYTmRq9dd6oX0rLvE+1ZNmbWc+g1q1NsUIcgQ241ez4Hl+EDOrNe0q826HTQ/zHpNyCtqpo3swzvSA8WJ/Jzhrfpoel8EPwnVsS6LnU2nmR85/1hecoFw646eH9zHc6P1TVRvCNzoDsuLfiAqybPNjwiQK9QIiGyo/lOGyj2685HLt37YbdULOLva2CuqyXNMUYIMkffkct2R6nCvEH9fvV5zrRrZbF5ne31yxAHAEVCspi+z/ca4PTrdUm2kenZ1qhO9bdze1EcPeiXbhBt+XobLgZ2NcIwMmn8s3ORK4ac7dcd1bFvvd17l96emB7YXz6bT8kZ+2xrZcr75mQByxdnLN59oefG7hRdvMm+2O9cLxPtQbZNue+GHTZGCjLCH45OFE20clL0RsEvq9Vw7ZtZrrhDe5BNNkQLIFUsv23C8FSQvlWXeEV5yh55xqdrLHp+xpfpl+sg49QIxaGyS9fQL1orNJfNjQcGtP1n48qK40e1qvabulIzKBk0NW/fCtB75fbSHntX3NdWyvOh2UW1cUvKiJeZHAMgd6iWQrJNX6cZLr7vsUDcQH0A9PdMJR02xgowoOOFzhRvemdc9EXB2bc880xulbJV9okseN3LrWaZoAeSOITd+plVtftNy40g9w9o7MMu2sxcCp8xFqj6qvpk+6zJo7JZ/9zP5b+8TTn2++RHg9znH2XRawQ8vFF76NeFFk+qGqhurb64eQZm7wKm/9pqdLf0mQwZL+XcN4Te+Z1XC1y4Ym2J9AuQWWcZLlhNeIRutA6ruse4Sj0b1wtByotga2/YIU8QgA2SdvnggjxPDrnr3MqFq87d2kLzzgomJB5kiBpA7FnpbzlYbecogFwgn3FvUG+ns0edM6oGwDnVkVlTBcmy6/bXbR1DdJb/+T+X39IliNX7mvFbrWPMtw6GwpBqeWRxtvlhewC8IP/2RvMi71E6WOvjJ9K6GsHXwPNoOsPz/6vPotQdqxMa8sZAP5P3yBv5MBtuvFrz4VQtXbDnbfGsAuWSBrHOWG37ScuOmnhrbl2sSsNdU5chy6ncU/fQPTVGDDBBOfEVp/b6O9wjxcJ05qk1UG2uEH73AFDOAXKJephT8yYLtpX8pc8H3ZXa4Se/GrAbCVG6QdUG9UG2Pdh7dizw1Sqle5uj1lTqTyNyjdgT34km18aLlxBdbfvIkmZMear49OBoWXnrzQ2xn8gny4r5OXtyvyOD5c+HHWyw32q1uQunqO1rq4anert1zw9s3Xd+k8XZjOBMg1cepIebSVXe0G0k32iNvXk1+3uvl1/gvu9p4s5rCyw2EQUAdtSMbzLcJL/qNqht67U2Hhg/xiJQPXNX2yt+/zxQ5mGMKqw48TLjhdUx7x66qzsKVfSo7aN4hgvRbC1fdbpsiB5BrHjcSnTXkxc8SfuO9MnReKevDTdJE5oi7dMa4ar9eYqdmQ+rBMRNE25lEqn6vB7bkv6lcsm5P+/+oF4EyZMp8My1/vcVy6qttL1qmdsEdGgkfZ748zDaF0fTRas60cOpvKLjRB+XN/RfLjb8qb8yw5Ya+vOlr5M3+sVUJr5X/9hPhRGvlQ9aX//4/8u+/JpzkEvkxF1lu/U3yczynGDQfO6/VOsZ8eoCBoOjFL1J1RW1mpRo8+fuDOxKIR6l6ESh//ZIpdjDHLHKiBfK5uIv1mDgbqtEbM/slFV78iYVe/QxT9AAGgvmXbzxBjXQWK7UXW070l7bf+IiohJ8vONG3bDdcJXPHqMwf62V92WA54f/JPPIj2SaPy2xSln/+nswi/2F5yTKZY/5afswri5X4PI4O6lWWtY69YKL1oIXegYcsLddOmj+x8YSlG1rHM2cZoE3BjRbbQfId4ad3qjdtrLvE2VS9qZUP1ODC4dZxpgjCHCK89Pk6YObkDDjsTfXxD+p5EqS/kR3qdy70bn6IKYIAA4169qlZY2rH/vOvOXCiqhvt9cwMbgFATrCd+JGWn37KDhoN1l3iXKlGyoUb/tq6cpLNfzJAVOp/pXds52USzrZqeryeCri9ZXnxOrVLuSmGAAAAkDfUumYRpH8l/MZv22c/se4S5061uZrlhtPCuY3t1TNA3oN/0fsPsLMszpUz6zX99IDtxT+wyrUnmeIIAAAAeaDopS8To1NXz2yG1bFDgDiLqt3yVMBZFGw5zxRLmEOsSniFPnaCNdc4x86s1xR+vF044efscu0cUywBAACgH7HK0dPtamOlXZ3Sb5SZKoeZ6SeysymDJkcdZIJaD6s7+p3uDeIc2D5fU5XBeIsMm3933srpU03xBAAAgH6g4Ifnyk79l+yguVsfSaI69x0e+ohzpjmPWHYuX22KKcwVrdYx8rpfrV80dbo3iHNm3D6+oV0Wr1PH0skSysYnAAAAvYzaQlt48YdEtblFb+qjOvUdH/SIc6wXt+yxra2CE73LFFeYI9QO68KJfm7OKkXMXn127k49uin8pGxXwqea4goAAAC9RKEcvkwEjWvUG2IOXMeeU3UqZbksuNFHTZGFOUKHTDfaQMjEntNP9HpNy012Fpz4c4tXbDnbFFsAAADIkiEvWiL89Pt20DjQXnfJxh7Yg+qRCxVyws+bogtzhDozWjjhj4sTOw++L4g9oBrRLOo1w/FG24/exfmaAAAAGbFgxS1nCi/9hAgaU5x3if2gegliOdF/mSIMc4i8/lexJhN7XbX7ub1G74C+thRELzTFFwAAAGabpRtaxxfd6B0iaP5ah0u1pqXDwxqx19QhsxJdbooyzCHCDQmZ2B+qWQ9rZVn1kzuF3/ym7TVsU4wBAABgNrArky+3/HSdmnbIwerYb5qRzG+a4gxzBbvLYh969/maQSORz71PFVZterQp0QAAANANRKX2bOHGI+qhqzuKnHeJfSghMyMImdjH2mPTreLa3Sps3ir85H1LvhM+1JRsAAAAOBLED7csKlTCy4Qf71WHWNs+511i/0rIzAhCJuZAfb7mmp0tUZ36SdGP/8yUbgAAADhUzls5farlhBcLN4xK6/Zy3iXmQkJmRhAyMS/qXap36b0I5HNxRcGtP9mUcgAAALg/hJO8Wj5MryvJDmFxfGvnBy1iH0rIzA42/sE8qWb1lNbuVkFzu11t/Nui5b95jCnqAAAAcG8sP3q6cOOyXZ1qTwliUx/MmYTMzGAkE3OpGtHUmwNVm7dYbvyehZd6nK8JAACgKAbNxwo//rzwk136MGrWXWJOJWRmBNNlMefOrNe0g8Z626n/kSn5AAAAg8fScu0k24v/xvKT2/V5l1XOu8R8S8jMDqbLYu71Et3G2NXGnfK5+r2iUxem+AMAAAwGotr8YxGkV6vzLu3V2zo/MBFzJiEzIxjJxIEx1OdrqllB8tdUuOnHh8o3nW5qAgAAQD4puNFi4Te+J4LGXbrDx7pLHCAJmRlByMQBVJ2vqWcJBekNQ378RlUPTI0AAADIB4sqmx9TrDYuEX7abD/0Gh0fioh5lpCZHUyXxYFUHXmyekfLHt+m9juoFirxi02VAAAA6F/s4fhk4TfeZ482b9PbrY9Nd34QIg6AhMyMYCQTB11frdeUz2A/uUsGz/+2nPpSUzsAAAD6C+Emr7GrUz9XHTu1813HBx/iAEnIzAhCJqJWzSLSR5648U7pF4Rz23xTSwAAAHob2Zl7mgga5eLYVs67RLyXhMyMIGQi/o5qN3cdNr14s3Bq7z1/+eYTTW0BAADoLRauuPls4aefF0Fzh5oay3mXiL8rITMjCJmIHW2fr7lDhs3oatuJOV8TAAB6hyXV6x5qB42/kXLeJeL9SMjMDEIm4n2pNgdSdcOLDwgn+r69cvIJpt4AAABkwjG2E14o/ORnxYmdrLtEfAAJmRnBSCbiA3rPes1wu2yn/nWxt+VsU4MAAADmhkWV2rMtP3Xt0Wmz7jI56IGFiL8rITMjCJmIh6w9OtUqrlXrNdONwk3et7RcO8nUJAAAgNnBLtfOEU7yRRGke4usu0Q8LAmZ2cE5mYiHZ3H19vZ6TT/90RDrNQEAYDZYeOnND7G8+N12kJp1l82ODyVEvG8JmRnBSCbikTmzXlOdr+km3yqsmiyYWgUAAHB0WOXai4Qbr1XTYll3iXjkEjKzg5FMxCP37vWafhJbXvjh+Ss3nmqqFgAAwOExNLJlie3H3xVBeqfunLHuEvGoJGRmBCOZiF3Rnjn/2k+vtfzkdapumVoGAABw/5RGorMsP/6U8JMpPTU2aHR82CDi4UnIzA5GMhG7pJ5Cu1NvECSCRrngxM8w1QwAAOBgFnqNPyg44XtluLyltHa3fIBMd37AIOIRScjMCEYyEbuvn7TUBoB2tblL+I2vDQWpZWocAADAvHlLL9twvPCiN1hu9H963eXq7fpNZceHCiIesYTMjCBkIs6aaiPAop711Ezl7z9VWLXp0abmAQDAoFLw0z+0/cb43essCJeIsyYhMzMImYizrD023SqtVbvPNzbafvye+ZdPnGDqHwAADAqLnWiB8JKvCj/d1z7vkk19EGdbQmZGMJKJOGeqXejVS2sZNtdbbvRCUwsBACDPFFbd+DDbTz4ggnRST2/hvEvEOZOQmR1s/IM4h3qJbu/soHGH7G9cvujKjcJURQAAyBu213iVqDZ/oneF47xLxDmXkJkRjGQiZuLd52sGjdj2kmULl998hqmVAADQ76jtxe1qs6K2G1cBk3WXiNlIyMwMQiZihqr1mnppTtC4yapE71zo3fwQUzcBAKDfKKzceG4xaHzRDpq71ZEkwk87Nv6IODcSMjOCkUzE7FXna67eLt3Rsv10Les1AQD6DHv4hpNtN/2gqE5tUdNUWHeJ2BsSMjOCkInYO6rzNVVdDNI75e+/bXsN29RUAADoVWQD/ko7aP5MNeDFMdZdIvaShMzsYOMfxN5yZr2m7aep7UXLFjubTjPVFQAAeoWhkWiJFTSW29UpzrtE7FEJmRnBSCZiz3r3ek0/vd5yaq8ztRYAALJkqFw73fLST4pqc1qtu1RvBjs14oiYvYTM7GAkE7GHVes11+xo2aPT8s9xeVFl81NN1QUAgLlk6WUbjhde8nYZLm8srd0jG+apgxttROwpCZkZwUgmYn/opy3Vp5G/7pBh8/N2uXaOqcUAADDbqB3ZRNCYUDu0qZ3aZEN8cEONiD0nITMjCJmIfaVa+qPP1/TiTbLN/Ft7onWyqc0AANBtCu6mJws//b4MmHfozpKfdGycEbE3JWRmBCETsQ+NW8XxbbrdtL14g2w7XzdvYuJBplYDAMDRIipbFgkv+qIMmDvV4vj2usvw9xpjROx1CZkZQchE7F/1es2der2m5cZjVtDgfE0AgKPBunLyEcKJPia8NOK8S8T+l5CZEYRMxL7XVudr6l1okzvtoPEdq9osmRoOAACHwtINreMLTvgWy41/pUcux7Z2bHARsb8kZGYEIRMxN86cryn8tGn56adsJ36kqekAAHBfDI2Ez7OceLVeh7B6B+ddIuZIQmZGEDIRc+fM+Zp20LxZVBtvn7eM9ZoAAAexyIkWWG78VeEl+9V5l/LXjo0qIvavhMyMIGQi5la1y77eab+ajlpecoGp9QAAg83S4alThBteJLx4srRuL+suEXMsITMjCJmI+XZmvWbQ3GNVm19eeOWmx5vaDwAwYCxrHSvD5Wuk15Vkx6c4zrpLxLxLyMwIQibiQKhe1Ov1mtWpmh2kFy8YvvUU0woAAOSfQpA+1/ZT1x6d0ttys+4ScTAkZGaHcMOrCJmIg6E9vlW3t3a1cb3w4zdewPmaAJBnbK9ui6B5uQjSfcW1amc01l0iDpKEzOwgZCIOmOp8zdU72us1g8bqQiV+sWkOAADywVD5ptOF3/y4XW2mRc67RBxYCZkZwXRZxMFVrddUo5pB4y4raHzXWrGZ8zUBoM8ZHj5ONmpvFUHz1+3zLqc7N4CIOBASMjOCkIk44Ib6fE31ol/4jaZw448vWBGeaVoIAID+wfLiF4nR5ur21to7OjR4iDhoEjKzg+myiKi0R9vna4oguclyo3fawzc82DQTAAC9i+VODtl++m272ryrOCEbMdZdIqKRkJkRjGQi4r3V6zW3t4prdsh+WrpWOJMvMK0FAEBvYQ/HJxf99CJRnYpKa/foaRlqekbHxg0RB1JCZkYQMhGxk157vaaoNvbZfvqNoeW3P860GgAA2SMbqlfa1ebP1HmX9hjnXSJiZwmZGUHIRMT7sX2+5t6WCNIttht90B6+4WTTegAAzD1WufYk22/8wK5y3iUiPrCEzOxgTSYiPpD2+Lb2yKaf/LRQmXy5aT4AAOaG85Zvfozw0s/Z1ea29tTYtGNjhYh4bwmZGcFIJiIeqmq95sROs+wp+Z+CW3+yaUkAAGaHBcO3nmJ7yd/Khud2fSTJ6NTBjRMi4n1IyMwIQiYiHqZqAKE9kJBst9zo0qGRkPWaANBdLlTnXTrhW4TfuE51Uorj2zo2SIiI9ychMzMImYh4RKoBhdL6vfL3cV3++aPWlZOPMO0KAMCRU3Amn2H5qau2udZbXbPuEhGPUEJmRjCSiYhHaXFsa6ukztf04l8U3Pqfm9YFAODwsL26Lbzkm9I9+tBezrtExKOUkJkZhExEPHrVek014BA0WpYbu1a5foFpYwAA7p9znE2nWZXww7IhaartrNW21h0bGkTEw5SQmRmETETsnn7aKq7bo0LnPssL/32h1zjbtDUAAAdjXTn5dBGk16uOiD023blhQUQ8QgmZmUHIRMSuqwYiimtlu+7Fm20//shQuXa6aXMAAObNO2/ltacKv/H3dtBIdSeEdZeIOAsSMjOCNZmIOIvq8zXX7m5ZQXqDcOI3mpYHAAaZQpA+V4w2ry2t22NGL8ODGg9ExG5IyMwIQiYizrrt9ZrtEwjiKwt+eK5pgQBgkFi6YcPxtht+xA4ae9Shu4xeIuJsS8jMCEImIs6Rtp+21J4ewk9/W/DCl5lWCAAGgUVOXdhB6qgOhzr/qFMjgYjYbQmZGUHIRMQ5trh6R0uMTu0r+skljyrXTjKtEQDkFasy+Vq7OjWppscKj2NJEHHuJGRmBCETEefcUG8MpM/W9NMfWSs2l0yLBAB5Q1TCi9TZRsXV2zs0BoiIsyshMyMImYiYlV7c0vt+VBu3F5wtzzWtEgDkgmXLjpUdjM/a49uZHouImUnIzAhCJiJmrGp/bD/dKsqTrzEtEwD0M/MnWicIL/26nq4QNDpWfETEuZCQmR3CDa8iZCJidoYtM9ix1xqp/6VpmgCgH1ELrS03Wl5av68lfNZfImK2EjIzg5FMROwJ7bGteq2m5dXeb9onAOgnll624Xjh1K8orVfbSBMwETF7CZkZwXRZROwZQ30uuwyaB0Sl/lemlQKAfqHgxpe1zykiYCJib0jIzAhCJiL2mDpojk7ttyr1N5mWCgB6HeHULym2t4zuWLEREbOQkJkRhExE7EHt8W0qaG63nfofmdYKAHoVy61/QB1RYrPJDyL2mITMzCBkImLv6YSt4uodLdtvxJazaalprwCg1xCVLX8iqs19HFOCiL0oITMjGMlExF7ViVr6BAQ/ud52Nj7StFoA0CsUvfjxwo+3FNfs6FyJEREzlpCZEYRMROxx1T4ithstv3B4+DjTcgFA1uizMCv1NaV1e2RFDQ+quIiIvSAhMyMImYjY6/pJq7hmZ8uqcLQJQM8gKrWP66kGHjvJImLvSsjMCEImIvaB9ui02rRyp+U1zjetFwBkhQyYz5YVknWYiNjzEjKzQ7jhVYRMROx19ekIbv0nZ1XDh5rmCwDmmqXl2kmWG/2vHsXsUFEREXtJQmZGMJKJiP2iF+uNgAqV6KOmBQOAucaqhB/WnQZZITtWVETEHpKQmRGETETsI+2xaflrvE32c0umFQOAuULvJuslqT229aDKiYjYixIyM4KQiYh9ZmntnpZw6leaVgwA5gqrUvtOezfZzpUTEbHXJGRmBCETEftMO0jVRkB3WW74UtOSAcBsYweNp+rNfqrNjhUTEbEXJWRmBCETEfvOsFXSz4xw/bzhFmdnAswFVqW+vMgoJiL2mYTMzCBkImL/6ad6fablxH9m2jIAmC2KXvoUPYoZNDpXSETEHpWQmRGMZCJin6p2mrXcaM3SyzYcb1o0AJgNRKV+uT5DyOtcGRERe1VCZkYQMhGxT7X9VI9oinL0fNOiAUC3EaPJIuEnU/ao2tq5c2VEROxVCZmZQchExL5VD6444Q9NewYA3cbyon9kR1lE7FcJmRnBSCYi9rF2daplufHOwsposWnVAKBb2BPxyQUn/E1xfFvHCoiI2OsSMrNDuOFVhExE7Ff1hpeV8OOmSQOAbqF21rJHp9pz0ztUPkTEXpeQmRGMZCJin6sGWeTz41d/5B14iGnZAKAbyA7C10vr93WseIiI/SAhMyMImYjY5+pTFfzkTsutvdC0bABwtAyVa6dbblgrsuEPIvaxhMyMIGQiYg5Ugy0FJ/ycadkA4GgplCdfZlebLdtPOlY6RMR+kJCZEYRMRMyBxdXb1S6z151/zeYTTesGAEeDcMMv6e2b3figCoeI2C8SMjOCkImIOdAO9L4kd1rl2pNM6wYAR8qjyrWTLCf8GZ0DHFj9pGWPbZW/5yVLv0vIzAhCZn704nZ7KH/t+O+IeVaW++LqbS3LTT5gWjcAOFKsSliyvGSnHTQ7VzjEHKunxvipDCbhb6V30LHqbwmZGUHIzIeq/XOivfJe3qJ22rTZpwEHUH1evBP9j2ndAOBIsfzodcWJnby1xIFSdZ7auynHmwtO/BbLSV5iudEdHOHT3xIys4NzMvtftTeDvI/bSyNblshO9t+LoDFdWrfX/H3n/4OYN9XLZ/kc+dXZweaHm+YNAI4Eq1K/tLhmR8eKhpg3VWeptHZ3y3LjpvDizwqnPl/Vg6Fy9Hz974TMvpaQmRGMZOZCHSadcI/lJ49St9V24icIP/225cX7SmvlvWVzQBwEg0bL8pJ9llNfqts3ADgyhBuvJWRi7pWdI725VdDYZ7nRNwqrJgumCmiGnPofqY8jZPa3hMzsYCSz/zUjlruXjISPM7dVY3vxsywv8opjW1u6v8DMJ8yzal2mmuFXDl9jqgAAHC7WlZOPkB3u29Xai44VDbHfVQ+L1TtaxfHt6vdrhBc93xT/34GQmQ8JmdlByOx/7ytkKi4cbh1XcMK3CDe+Sc0GaW+W1vnzIPa3st+wZod8loT/bIo/ABwuBbf+ZOHUt9ujUx0qGWJ/q966q86Q8NNfWG78pqWXbTjeFP2DGHJiQmYOJGRmBNNlc+H9hcwZhsq102W/4e8tP43UBinm/yDmyvaIffRDU+wB4HCxvNqfqrnndKwxT6pOj+78BI2a8OOLFl+x6TRT5O8TRjLzISEzOxjJ7H8PJWTOYI9sXmg58VeEn+7VSxFYr4k50iwj22CKOwAcLgUn/JvSVfsPqlyIfakMiHoaV9DcI4Lkq0Mjtz9gR2kGRjLzISEzIxjJzIWHEzJnWFSpPVsGTF8tu2G9JuZFvYzMqW+02WEW4MiwnWgZIRP7XrXuUnZuimPTqpPkCNnpMUX8kGEkMx8SMrODkcz+90hCpma4dZxdqf2FcJPrVRlgvSb2u+aM2NhyJ4dMKQeAw8Fywi/rNWsdKhhiP6jfnquObdD4me3FrzJF+7BhJDMfEjIzgpHMXHjEIdOwYPjWU2Q5+DsRpFtYr4n9rC67TrTT8qLzTfEGgMOh4Ib/TacA+1H1ACit3dMSY9ObbT/5wJJq+FBTrI8IQmY+JGRmBCEzFx5tyJyh4IfnCj/5DxE0dxc5XxP7UFudlemGd1pu9EJTrAHgcJAVaFVxzc6OFQyxJ/XMeZfV5j672viycOrzTXE+KgiZ+ZCQmRGEzFzYrZA5w5Bbe6bw0/Z6zdX6GKmDviZiL6r7ArK/YVeil5viDACHijrzSnYKRtUZgp0qGGKvqTopqrzKjtBowU//0BTlrsCazHxIyMwO1mT2v90OmZplrWPtcvhW+blvUi8IzVo3xN7WlwGzOiX7BMmFpiQDwKFywUTrQZYbrSFkYq+rOiXtI0maN4sgedu8C4ePM8W4azCSmQ8JmRnBSGYunJWQaViwIjzT8tNPiWpjqt2e09ZiD6tC5tjWluWFrzVFGAAOFUIm9rpqTURRdkZE0NgqRpuftoc3PtIU365DyMyHhMzMIGTmwNkMmTOIVZNPlG37cjVKpJfreKzXxB5Uh0w16h6+xhRdADhU1HRZywnHCZnYc8rGvb1ZRHqXHUx9X3iTTzTFdtZgumw+JGRmB9Nl+9+5CJkz2H70cjtIf6yCpl6v2eH7QcxMFTJHp1pDTvhqU2QB4JDR05uiij48uVMFQ5xrzXmXaoqK7TfG7aD5R6a0zjqMZOZDQmZGMF02F85lyFTMv3zjCVbQfKfszN+ojlPjfE3sFXVfQPVJyuHLTHEFgMPBcuvL6RRgL1gc39oqtcviL4UTv3HpZRuON8V0TiBk5kNCZkYQMnPhXIfMGawrJx9hB41lImjGaomE+T4QM1MfYeKEdwgver4ppgBwOMhOwdfV28NOFQxxLlTrckrr9qo3hjXhhhedNzF9qimecwohMx8SMjOCkJkLswqZMxT8tCCCxmXCb+zRR1X5rNfEbFR9E8sNd9iV8KmmeALA4WA74T+X1u/rWMEQZ1O1s2Bp7R616cNOy40uHapm06mZgZCZDwmZmUHIzIFZh8wZRCV5tnxGOGrjFc7yxiy0R7fKkBmFRS9+vCmWAHA4yIr0vtJV+ztWMMRZ0Ut0p0FNRZF//p+h8uanmOKYKWz8kw8JmdnBxj/9b6+ETI06X9NPXif89Fp9vibrNXEOLY5vU7/estBr/IEpkQBwOKjzf3TDzZQUnANt2WjrgOmnPxZO9ApTDHsCRjLzISEzI5gumwt7KmQa5q/ceKrlxR+23DjS52uyXhPnQLMp5gZTDAHgcBGV2rNlx2APjTbOpqp86c6Bl2wUfvjepeXaSaYI9gyEzHxIyMwIQmYu7MWQOYOobFkkw+ZXLC/ap/eS4OU4zqIqZKrNMU3xA4DDxS5PnSPcsM40FJwVZWDTmzcEjd22F/97ceXkY03R6zmYLpsPCZnZwXTZ/reXQ+YMwqk/x6qEY2o6I+d842ypRzK9+BOm2AHAYdNqHSs7BtdyViZ2VXW2lHz4q06A5aduyY+ebkpcz8JIZj4kZGYGI5k5sB9CpmbZxINkeXu75UU3l9bt1ofm//7Pgnjkyj7MxM6WLGOvNiUOAI4EWYm+RcjEbql2A1RTY60gvUF40RtkETumXdJ6G0JmPiRkZgTTZXNh34RMQ2k8Oks49UssL9mhl2TQfmMX1BsT+smuYhCfZ4oaABwJlhu+p90xiA+qaIiHqmqU9UM+aKQiiD+hDtc2RawvIGTmQ0JmRhAyc2G/hcwZiuX6U+T3vUI9h/QIlEd/Bo9cvR7TCa9fOnbrKaaIAcCRYJWjp4sgvVOtn+tU2RDvVz/RHXsRNO60vcZ3xMimoilafQUhMx8SMjOCkJkL+zVkzmB50Z8KL/pZSQZNcwQF4mGrZ2M59StMsQKAI2WofNPpohL+prh6e8fKhthRve5yu157afmNdQW/9mJTpPoSQmY+JGRmBCEzF/Z7yFQUVt34MOHEfyfceLK0bq/8mViviYehn7Ts8a0ty43/2hQpADgaLDdaXlq7p3OFQ/w91W7EpbVq9LL5K+Ekb7eHWw82RalvYXfZfEjIzA52l+1/8xAyZyis3Hiu5dT/XXhpe72mWmfX4WdGvLeqnFhuuN+qhCVTlADgaBBO7e36GBOPc6fwvlU7+BXX7W6JamOz7aUXL3a2nmaKUN/DSGY+JGRmBCOZuTBPIXMGsWryiZYbf0/46R3qSC3aeLw/2+djRv9rD9/Q9y/PAXqCYtB8rOwgbDMPGMTf0Q5SvUZBPqS3Cj/5rHDq803RyQ2EzHxIyMwIQmYuzGPInKHghM9VR2qpF+rmDMSDfn7E0vp96ugSzscE6Bqqg+BGK3SQ6FDpcEBV6y5lp9H2G7LzkS4XXvJEU2JyByEzHxIyM4KQmQvzHDJnKLjR60XQvLakRjXVDK4O1wEH03b5j/daI9H5prgAQDewKvU32au36UXPnSofDpb2+LZWcc1OVR5+LJz0FaaY5BZCZj4kZGYEITMXDkLIVCwYvvUU4SYftatTdb1ek1lcKFV9HsupX63aM1NUAKAbDJVrapfZLfYY234PsmonvqLavtuLN8uA+d4l1fChpojkGjb+yYeEzOxg45/+d1BC5gyLnWiBCBqXyZ97r1qvyUv2wVaVAXV2vCkeANBNhBd/limzg6kKV2aH4d22G11ql2vnmGIxEDCSmQ8JmRnBSGYuHLSQOYPl1S+wg2a1ON4+lku4rNccNNW5qjJgho8PJh9rigUAdBO15k4EjV2CqSODo1p3uWanHsGUD9ayNbJlINciEDLzISEzIwiZuXBQQ6Zm2bJjC278VnkNbtRTaEc5X3OQLOqX7OGXTGkAgNnAcuor9bSRDpUQ86U9Ni0bVtUpjK+3KuFrTREYSJgumw8JmdnBdNn+d6BDpuEJy28+QwTNT4jRqSkdNjlfM/fqe+zHe4U3mdvNDQF6giE3fJ7qaNPZzq+qQS2t29uy3bghnOhji51NuTnv8khhJDMfEjIzgpHMXEjIvIchL1piB81hdU30JngceZJbVX9Itl9XmFsPALPFBROtB8nKVtWVrkNlxD5WPiRLauTSiw9YbvidhavqtrntAw8jmfmQkJkdjGT2v4TMg5HX45XyumwoybJtj3PkSe7Uo5jp/oITP8PccgCYTYRTf47wkv3mgYN9b9wqrt7ePoDaCX8sKvU/MbcaDITMfEjIzA5CZv9LyOyMPXzDyXaQXmyPqiNP9s5cJ+x7w1Zp3e6WqIQ/NLcaAOaCglP/T3WUReeKif2i2rxA7xrrxbda5fA9Zy/ffKK5xXAvmC6bDwmZGcF02VxIyLx/ilfGj7erU1+xg+Yejjzpf3V5Dxr7is4ko5gAc8lCr36GrIS3tbfz7lxBsXdtr7uU4dKPt1le9K+LKpsfY24tdICQmQ8JmRlByMyFhMxDQzjJc2Q4Cezxbe31mhx50peqUWmrUv+Bua0AMJfYXvQXqhHlbV0fKe+V3jHWSw7IB9/32S3t0CBk5kNCZkYQMnMhIfMwWLbsWCtovMkenb5OlXt7jPWa/WRR3i/LjaeGyjXL3FEAmFNkx6Hg1Ct6RKxDJcUeUp13uXqHXnspA+bEkFv/Y3MX4RAgZOZDQmZGEDJzISHz8FG7sxf85KMiaNT1kSfta4i9rOovqenOXvwhcxsBIAusyuaS8JNpdlXrXdUbOTV6aXnpDcIL37b0sg3Hm9sHhwgb/+RDQmZ2sPFP/0vIPHLsIF4o+0pfku5W+1nYAc+SXlUHTCf88fyJjSeY2wcAWWE5k+9WI2R0wHtLtamPeZhNWm74EXv5DQ83twwOE0JmPiRkZgchs/8lZB49lhedbznhSvUs0fXBY7lRL6kHTILGtFWuPcncMgDIGsupX1Faz9mZvaB6Q1paq7dR3yb89AuFlRvPNbcJjhCmy+ZDQmZGMF02FxIyu4flJi8VXnR1cfU2s4yFzYEyV/ad1L2wKrV3mtsEAL2A3m3WT39RnNjdufLi7KvWEazZpToCB4TfuEKsStjUp0sQMvMhITMjCJm5kJDZXdR0TMutvUP4yS2ltbtb9uj0Qdcc50jZfyqt36emyX5bbdpkbhEA9ApDXv0pshPe0G/lOlVinDWLaqv0iZ2yE9C4xgqSl5pbAl2CkJkPCZkZQcjMhYTM2aE0Ep0lvOjTMmxuVYf/85yZe/UGlk7448XO1tPMbQGAXqNQqb/KHpve334jFx5UkbG7qod+aa1sHKvNLcJvvO/s5decaG4FdBHWZOZDQmZ2sCaz/yVkzi7qSDEZNn+o91NQ52syhXYODPULeuElt9kj8UJzKwCgV5FB84OqgTQPJJwNPXXe5W4VLvfa1caXWXc5uxAy8yEhMzsImf0vIXNusNXLei/doJYfcb7m7NretDLZbpXrF5jLDwC9jqiE/1Rcs4Og2XXVusv2eZf26FTV8mgY5wKmy+ZDQmZGMF02FxIy546lY7eeYjnxxcJP49I6vZHfQfcDj061zEgEzR1Wpfan5rIDQL8gOxWfuCdoMnX2aFVvNNV5l6La/LUIGm+bd+HwceZSwyxDyMyHhMyMIGTmQkLm3FMq1yzhRd+UYXOfnr3kc+TJ0RvKgLld9aV2iHLtleZSA0C/ISq1j7enzk7pit25wuP9qR7salG6PToV2UFj2VC5drq5vDBHEDLzISEzMwiZOZCQmR3CqT9HeEmgN/ljveZRKAOmPjIm3Wk59T8zlxcA+pWCG31UjcKpxeydKz121DfrLr1kv/AblxX8yYK5pDDHsCYzHxIys4M1mf0vITNrWsfYTvI6UW38XB95wnrNw9bsF9JYtGrLS8xFBYB+R1bu98mQeZeeA9+h4uO91Odd7mgVx7e2LC8es93weeYyQkYwkpkPCZkZwXTZXEjI7A0WDN96iuWlF8v7UdeznNr3BR9A9dJeXbOhkS30qQDyhnDqbxDVZpOOxn2rgqXuCLvRDcUgftMFE60HmcsHGULIzIeEzIwgZOZCQmZvYY9sXij85DLZr9qlRzZ5PnXWS1ql9XvVr9cV3PqTzeUDgLwhOxpPs4PGL0rr99Eg3kv18FY7yAkvnrS8+GJ7+eaHm0sGPQAhMx8SMjOCkJkLCZm9iTWy5Xx7dOpKdT456zV/V7UfiFl2tGLBilvONJcMAPJKceXkY203GlZTZ+0Bnz6rQoua7mJ5yT7LCb8yxMO7J2FNZj4kZGYHazL7X0Jmb1N04z8XQeNaPYV2fMDXa6plR6q98dP9wo0/vnTDhuPNZQKAQcByo3fao1PtNQVBo3NDkVe9RDaAO/XPbXuxV1i15bnmskAPwkhmPiRkZgYjmTmQkNn7qPWadnXqI/JebdFrEAdww0X1M6t+pQyaG4Qz+QJzaQBg0LDcySE7SIftMTXNY8dATPPQ512q80P9eJ3lhi9VO8aZywE9CiEzHxIyM4LpsrmQkNk/FFZuPNcKpj4jgmRbca0MXIPw7NI78suftdrcbnvpPy8YmzrFXA4AGGRsL36VfIBdV5INRF635VYPaL0Wtdqoy8bwvQu9mx9ifnzocQiZ+ZCQmRGEzFxIyOw/1EY3dtBw1b3TI5t5fIbpHfl3toqq7xg0ynal8VTz4wMAtJm/cuOplpcsk41hXe+UlpNpHurnaC88T3fKxvBri5y6MD8y9AmEzHxIyMwIQmYuJGT2KbL+WX7zJZYXeeoZpuqhHeThWSbD5ert7VlwQfNa2cd6g/xpmRkGAPfNImfTAuGnX5APtGm146qaStt302jl9zuzLsAOmttl43e5WDX5RPMjQp9ByMyHhMzMIGTmQEJm/2M54Utk/2RU3Uv9Mr8f98NQQVmFy3W7W5ab3GIFjfeft3LjqeZHBAB4YOxq/AQRND9vuWGoOidqoxy9rqCXA6fa0Ec2fnrHWDdqiiD5kuWkS82PBH0KITMfEjIzgpHMXEjIzA3HqGeaHaQrZJ9qjzpDsudf5qsX9yoYqxf3apabl1xnV+ofLI1HZ5mfCQDg8FlUaTym4EYfFEHjatXQ6Ln3emfWHunwq+9pfFt7CsqofAj76S/l331CbWpkfgTocwiZ+ZCQmRGEzFxIyMwfRTd+pqybXxN+MqlHB3U/pneWKunlRvJ7Ut+b5YQ7bL+x0vKS1569fPOJ5kcAADh6zpeNijUSnS/c5F9kg/hT1QCpt1rF8e3y4ScbRT/p2Eh1XfVGTR09onaJ1Y2fWg+Q3iYb6m8LL/mTxc6m08y3DDmBczLzISEzOzgns/8lZOaXwqr00TLAvcVyY1f2pabUPhJ6F/zR6Tl9oa+eseprqq+tpvPK72Va/n3VduO/tkfihebbBQCYPdTOrMKpP0dUpz9uueF1siHapkJf6ar97Tdx8vc6CKpQoMKnmgai7NCodVR/vPx/qsFTn2em0Vu/r91R9eJ9lhNulh/z7YITXrjY23K2+dYghxAy8yEhMzsImf0vIXMwsKphqeBE75L32hdeGqv+kOr76Jf6q9sv9XXwnOlbdSgr9+ndfatEfw5VptRMMPW51dfQn9NPUtmvG5P9rHcPjWxZYr4tAIC5Z+mGDcfLRuuJMuy9RTZilwg3Lgsn/I0lH4aqQVMNYns6607ZkO2VDdlevdurCo3679UUkdXy92oarvx7/e8mqKrGUH6e/bJjukV+7jVFL/mibPz+2nbD59nB1oebbwFyDtNl8yEhMzOYLpsDCZmDR8GfPlc40SusSvhhGf6+JftDP5F1uSG86E71Al73oe7Vb9L9KNWfmulbyT+rEUkdUtfKkKpGR80ggCxLd8n+1JT8dYNwk+8Jp/4xy4n/rOjFjzdfHgCgx2i1jjlvYvpUu1w7R/iNF8hO5V8W3OSjwok/JxvGb1tevNJy43HZWKopt7+W//4r+evPZcP5Y/33Tvg/wg2/IP/+b4WTvqLgp4WFy+tn2MM3PNh8BRgwCJn5kJCZGYTMHEjIhKXl2km2Ez9SbWhYKNdeL0PiR2Sf6iuyXKyQfap1sn39ify7a2U/6kb55xtkvb9G/hpIh+Xvvya85NOyL/Yh2Rd7g3AaT7P82x+1pBo+1Hx6AIB8oBq2J3j1M4bK209f6DX+gIXkcF8QMvMhITMj2PgnFxIy4f64cLh1nAqh6szzBSvCM4fKtdPnX77xBPPPAAAA8PsQMvMhITMjCJm5kJAJAAAA0EUImfmQkJkRhMxcSMgEAAAA6CKEzHxIyMwIQmYuJGQCAAAAdBFCZj4kZGYEITMXEjIBAAAAugghMx8SMjOCkJkLCZkAAAAAXYSQmQ8JmRlByMyFhEwAAACALkLIzIeEzIwgZOZCQiYAAABAFyFk5kNCZkYQMnMhIRMAAACgiww5dUJmDiRkZodww6sImf0tIRMAAACgizCSmQ8JmRnBSGYuJGQCAAAAdBFGMvMhITM7GMnsfwmZAAAAAF2Ekcx8SMjMCEYycyEhEwAAAKCLEDLzISEzIwiZuZCQCQAAANBFCJn5kJCZEYTMXEjIBAAAAOgirMnMh4TM7GBNZv9LyAQAAADoIoxk5kNCZkYwkpkLCZkAAAAAXYSQmQ8JmRlByMyFhEwAAACALkLIzIeEzIwgZOZCQiYAAABAFyFk5kNCZkYQMnMhIRMAAACgi7DxTz4kZGYHG//0v4RMAAAAgC7CSGY+JGRmBCOZuZCQCQAAANBFCJn5kJCZEYTMXEjIBAAAAOgihMx8SMjMDEJmDiRkAgAAAHQRQmY+JGRmBCOZuZCQCQAAANBFCJn5kJCZEYTMXEjIBAAAAOgihMx8SMjMCEJmLiRkAgAAAHQRQmY+JGRmBCEzFxIyAQAAALoIITMfEjIzgpCZCwmZAAAAAF2EkJkPCZkZQcjMhYRMAAAAgC4y5NQJmTmQkJkdwg2vImT2t4RMAAAAgC7CSGY+JGRmBCOZuZCQCQAAANBFCJn5kJCZEYTMXEjIBAAAAOgihMx8SMjMCEJmLiRkAgAAAHQR1mTmQ0JmdrAms/8lZAIAAAB0EUYy8yEhMyMYycyFhEwAAACALkLIzIeEzIwgZOZCQiYAAABAFyFk5kNCZkYQMnMhIRMAAACgixAy8yEhMyMImbmQkAkAAADQRdj4Jx8SMrODjX/6X0ImAAAAQBdhJDMfEjIzgpHMXEjIBAAAAOgihMx8SMjMCEJmLiRkAgAAAHQRQmY+JGRmBCEzFxIyAQAAALoIITMfEjIzgpCZCwmZAAAAAF2EkJkPCZkZQcjMhYRMAAAAgC5CyMyHhMyMIGTmQkImAAAAQBchZOZDQmZmEDJzICETAAAAoIsQMvMhITMjGMnMhYRMAAAAgC5CyMyHhMyMIGTmQkImAAAAQBcZcuqEzBxIyMwO4YZXETL7W0ImAAAAQBchZOZDQmZ2EDL7X0ImAAAAQBdhumw+JGRmBNNlcyEhEwAAAKCLEDLzISEzIwiZuZCQCQAAANBFCJn5kJCZEYTMXEjIBAAAAOgihUrtxbqTRcjsa03I/C9zW2EOsdxoPSGzv9Uh04l2F1aG55rbCgAAAABHiu2GzxNOeMAOCJn9ayxD5s6W7YRfMbcV5hAZTtYSMvtbFTItN9pVWJU+2txWAAAAADhSRKX2bNnJutMOGh07X9gHejJkrtmpOsmXmtsKc4jlhuPFtbs73xvsC9sjmeG20kh0lrmtAAAAAHCkDJXrT5HhZD8hs49VIXP1jlbBiS4xtxXmEMsJvdK6PZ3vDfaF9uiUmm4eD03UTje3FQAAAACOFFFJFgkn2kvI7GNlyLTHt7WsSvhhc1thDpHh5AeMZPa39vi0Gsn8zYLhqVPMbQUAAACAI0VND1PTxMzuitiPeknLHpuWIbP2TnNbYQ6RIfPLak2sWhvb8f5gz1sc366mm//v/InWCea2AgAAAMCRMn/l9Kmyk3ybCimdOl/YB/oyZKqXBCPRK8xthTlEuOHHVUhRI8od7w/2vGpNs/zVmbds2bHmtgIAAADAkWIPtx5sOeFVxdWyk9yh84W9rz5+RgVNJ36Cua0wh1hu7R326LQeUe50f7D3ba+pjS8ztxQAAAAAjhbhRN9nTVn/qo9fcKLmgnLtHHNLYQ6R9ecFek2zDPqd7g/2vqWr72hZlfo/mFsKAAAAAEeL7CRfUrpqf8fOF/a+ahTacsL/W+jd/NkDfVsAAA0VSURBVAfmlsIcIkaTRZYb7eOs2T5VrWnWazLrbzK3FAAAAACOFuGEb9drklhT1peW1u1Vm5YsN7cT5phznK2nCSe6sTi2teP9wd5Wr2euhHuKTvwMc0sBAAAA4GgRTv05MmjuZYfZ/rS0fp8MmeEnze2EuabVOlaGzEqJKed9qT22VdWfyaEyZ2QCAAAAdA3VubKccIs9zkhM3+mnauOfA8IJX21uJ2SA5dY/o8J+x3uEPW1x9Q4VMteZWwkAAAAA3cKq1FcX1+zo2AnD3tUenVKHyG9b7EQLzK2EDCiUa69Xm//onX473CfsXYsTu9Svl5hbCQAAAADdQk23LE4w3a/ftMe3qZ1l/09N2TS3EjLAcieHLKe+w67K0N/hPmGvGrfUyzXLq/2puZUAAAAA0C2KldqL7dHpAxzD0F+q8/0sN/w3cxshIy4cbh0nQ+ZPOG+2v7THpuWvcbSkGj7O3EoAAAAA6Bayk3Wm7CTfVhynk9w3+omaLntAhsyXmtsIGWJVap9SO/12vFfYk5bW7lEzAbx5rdYx5jYCAAAAQDexvOgHRb1DJkeZ9IPF8W0tUalvXLIiPNPcQsgQ4UQvEEHzDs7L7BM9M1XWTT5gbiEAAAAAdBvhJK+2R6f14eQdO2XYU+oNS5zwW+b2QcYUVqUPs5zwV2q30k73C3tLtVGT5US7h8o1y9xCAAAAAOg2T/DqZ8jQUtNBs0OnDHtIL9HrySw/eYm5fdADyJD572a3Uuxxi3o9c+TPGx4+ztw+AAAAAJgNZMj8emk968p6XbXBjAw0Ny12Np1mbh30ALYXP0v46V02G2j1tl6ip8rK3/8/c+sAAAAAYLawvPhFqpMsgsbBHTPsEeOWWjtb4Gy/nmPhzQceYlXqPyoxmtnT6lkATj0qjURnmVsHAAAAALOFPXzDg2Un+VrWlfWudtCUv8Z7FgXxeea2QQ9hVWrvL07s1BvLdLp/mLVhS+0CbLnhV80tAwAAAIDZxvLid7fXldFJ7kXVWrJCpbbC3C7oMezh+JEFJ6zbY1s73j/MVrvabImgsdsOwqeaWwYAAAAAs40dbH64cMNbOVi+91Q7YorRqf2iPPl8c7ugByk40SWcmdmbqqnmVmVylblVAAAAADBXCKf+sZI6M5Mpfz2lObakam4T9CgLr4wfb3tJg9HMHtNvqFHMOwtO+FxzqwAAAABgrrCd+JHCiTbb44xm9oxBqqb63VUKohea2wQ9jKiEny+t29P5XmIm6vvhROV5rdYx5jYBAAAAwFxiOeHFpbWyU8ZoZk/Y7iDXy/OGW5zr1wcs9OLHCz9NGc3sDfVU8yC9w/LqF5hbBAAAAABzzYKxqVNk5+zX5jw5zFC9WYmb7LUrDTYr6SMsp/6Pag0gm2hlr14j69S+ZW4NAAAAAGSFKIevKY5va9l+2rHjhnOjGsW0KtGl5rZAn6Be1FiV8NfFNTs73lecG+2xbWoUMxGVLYvMrQEAAACAzBgePk444ZXttWXhQZ03nG3Dljqz1HLDW5/g1c8wdwX6CMuL/tQenW7ZAS9qMtGLW6WJXS2rXP+AuSUAAAAAkDWLnLoQfjLF2rK5V40g6+teDl9jbgf0IVZ58nscaZKFYUutK7ec8KqzrzlworkdAAAAANALyA7b+4oTO1sybHboyOFsqYKJ5dS/Z24D9CkFPzxXeMnm9tmzzAiYK+2x6Za87jsXOVueZm4FAAAAAPQMrdax7WmzjMbMlfpMTDe6SR0nY+4C9DGFcv3P1QZOdqA2cep8z7GL+ml7mmyl9n5zCwAAAACg11i4YsvZsvN2mx7RdBiNmT1DPUXWHp3aNTQSPs9cfsgBst58Tr+o4VigWbe9m2z0/XnzOBMTAAAAoKcRldqz7Wpzuz3O+szZUp3np3b0LZQn/5+57JATzl6++UTbi7zSemYEzKb62Bg/+dmCFeGZ5tIDAAAAQC9jjdTfLIPmgfbZjZ07eXiEekm7g1wJP28uN+QMy08eJfz0l2oqZ8cygEeuIwOmOtfXT2pWJSyZSw4AAAAA/UChXP+0GS3o3NnDI7K0fp/sKNfL8ydaJ5hLDTnEroRPlUGzaY9v61gO8Ei8Z5p5oVJ7sbnUAAAAANA3DLeOs91kWIci1pd1xfZavei6BVWm+A0CMhS9RgaiO/QOqOw4e9TqTZVWb28VRmp/Yy4xAAAAAPQbhVXpw0SQOnp9GUHzqCyt26MO67+h4E8WzOWFAcB26u+SIfNOe5SgeTTa1Sm9jtly6svMpQUAAACAfmX+yo2nyk6eX2THzCNWjWDaQeOXljs5ZC4rDBBWOXyPHoXTQbNzGcH7MlTTY2XA3Nqy3Po/mEsKAAAAAP3OeSunTxV+UtZTZ1mjeVi2R4GT60RlyyJzOWEAscv1d4nq1H61prBTOcFOqoA53WpPN44+ai4lAAAAAOSFJdXwoZaf/qA97bPxe51BPEgvaQfMIL1GOPX55jLCAGNV6m+SgWlncfWOzmUG72XYKq7e3hKj0/sK5dp7zSUEAAAAgLyx0Lv5IVYlulStjWJE5r5VUyOLa/eoUd8rh8q1083lA5hnueFL7WqjXlq3W5YVpp/flyW1s3WQTgsnfLW5dAAAAACQZ2RH+a/t6tT2IucAHqQafVEjvZYb/ZsK5eaSAdzNosqW82SA+jGzAjrop+01zNXm9dbIlvPNJQMAAACAQaDohM+13PgG1VGWHebOHcZBUk2PXatDQ02UJ19jLhNAR9SGWraXfKU4tlXvmtqxTA2YanaEfknjN75rD298pLlUAAAAADBILFxeP8Oqpv+lOsmD3FHWu1+u3d2ygoZXWMURJXDoCCd8u+3FDfWCQr2o6FS+cq95QSP8ZFrNkjCXBgAAAAAGGcuN3iGCRqSnufkDNKqpO8e71RS/XZZX/8f5l0+cYC4JwCEzNLJliQia1eKanQO31lmPXk7sUtNjJ4Q3+URzSQAAAAAAZEe5XLOEG39fj+qtUbtn5ntTE1uN3sqf03Ljcas8+XRzGQCOjOHWcXYQq7XO9fZazXy/rFEvo/TPOToVCy/+0MJLWb8MAAAAAPeBcMPXyE7jr3UHUp1v5+UrbOoQrdahevGk3gBp+IYHmx8d4Kix3MkhO2h8V5eziZ16I5xO5bBv9RP9c+nzL/102FqxuWR+dAAAAACA+2bBilvOFE70admhTNphc2ufh81Yd4r1JkdevN3ykq8s+uGmBebHBeg6sty90g6aP1blTu/iLMPZweWyj9ThclerOL5VbY71U9sJLzQ/KgAAAADAoTM0Ej5OuOHHhZ9uUuvN9CH0/RQ25feqNzVqd/JT240vVevnzI8HMKssvWzD8UUvea2oNtaoo07U+l91BmvHstqjqu9bbYplj8rvu9qcsL3oLzjaBwAAAACOGtvZ+EgRND8kg9ov1BEFeqOP0akeDZyx7MirdaUyFOtw2fitDMkfV4HZ/DgAc4qakm054UssL14py+IePTtA7ebcq1Np5fdlj2+V4VLvGLtf/l256IUvW3ipR7gEAAAAgO4yf+X0qcIJXy28ZER2RKfUCIcOnGp0JsvpgPJr6xEXGSzVDrnyz9ulowU3fmth1aZHm28fIHOGvPQpVtD4jOWGt6oXNaX1e/V0dL2rc1YvbeTXVV9frcEurd/XfoHkRLeJauOzbIoFAAAAAHOGPd6wZQf1fTJs+sINt6ugqaYD6mMcZOBr7047e51mtXun2h3W7HDZstxotwy/E1Yl/LDlJ08y3yZAT7LY2XSa7ScXiiD5quXFtwo/uUtNR2+X55kNt2ar/sjPq4KlWaesp8HLry/r0O12deoravMv9f2ZbxUAAAAAYG65cHj4uMLKjefaTvQ62Tm9TAa9n1hOuE9PV5Uh8G7Ht+mREhVG9fEO9zdqMzOyoj5WbZxijhu5+3NO7GrJr3GX/FrXFpzwW7Ybv1VUtixip1joRxY7W0+zvalnCSf8hOVFvqwD9XaZn6lDaj309vaI5+hU+yWO9wAzB8zovv54dZalmuZ+r8+np+vKr2N7sae+rvCnnm0HWx9uviUAAAAAgN5habl2kuwAP1F2Xt8sg+BnZfAcsdzoWssNb5FGlhPtVCFSBcXS1Xe0Slft11P07lb+WW800l6vtls4UWK58a2yI3y9/Hye7YT/XvSb7xjy6k9ZOjZ1ivmyALlh8Vi0QFTqf2L78Udk+f+WrEM/knXm1/L3W2Rdmpb16E4VHEtXtevL79cfpfp3WV/ukB87LX/dYsn/L+ve1bIefdt25ef1kj9Z5ETssAwAAAAA/Ys9HJ+80GucbVWaJVFJnl2oRC+3KuFrC87kW2wv+kvh1v+f7YZvtd3o9aIcvdLy6hcUK/F5wqnPX+jd/Afm0wAMJBdMtB60ZEV4puUmQ8LZ8rSCH79YHSMivOgNllt7h/Dqf1V0o3cIJ36j8JNXy1D5IrsSPlWd27nQq5+h/r/5VAAAMKvMm/f/AZriyzr7AI/tAAAAAElFTkSuQmCC;" vertex="1" parent="1">
          <mxGeometry x="560" y="200" width="120.52" height="120" as="geometry" />
        </mxCell>
        <mxCell id="XB-GGh58G5ihhV7Ilf28-4" value="" style="edgeStyle=orthogonalEdgeStyle;rounded=0;orthogonalLoop=1;jettySize=auto;html=1;" edge="1" parent="1" source="wdAWqG1FVsQUKpZkSjq6-9" target="wdAWqG1FVsQUKpZkSjq6-8">
          <mxGeometry relative="1" as="geometry" />
        </mxCell>
        <mxCell id="wdAWqG1FVsQUKpZkSjq6-9" value="" style="shape=image;verticalLabelPosition=bottom;labelBackgroundColor=default;verticalAlign=top;aspect=fixed;imageAspect=0;image=https://www.getdbt.com/ui/img/blog/dbt-card.jpg;" vertex="1" parent="1">
          <mxGeometry x="520.2600000000001" y="30" width="200" height="112.5" as="geometry" />
        </mxCell>
        <mxCell id="wdAWqG1FVsQUKpZkSjq6-10" value="" style="shape=image;verticalLabelPosition=bottom;labelBackgroundColor=default;verticalAlign=top;aspect=fixed;imageAspect=0;image=https://upload.wikimedia.org/wikipedia/commons/thumb/c/cf/New_Power_BI_Logo.svg/630px-New_Power_BI_Logo.svg.png;" vertex="1" parent="1">
          <mxGeometry x="760" y="200" width="120" height="120" as="geometry" />
        </mxCell>
        <mxCell id="XB-GGh58G5ihhV7Ilf28-1" value="" style="edgeStyle=orthogonalEdgeStyle;rounded=0;orthogonalLoop=1;jettySize=auto;html=1;" edge="1" parent="1" source="wdAWqG1FVsQUKpZkSjq6-12" target="wdAWqG1FVsQUKpZkSjq6-1">
          <mxGeometry relative="1" as="geometry" />
        </mxCell>
        <mxCell id="wdAWqG1FVsQUKpZkSjq6-12" value="" style="sketch=0;outlineConnect=0;fontColor=#232F3E;gradientColor=none;fillColor=#2E27AD;strokeColor=none;dashed=0;verticalLabelPosition=bottom;verticalAlign=top;align=center;html=1;fontSize=12;fontStyle=0;aspect=fixed;pointerEvents=1;shape=mxgraph.aws4.rds_instance;" vertex="1" parent="1">
          <mxGeometry x="160" y="200" width="120" height="120" as="geometry" />
        </mxCell>
        <mxCell id="tR3rwMDGMJgNN5FDnddk-1" value="dim_products" style="shape=table;startSize=30;container=1;collapsible=1;childLayout=tableLayout;fixedRows=1;rowLines=0;fontStyle=1;align=center;resizeLast=1;html=1;" vertex="1" parent="1">
          <mxGeometry x="40" y="520" width="200" height="150" as="geometry" />
        </mxCell>
        <mxCell id="tR3rwMDGMJgNN5FDnddk-2" value="" style="shape=tableRow;horizontal=0;startSize=0;swimlaneHead=0;swimlaneBody=0;fillColor=none;collapsible=0;dropTarget=0;points=[[0,0.5],[1,0.5]];portConstraint=eastwest;top=0;left=0;right=0;bottom=1;" vertex="1" parent="tR3rwMDGMJgNN5FDnddk-1">
          <mxGeometry y="30" width="200" height="30" as="geometry" />
        </mxCell>
        <mxCell id="tR3rwMDGMJgNN5FDnddk-3" value="PK" style="shape=partialRectangle;connectable=0;fillColor=none;top=0;left=0;bottom=0;right=0;fontStyle=1;overflow=hidden;whiteSpace=wrap;html=1;" vertex="1" parent="tR3rwMDGMJgNN5FDnddk-2">
          <mxGeometry width="30" height="30" as="geometry">
            <mxRectangle width="30" height="30" as="alternateBounds" />
          </mxGeometry>
        </mxCell>
        <mxCell id="tR3rwMDGMJgNN5FDnddk-4" value="product_id" style="shape=partialRectangle;connectable=0;fillColor=none;top=0;left=0;bottom=0;right=0;align=left;spacingLeft=6;fontStyle=5;overflow=hidden;whiteSpace=wrap;html=1;" vertex="1" parent="tR3rwMDGMJgNN5FDnddk-2">
          <mxGeometry x="30" width="170" height="30" as="geometry">
            <mxRectangle width="170" height="30" as="alternateBounds" />
          </mxGeometry>
        </mxCell>
        <mxCell id="tR3rwMDGMJgNN5FDnddk-5" value="" style="shape=tableRow;horizontal=0;startSize=0;swimlaneHead=0;swimlaneBody=0;fillColor=none;collapsible=0;dropTarget=0;points=[[0,0.5],[1,0.5]];portConstraint=eastwest;top=0;left=0;right=0;bottom=0;" vertex="1" parent="tR3rwMDGMJgNN5FDnddk-1">
          <mxGeometry y="60" width="200" height="30" as="geometry" />
        </mxCell>
        <mxCell id="tR3rwMDGMJgNN5FDnddk-6" value="" style="shape=partialRectangle;connectable=0;fillColor=none;top=0;left=0;bottom=0;right=0;editable=1;overflow=hidden;whiteSpace=wrap;html=1;" vertex="1" parent="tR3rwMDGMJgNN5FDnddk-5">
          <mxGeometry width="30" height="30" as="geometry">
            <mxRectangle width="30" height="30" as="alternateBounds" />
          </mxGeometry>
        </mxCell>
        <mxCell id="tR3rwMDGMJgNN5FDnddk-7" value="product_name" style="shape=partialRectangle;connectable=0;fillColor=none;top=0;left=0;bottom=0;right=0;align=left;spacingLeft=6;overflow=hidden;whiteSpace=wrap;html=1;" vertex="1" parent="tR3rwMDGMJgNN5FDnddk-5">
          <mxGeometry x="30" width="170" height="30" as="geometry">
            <mxRectangle width="170" height="30" as="alternateBounds" />
          </mxGeometry>
        </mxCell>
        <mxCell id="tR3rwMDGMJgNN5FDnddk-8" value="" style="shape=tableRow;horizontal=0;startSize=0;swimlaneHead=0;swimlaneBody=0;fillColor=none;collapsible=0;dropTarget=0;points=[[0,0.5],[1,0.5]];portConstraint=eastwest;top=0;left=0;right=0;bottom=0;" vertex="1" parent="tR3rwMDGMJgNN5FDnddk-1">
          <mxGeometry y="90" width="200" height="30" as="geometry" />
        </mxCell>
        <mxCell id="tR3rwMDGMJgNN5FDnddk-9" value="" style="shape=partialRectangle;connectable=0;fillColor=none;top=0;left=0;bottom=0;right=0;editable=1;overflow=hidden;whiteSpace=wrap;html=1;" vertex="1" parent="tR3rwMDGMJgNN5FDnddk-8">
          <mxGeometry width="30" height="30" as="geometry">
            <mxRectangle width="30" height="30" as="alternateBounds" />
          </mxGeometry>
        </mxCell>
        <mxCell id="tR3rwMDGMJgNN5FDnddk-10" value="category_name" style="shape=partialRectangle;connectable=0;fillColor=none;top=0;left=0;bottom=0;right=0;align=left;spacingLeft=6;overflow=hidden;whiteSpace=wrap;html=1;" vertex="1" parent="tR3rwMDGMJgNN5FDnddk-8">
          <mxGeometry x="30" width="170" height="30" as="geometry">
            <mxRectangle width="170" height="30" as="alternateBounds" />
          </mxGeometry>
        </mxCell>
        <mxCell id="tR3rwMDGMJgNN5FDnddk-11" value="" style="shape=tableRow;horizontal=0;startSize=0;swimlaneHead=0;swimlaneBody=0;fillColor=none;collapsible=0;dropTarget=0;points=[[0,0.5],[1,0.5]];portConstraint=eastwest;top=0;left=0;right=0;bottom=0;" vertex="1" parent="tR3rwMDGMJgNN5FDnddk-1">
          <mxGeometry y="120" width="200" height="30" as="geometry" />
        </mxCell>
        <mxCell id="tR3rwMDGMJgNN5FDnddk-12" value="" style="shape=partialRectangle;connectable=0;fillColor=none;top=0;left=0;bottom=0;right=0;editable=1;overflow=hidden;whiteSpace=wrap;html=1;" vertex="1" parent="tR3rwMDGMJgNN5FDnddk-11">
          <mxGeometry width="30" height="30" as="geometry">
            <mxRectangle width="30" height="30" as="alternateBounds" />
          </mxGeometry>
        </mxCell>
        <mxCell id="tR3rwMDGMJgNN5FDnddk-13" value="supplier_name" style="shape=partialRectangle;connectable=0;fillColor=none;top=0;left=0;bottom=0;right=0;align=left;spacingLeft=6;overflow=hidden;whiteSpace=wrap;html=1;" vertex="1" parent="tR3rwMDGMJgNN5FDnddk-11">
          <mxGeometry x="30" width="170" height="30" as="geometry">
            <mxRectangle width="170" height="30" as="alternateBounds" />
          </mxGeometry>
        </mxCell>
        <mxCell id="tR3rwMDGMJgNN5FDnddk-23" value="dim_customers" style="shape=table;startSize=30;container=1;collapsible=1;childLayout=tableLayout;fixedRows=1;rowLines=0;fontStyle=1;align=center;resizeLast=1;html=1;" vertex="1" parent="1">
          <mxGeometry x="40" y="700" width="200" height="150" as="geometry" />
        </mxCell>
        <mxCell id="tR3rwMDGMJgNN5FDnddk-24" value="" style="shape=tableRow;horizontal=0;startSize=0;swimlaneHead=0;swimlaneBody=0;fillColor=none;collapsible=0;dropTarget=0;points=[[0,0.5],[1,0.5]];portConstraint=eastwest;top=0;left=0;right=0;bottom=1;" vertex="1" parent="tR3rwMDGMJgNN5FDnddk-23">
          <mxGeometry y="30" width="200" height="30" as="geometry" />
        </mxCell>
        <mxCell id="tR3rwMDGMJgNN5FDnddk-25" value="PK" style="shape=partialRectangle;connectable=0;fillColor=none;top=0;left=0;bottom=0;right=0;fontStyle=1;overflow=hidden;whiteSpace=wrap;html=1;" vertex="1" parent="tR3rwMDGMJgNN5FDnddk-24">
          <mxGeometry width="30" height="30" as="geometry">
            <mxRectangle width="30" height="30" as="alternateBounds" />
          </mxGeometry>
        </mxCell>
        <mxCell id="tR3rwMDGMJgNN5FDnddk-26" value="customer_id" style="shape=partialRectangle;connectable=0;fillColor=none;top=0;left=0;bottom=0;right=0;align=left;spacingLeft=6;fontStyle=5;overflow=hidden;whiteSpace=wrap;html=1;" vertex="1" parent="tR3rwMDGMJgNN5FDnddk-24">
          <mxGeometry x="30" width="170" height="30" as="geometry">
            <mxRectangle width="170" height="30" as="alternateBounds" />
          </mxGeometry>
        </mxCell>
        <mxCell id="tR3rwMDGMJgNN5FDnddk-27" value="" style="shape=tableRow;horizontal=0;startSize=0;swimlaneHead=0;swimlaneBody=0;fillColor=none;collapsible=0;dropTarget=0;points=[[0,0.5],[1,0.5]];portConstraint=eastwest;top=0;left=0;right=0;bottom=0;" vertex="1" parent="tR3rwMDGMJgNN5FDnddk-23">
          <mxGeometry y="60" width="200" height="30" as="geometry" />
        </mxCell>
        <mxCell id="tR3rwMDGMJgNN5FDnddk-28" value="" style="shape=partialRectangle;connectable=0;fillColor=none;top=0;left=0;bottom=0;right=0;editable=1;overflow=hidden;whiteSpace=wrap;html=1;" vertex="1" parent="tR3rwMDGMJgNN5FDnddk-27">
          <mxGeometry width="30" height="30" as="geometry">
            <mxRectangle width="30" height="30" as="alternateBounds" />
          </mxGeometry>
        </mxCell>
        <mxCell id="tR3rwMDGMJgNN5FDnddk-29" value="company_name" style="shape=partialRectangle;connectable=0;fillColor=none;top=0;left=0;bottom=0;right=0;align=left;spacingLeft=6;overflow=hidden;whiteSpace=wrap;html=1;" vertex="1" parent="tR3rwMDGMJgNN5FDnddk-27">
          <mxGeometry x="30" width="170" height="30" as="geometry">
            <mxRectangle width="170" height="30" as="alternateBounds" />
          </mxGeometry>
        </mxCell>
        <mxCell id="tR3rwMDGMJgNN5FDnddk-30" value="" style="shape=tableRow;horizontal=0;startSize=0;swimlaneHead=0;swimlaneBody=0;fillColor=none;collapsible=0;dropTarget=0;points=[[0,0.5],[1,0.5]];portConstraint=eastwest;top=0;left=0;right=0;bottom=0;" vertex="1" parent="tR3rwMDGMJgNN5FDnddk-23">
          <mxGeometry y="90" width="200" height="30" as="geometry" />
        </mxCell>
        <mxCell id="tR3rwMDGMJgNN5FDnddk-31" value="" style="shape=partialRectangle;connectable=0;fillColor=none;top=0;left=0;bottom=0;right=0;editable=1;overflow=hidden;whiteSpace=wrap;html=1;" vertex="1" parent="tR3rwMDGMJgNN5FDnddk-30">
          <mxGeometry width="30" height="30" as="geometry">
            <mxRectangle width="30" height="30" as="alternateBounds" />
          </mxGeometry>
        </mxCell>
        <mxCell id="tR3rwMDGMJgNN5FDnddk-32" value="city" style="shape=partialRectangle;connectable=0;fillColor=none;top=0;left=0;bottom=0;right=0;align=left;spacingLeft=6;overflow=hidden;whiteSpace=wrap;html=1;" vertex="1" parent="tR3rwMDGMJgNN5FDnddk-30">
          <mxGeometry x="30" width="170" height="30" as="geometry">
            <mxRectangle width="170" height="30" as="alternateBounds" />
          </mxGeometry>
        </mxCell>
        <mxCell id="tR3rwMDGMJgNN5FDnddk-33" value="" style="shape=tableRow;horizontal=0;startSize=0;swimlaneHead=0;swimlaneBody=0;fillColor=none;collapsible=0;dropTarget=0;points=[[0,0.5],[1,0.5]];portConstraint=eastwest;top=0;left=0;right=0;bottom=0;" vertex="1" parent="tR3rwMDGMJgNN5FDnddk-23">
          <mxGeometry y="120" width="200" height="30" as="geometry" />
        </mxCell>
        <mxCell id="tR3rwMDGMJgNN5FDnddk-34" value="" style="shape=partialRectangle;connectable=0;fillColor=none;top=0;left=0;bottom=0;right=0;editable=1;overflow=hidden;whiteSpace=wrap;html=1;" vertex="1" parent="tR3rwMDGMJgNN5FDnddk-33">
          <mxGeometry width="30" height="30" as="geometry">
            <mxRectangle width="30" height="30" as="alternateBounds" />
          </mxGeometry>
        </mxCell>
        <mxCell id="tR3rwMDGMJgNN5FDnddk-35" value="country" style="shape=partialRectangle;connectable=0;fillColor=none;top=0;left=0;bottom=0;right=0;align=left;spacingLeft=6;overflow=hidden;whiteSpace=wrap;html=1;" vertex="1" parent="tR3rwMDGMJgNN5FDnddk-33">
          <mxGeometry x="30" width="170" height="30" as="geometry">
            <mxRectangle width="170" height="30" as="alternateBounds" />
          </mxGeometry>
        </mxCell>
        <mxCell id="tR3rwMDGMJgNN5FDnddk-36" value="dim_employees" style="shape=table;startSize=30;container=1;collapsible=1;childLayout=tableLayout;fixedRows=1;rowLines=0;fontStyle=1;align=center;resizeLast=1;html=1;" vertex="1" parent="1">
          <mxGeometry x="667" y="495" width="203" height="90" as="geometry" />
        </mxCell>
        <mxCell id="tR3rwMDGMJgNN5FDnddk-37" value="" style="shape=tableRow;horizontal=0;startSize=0;swimlaneHead=0;swimlaneBody=0;fillColor=none;collapsible=0;dropTarget=0;points=[[0,0.5],[1,0.5]];portConstraint=eastwest;top=0;left=0;right=0;bottom=1;" vertex="1" parent="tR3rwMDGMJgNN5FDnddk-36">
          <mxGeometry y="30" width="203" height="30" as="geometry" />
        </mxCell>
        <mxCell id="tR3rwMDGMJgNN5FDnddk-38" value="PK" style="shape=partialRectangle;connectable=0;fillColor=none;top=0;left=0;bottom=0;right=0;fontStyle=1;overflow=hidden;whiteSpace=wrap;html=1;" vertex="1" parent="tR3rwMDGMJgNN5FDnddk-37">
          <mxGeometry width="30" height="30" as="geometry">
            <mxRectangle width="30" height="30" as="alternateBounds" />
          </mxGeometry>
        </mxCell>
        <mxCell id="tR3rwMDGMJgNN5FDnddk-39" value="employee_id" style="shape=partialRectangle;connectable=0;fillColor=none;top=0;left=0;bottom=0;right=0;align=left;spacingLeft=6;fontStyle=5;overflow=hidden;whiteSpace=wrap;html=1;" vertex="1" parent="tR3rwMDGMJgNN5FDnddk-37">
          <mxGeometry x="30" width="173" height="30" as="geometry">
            <mxRectangle width="173" height="30" as="alternateBounds" />
          </mxGeometry>
        </mxCell>
        <mxCell id="tR3rwMDGMJgNN5FDnddk-40" value="" style="shape=tableRow;horizontal=0;startSize=0;swimlaneHead=0;swimlaneBody=0;fillColor=none;collapsible=0;dropTarget=0;points=[[0,0.5],[1,0.5]];portConstraint=eastwest;top=0;left=0;right=0;bottom=0;" vertex="1" parent="tR3rwMDGMJgNN5FDnddk-36">
          <mxGeometry y="60" width="203" height="30" as="geometry" />
        </mxCell>
        <mxCell id="tR3rwMDGMJgNN5FDnddk-41" value="" style="shape=partialRectangle;connectable=0;fillColor=none;top=0;left=0;bottom=0;right=0;editable=1;overflow=hidden;whiteSpace=wrap;html=1;" vertex="1" parent="tR3rwMDGMJgNN5FDnddk-40">
          <mxGeometry width="30" height="30" as="geometry">
            <mxRectangle width="30" height="30" as="alternateBounds" />
          </mxGeometry>
        </mxCell>
        <mxCell id="tR3rwMDGMJgNN5FDnddk-42" value="full_name" style="shape=partialRectangle;connectable=0;fillColor=none;top=0;left=0;bottom=0;right=0;align=left;spacingLeft=6;overflow=hidden;whiteSpace=wrap;html=1;" vertex="1" parent="tR3rwMDGMJgNN5FDnddk-40">
          <mxGeometry x="30" width="173" height="30" as="geometry">
            <mxRectangle width="173" height="30" as="alternateBounds" />
          </mxGeometry>
        </mxCell>
        <mxCell id="tR3rwMDGMJgNN5FDnddk-49" value="dim_dates" style="shape=table;startSize=30;container=1;collapsible=1;childLayout=tableLayout;fixedRows=1;rowLines=0;fontStyle=1;align=center;resizeLast=1;html=1;" vertex="1" parent="1">
          <mxGeometry x="667" y="610" width="203" height="300" as="geometry" />
        </mxCell>
        <mxCell id="tR3rwMDGMJgNN5FDnddk-50" value="" style="shape=tableRow;horizontal=0;startSize=0;swimlaneHead=0;swimlaneBody=0;fillColor=none;collapsible=0;dropTarget=0;points=[[0,0.5],[1,0.5]];portConstraint=eastwest;top=0;left=0;right=0;bottom=1;" vertex="1" parent="tR3rwMDGMJgNN5FDnddk-49">
          <mxGeometry y="30" width="203" height="30" as="geometry" />
        </mxCell>
        <mxCell id="tR3rwMDGMJgNN5FDnddk-51" value="PK" style="shape=partialRectangle;connectable=0;fillColor=none;top=0;left=0;bottom=0;right=0;fontStyle=1;overflow=hidden;whiteSpace=wrap;html=1;" vertex="1" parent="tR3rwMDGMJgNN5FDnddk-50">
          <mxGeometry width="30" height="30" as="geometry">
            <mxRectangle width="30" height="30" as="alternateBounds" />
          </mxGeometry>
        </mxCell>
        <mxCell id="tR3rwMDGMJgNN5FDnddk-52" value="date_id" style="shape=partialRectangle;connectable=0;fillColor=none;top=0;left=0;bottom=0;right=0;align=left;spacingLeft=6;fontStyle=5;overflow=hidden;whiteSpace=wrap;html=1;" vertex="1" parent="tR3rwMDGMJgNN5FDnddk-50">
          <mxGeometry x="30" width="173" height="30" as="geometry">
            <mxRectangle width="173" height="30" as="alternateBounds" />
          </mxGeometry>
        </mxCell>
        <mxCell id="tR3rwMDGMJgNN5FDnddk-53" value="" style="shape=tableRow;horizontal=0;startSize=0;swimlaneHead=0;swimlaneBody=0;fillColor=none;collapsible=0;dropTarget=0;points=[[0,0.5],[1,0.5]];portConstraint=eastwest;top=0;left=0;right=0;bottom=0;" vertex="1" parent="tR3rwMDGMJgNN5FDnddk-49">
          <mxGeometry y="60" width="203" height="30" as="geometry" />
        </mxCell>
        <mxCell id="tR3rwMDGMJgNN5FDnddk-54" value="" style="shape=partialRectangle;connectable=0;fillColor=none;top=0;left=0;bottom=0;right=0;editable=1;overflow=hidden;whiteSpace=wrap;html=1;" vertex="1" parent="tR3rwMDGMJgNN5FDnddk-53">
          <mxGeometry width="30" height="30" as="geometry">
            <mxRectangle width="30" height="30" as="alternateBounds" />
          </mxGeometry>
        </mxCell>
        <mxCell id="tR3rwMDGMJgNN5FDnddk-55" value="date" style="shape=partialRectangle;connectable=0;fillColor=none;top=0;left=0;bottom=0;right=0;align=left;spacingLeft=6;overflow=hidden;whiteSpace=wrap;html=1;" vertex="1" parent="tR3rwMDGMJgNN5FDnddk-53">
          <mxGeometry x="30" width="173" height="30" as="geometry">
            <mxRectangle width="173" height="30" as="alternateBounds" />
          </mxGeometry>
        </mxCell>
        <mxCell id="tR3rwMDGMJgNN5FDnddk-56" value="" style="shape=tableRow;horizontal=0;startSize=0;swimlaneHead=0;swimlaneBody=0;fillColor=none;collapsible=0;dropTarget=0;points=[[0,0.5],[1,0.5]];portConstraint=eastwest;top=0;left=0;right=0;bottom=0;" vertex="1" parent="tR3rwMDGMJgNN5FDnddk-49">
          <mxGeometry y="90" width="203" height="30" as="geometry" />
        </mxCell>
        <mxCell id="tR3rwMDGMJgNN5FDnddk-57" value="" style="shape=partialRectangle;connectable=0;fillColor=none;top=0;left=0;bottom=0;right=0;editable=1;overflow=hidden;" vertex="1" parent="tR3rwMDGMJgNN5FDnddk-56">
          <mxGeometry width="30" height="30" as="geometry">
            <mxRectangle width="30" height="30" as="alternateBounds" />
          </mxGeometry>
        </mxCell>
        <mxCell id="tR3rwMDGMJgNN5FDnddk-58" value="day_of_week" style="shape=partialRectangle;connectable=0;fillColor=none;top=0;left=0;bottom=0;right=0;align=left;spacingLeft=6;overflow=hidden;" vertex="1" parent="tR3rwMDGMJgNN5FDnddk-56">
          <mxGeometry x="30" width="173" height="30" as="geometry">
            <mxRectangle width="173" height="30" as="alternateBounds" />
          </mxGeometry>
        </mxCell>
        <mxCell id="tR3rwMDGMJgNN5FDnddk-62" value="" style="shape=tableRow;horizontal=0;startSize=0;swimlaneHead=0;swimlaneBody=0;fillColor=none;collapsible=0;dropTarget=0;points=[[0,0.5],[1,0.5]];portConstraint=eastwest;top=0;left=0;right=0;bottom=0;" vertex="1" parent="tR3rwMDGMJgNN5FDnddk-49">
          <mxGeometry y="120" width="203" height="30" as="geometry" />
        </mxCell>
        <mxCell id="tR3rwMDGMJgNN5FDnddk-63" value="" style="shape=partialRectangle;connectable=0;fillColor=none;top=0;left=0;bottom=0;right=0;editable=1;overflow=hidden;" vertex="1" parent="tR3rwMDGMJgNN5FDnddk-62">
          <mxGeometry width="30" height="30" as="geometry">
            <mxRectangle width="30" height="30" as="alternateBounds" />
          </mxGeometry>
        </mxCell>
        <mxCell id="tR3rwMDGMJgNN5FDnddk-64" value="month" style="shape=partialRectangle;connectable=0;fillColor=none;top=0;left=0;bottom=0;right=0;align=left;spacingLeft=6;overflow=hidden;" vertex="1" parent="tR3rwMDGMJgNN5FDnddk-62">
          <mxGeometry x="30" width="173" height="30" as="geometry">
            <mxRectangle width="173" height="30" as="alternateBounds" />
          </mxGeometry>
        </mxCell>
        <mxCell id="tR3rwMDGMJgNN5FDnddk-59" value="" style="shape=tableRow;horizontal=0;startSize=0;swimlaneHead=0;swimlaneBody=0;fillColor=none;collapsible=0;dropTarget=0;points=[[0,0.5],[1,0.5]];portConstraint=eastwest;top=0;left=0;right=0;bottom=0;" vertex="1" parent="tR3rwMDGMJgNN5FDnddk-49">
          <mxGeometry y="150" width="203" height="30" as="geometry" />
        </mxCell>
        <mxCell id="tR3rwMDGMJgNN5FDnddk-60" value="" style="shape=partialRectangle;connectable=0;fillColor=none;top=0;left=0;bottom=0;right=0;editable=1;overflow=hidden;" vertex="1" parent="tR3rwMDGMJgNN5FDnddk-59">
          <mxGeometry width="30" height="30" as="geometry">
            <mxRectangle width="30" height="30" as="alternateBounds" />
          </mxGeometry>
        </mxCell>
        <mxCell id="tR3rwMDGMJgNN5FDnddk-61" value="month_name" style="shape=partialRectangle;connectable=0;fillColor=none;top=0;left=0;bottom=0;right=0;align=left;spacingLeft=6;overflow=hidden;" vertex="1" parent="tR3rwMDGMJgNN5FDnddk-59">
          <mxGeometry x="30" width="173" height="30" as="geometry">
            <mxRectangle width="173" height="30" as="alternateBounds" />
          </mxGeometry>
        </mxCell>
        <mxCell id="tR3rwMDGMJgNN5FDnddk-65" value="" style="shape=tableRow;horizontal=0;startSize=0;swimlaneHead=0;swimlaneBody=0;fillColor=none;collapsible=0;dropTarget=0;points=[[0,0.5],[1,0.5]];portConstraint=eastwest;top=0;left=0;right=0;bottom=0;" vertex="1" parent="tR3rwMDGMJgNN5FDnddk-49">
          <mxGeometry y="180" width="203" height="30" as="geometry" />
        </mxCell>
        <mxCell id="tR3rwMDGMJgNN5FDnddk-66" value="" style="shape=partialRectangle;connectable=0;fillColor=none;top=0;left=0;bottom=0;right=0;editable=1;overflow=hidden;" vertex="1" parent="tR3rwMDGMJgNN5FDnddk-65">
          <mxGeometry width="30" height="30" as="geometry">
            <mxRectangle width="30" height="30" as="alternateBounds" />
          </mxGeometry>
        </mxCell>
        <mxCell id="tR3rwMDGMJgNN5FDnddk-67" value="trimester" style="shape=partialRectangle;connectable=0;fillColor=none;top=0;left=0;bottom=0;right=0;align=left;spacingLeft=6;overflow=hidden;" vertex="1" parent="tR3rwMDGMJgNN5FDnddk-65">
          <mxGeometry x="30" width="173" height="30" as="geometry">
            <mxRectangle width="173" height="30" as="alternateBounds" />
          </mxGeometry>
        </mxCell>
        <mxCell id="tR3rwMDGMJgNN5FDnddk-68" value="" style="shape=tableRow;horizontal=0;startSize=0;swimlaneHead=0;swimlaneBody=0;fillColor=none;collapsible=0;dropTarget=0;points=[[0,0.5],[1,0.5]];portConstraint=eastwest;top=0;left=0;right=0;bottom=0;" vertex="1" parent="tR3rwMDGMJgNN5FDnddk-49">
          <mxGeometry y="210" width="203" height="30" as="geometry" />
        </mxCell>
        <mxCell id="tR3rwMDGMJgNN5FDnddk-69" value="" style="shape=partialRectangle;connectable=0;fillColor=none;top=0;left=0;bottom=0;right=0;editable=1;overflow=hidden;" vertex="1" parent="tR3rwMDGMJgNN5FDnddk-68">
          <mxGeometry width="30" height="30" as="geometry">
            <mxRectangle width="30" height="30" as="alternateBounds" />
          </mxGeometry>
        </mxCell>
        <mxCell id="tR3rwMDGMJgNN5FDnddk-70" value="quarter" style="shape=partialRectangle;connectable=0;fillColor=none;top=0;left=0;bottom=0;right=0;align=left;spacingLeft=6;overflow=hidden;" vertex="1" parent="tR3rwMDGMJgNN5FDnddk-68">
          <mxGeometry x="30" width="173" height="30" as="geometry">
            <mxRectangle width="173" height="30" as="alternateBounds" />
          </mxGeometry>
        </mxCell>
        <mxCell id="tR3rwMDGMJgNN5FDnddk-71" value="" style="shape=tableRow;horizontal=0;startSize=0;swimlaneHead=0;swimlaneBody=0;fillColor=none;collapsible=0;dropTarget=0;points=[[0,0.5],[1,0.5]];portConstraint=eastwest;top=0;left=0;right=0;bottom=0;" vertex="1" parent="tR3rwMDGMJgNN5FDnddk-49">
          <mxGeometry y="240" width="203" height="30" as="geometry" />
        </mxCell>
        <mxCell id="tR3rwMDGMJgNN5FDnddk-72" value="" style="shape=partialRectangle;connectable=0;fillColor=none;top=0;left=0;bottom=0;right=0;editable=1;overflow=hidden;" vertex="1" parent="tR3rwMDGMJgNN5FDnddk-71">
          <mxGeometry width="30" height="30" as="geometry">
            <mxRectangle width="30" height="30" as="alternateBounds" />
          </mxGeometry>
        </mxCell>
        <mxCell id="tR3rwMDGMJgNN5FDnddk-73" value="semester" style="shape=partialRectangle;connectable=0;fillColor=none;top=0;left=0;bottom=0;right=0;align=left;spacingLeft=6;overflow=hidden;" vertex="1" parent="tR3rwMDGMJgNN5FDnddk-71">
          <mxGeometry x="30" width="173" height="30" as="geometry">
            <mxRectangle width="173" height="30" as="alternateBounds" />
          </mxGeometry>
        </mxCell>
        <mxCell id="tR3rwMDGMJgNN5FDnddk-74" value="" style="shape=tableRow;horizontal=0;startSize=0;swimlaneHead=0;swimlaneBody=0;fillColor=none;collapsible=0;dropTarget=0;points=[[0,0.5],[1,0.5]];portConstraint=eastwest;top=0;left=0;right=0;bottom=0;" vertex="1" parent="tR3rwMDGMJgNN5FDnddk-49">
          <mxGeometry y="270" width="203" height="30" as="geometry" />
        </mxCell>
        <mxCell id="tR3rwMDGMJgNN5FDnddk-75" value="" style="shape=partialRectangle;connectable=0;fillColor=none;top=0;left=0;bottom=0;right=0;editable=1;overflow=hidden;" vertex="1" parent="tR3rwMDGMJgNN5FDnddk-74">
          <mxGeometry width="30" height="30" as="geometry">
            <mxRectangle width="30" height="30" as="alternateBounds" />
          </mxGeometry>
        </mxCell>
        <mxCell id="tR3rwMDGMJgNN5FDnddk-76" value="year" style="shape=partialRectangle;connectable=0;fillColor=none;top=0;left=0;bottom=0;right=0;align=left;spacingLeft=6;overflow=hidden;" vertex="1" parent="tR3rwMDGMJgNN5FDnddk-74">
          <mxGeometry x="30" width="173" height="30" as="geometry">
            <mxRectangle width="173" height="30" as="alternateBounds" />
          </mxGeometry>
        </mxCell>
        <mxCell id="tR3rwMDGMJgNN5FDnddk-77" value="dim_shippers" style="shape=table;startSize=30;container=1;collapsible=1;childLayout=tableLayout;fixedRows=1;rowLines=0;fontStyle=1;align=center;resizeLast=1;html=1;" vertex="1" parent="1">
          <mxGeometry x="40" y="880" width="200" height="90" as="geometry" />
        </mxCell>
        <mxCell id="tR3rwMDGMJgNN5FDnddk-78" value="" style="shape=tableRow;horizontal=0;startSize=0;swimlaneHead=0;swimlaneBody=0;fillColor=none;collapsible=0;dropTarget=0;points=[[0,0.5],[1,0.5]];portConstraint=eastwest;top=0;left=0;right=0;bottom=1;" vertex="1" parent="tR3rwMDGMJgNN5FDnddk-77">
          <mxGeometry y="30" width="200" height="30" as="geometry" />
        </mxCell>
        <mxCell id="tR3rwMDGMJgNN5FDnddk-79" value="PK" style="shape=partialRectangle;connectable=0;fillColor=none;top=0;left=0;bottom=0;right=0;fontStyle=1;overflow=hidden;whiteSpace=wrap;html=1;" vertex="1" parent="tR3rwMDGMJgNN5FDnddk-78">
          <mxGeometry width="30" height="30" as="geometry">
            <mxRectangle width="30" height="30" as="alternateBounds" />
          </mxGeometry>
        </mxCell>
        <mxCell id="tR3rwMDGMJgNN5FDnddk-80" value="shipper_id" style="shape=partialRectangle;connectable=0;fillColor=none;top=0;left=0;bottom=0;right=0;align=left;spacingLeft=6;fontStyle=5;overflow=hidden;whiteSpace=wrap;html=1;" vertex="1" parent="tR3rwMDGMJgNN5FDnddk-78">
          <mxGeometry x="30" width="170" height="30" as="geometry">
            <mxRectangle width="170" height="30" as="alternateBounds" />
          </mxGeometry>
        </mxCell>
        <mxCell id="tR3rwMDGMJgNN5FDnddk-81" value="" style="shape=tableRow;horizontal=0;startSize=0;swimlaneHead=0;swimlaneBody=0;fillColor=none;collapsible=0;dropTarget=0;points=[[0,0.5],[1,0.5]];portConstraint=eastwest;top=0;left=0;right=0;bottom=0;" vertex="1" parent="tR3rwMDGMJgNN5FDnddk-77">
          <mxGeometry y="60" width="200" height="30" as="geometry" />
        </mxCell>
        <mxCell id="tR3rwMDGMJgNN5FDnddk-82" value="" style="shape=partialRectangle;connectable=0;fillColor=none;top=0;left=0;bottom=0;right=0;editable=1;overflow=hidden;whiteSpace=wrap;html=1;" vertex="1" parent="tR3rwMDGMJgNN5FDnddk-81">
          <mxGeometry width="30" height="30" as="geometry">
            <mxRectangle width="30" height="30" as="alternateBounds" />
          </mxGeometry>
        </mxCell>
        <mxCell id="tR3rwMDGMJgNN5FDnddk-83" value="company_name" style="shape=partialRectangle;connectable=0;fillColor=none;top=0;left=0;bottom=0;right=0;align=left;spacingLeft=6;overflow=hidden;whiteSpace=wrap;html=1;" vertex="1" parent="tR3rwMDGMJgNN5FDnddk-81">
          <mxGeometry x="30" width="170" height="30" as="geometry">
            <mxRectangle width="170" height="30" as="alternateBounds" />
          </mxGeometry>
        </mxCell>
        <mxCell id="tR3rwMDGMJgNN5FDnddk-84" value="dim_shipping_geographics" style="shape=table;startSize=30;container=1;collapsible=1;childLayout=tableLayout;fixedRows=1;rowLines=0;fontStyle=1;align=center;resizeLast=1;html=1;" vertex="1" parent="1">
          <mxGeometry x="667" y="930" width="203" height="180" as="geometry" />
        </mxCell>
        <mxCell id="tR3rwMDGMJgNN5FDnddk-85" value="" style="shape=tableRow;horizontal=0;startSize=0;swimlaneHead=0;swimlaneBody=0;fillColor=none;collapsible=0;dropTarget=0;points=[[0,0.5],[1,0.5]];portConstraint=eastwest;top=0;left=0;right=0;bottom=1;" vertex="1" parent="tR3rwMDGMJgNN5FDnddk-84">
          <mxGeometry y="30" width="203" height="30" as="geometry" />
        </mxCell>
        <mxCell id="tR3rwMDGMJgNN5FDnddk-86" value="PK" style="shape=partialRectangle;connectable=0;fillColor=none;top=0;left=0;bottom=0;right=0;fontStyle=1;overflow=hidden;whiteSpace=wrap;html=1;" vertex="1" parent="tR3rwMDGMJgNN5FDnddk-85">
          <mxGeometry width="30" height="30" as="geometry">
            <mxRectangle width="30" height="30" as="alternateBounds" />
          </mxGeometry>
        </mxCell>
        <mxCell id="tR3rwMDGMJgNN5FDnddk-87" value="shipping_geographics_id" style="shape=partialRectangle;connectable=0;fillColor=none;top=0;left=0;bottom=0;right=0;align=left;spacingLeft=6;fontStyle=5;overflow=hidden;whiteSpace=wrap;html=1;" vertex="1" parent="tR3rwMDGMJgNN5FDnddk-85">
          <mxGeometry x="30" width="173" height="30" as="geometry">
            <mxRectangle width="173" height="30" as="alternateBounds" />
          </mxGeometry>
        </mxCell>
        <mxCell id="tR3rwMDGMJgNN5FDnddk-155" value="" style="shape=tableRow;horizontal=0;startSize=0;swimlaneHead=0;swimlaneBody=0;fillColor=none;collapsible=0;dropTarget=0;points=[[0,0.5],[1,0.5]];portConstraint=eastwest;top=0;left=0;right=0;bottom=0;" vertex="1" parent="tR3rwMDGMJgNN5FDnddk-84">
          <mxGeometry y="60" width="203" height="30" as="geometry" />
        </mxCell>
        <mxCell id="tR3rwMDGMJgNN5FDnddk-156" value="" style="shape=partialRectangle;connectable=0;fillColor=none;top=0;left=0;bottom=0;right=0;editable=1;overflow=hidden;" vertex="1" parent="tR3rwMDGMJgNN5FDnddk-155">
          <mxGeometry width="30" height="30" as="geometry">
            <mxRectangle width="30" height="30" as="alternateBounds" />
          </mxGeometry>
        </mxCell>
        <mxCell id="tR3rwMDGMJgNN5FDnddk-157" value="postal_code" style="shape=partialRectangle;connectable=0;fillColor=none;top=0;left=0;bottom=0;right=0;align=left;spacingLeft=6;overflow=hidden;" vertex="1" parent="tR3rwMDGMJgNN5FDnddk-155">
          <mxGeometry x="30" width="173" height="30" as="geometry">
            <mxRectangle width="173" height="30" as="alternateBounds" />
          </mxGeometry>
        </mxCell>
        <mxCell id="tR3rwMDGMJgNN5FDnddk-94" value="" style="shape=tableRow;horizontal=0;startSize=0;swimlaneHead=0;swimlaneBody=0;fillColor=none;collapsible=0;dropTarget=0;points=[[0,0.5],[1,0.5]];portConstraint=eastwest;top=0;left=0;right=0;bottom=0;" vertex="1" parent="tR3rwMDGMJgNN5FDnddk-84">
          <mxGeometry y="90" width="203" height="30" as="geometry" />
        </mxCell>
        <mxCell id="tR3rwMDGMJgNN5FDnddk-95" value="" style="shape=partialRectangle;connectable=0;fillColor=none;top=0;left=0;bottom=0;right=0;editable=1;overflow=hidden;" vertex="1" parent="tR3rwMDGMJgNN5FDnddk-94">
          <mxGeometry width="30" height="30" as="geometry">
            <mxRectangle width="30" height="30" as="alternateBounds" />
          </mxGeometry>
        </mxCell>
        <mxCell id="tR3rwMDGMJgNN5FDnddk-96" value="location" style="shape=partialRectangle;connectable=0;fillColor=none;top=0;left=0;bottom=0;right=0;align=left;spacingLeft=6;overflow=hidden;" vertex="1" parent="tR3rwMDGMJgNN5FDnddk-94">
          <mxGeometry x="30" width="173" height="30" as="geometry">
            <mxRectangle width="173" height="30" as="alternateBounds" />
          </mxGeometry>
        </mxCell>
        <mxCell id="tR3rwMDGMJgNN5FDnddk-88" value="" style="shape=tableRow;horizontal=0;startSize=0;swimlaneHead=0;swimlaneBody=0;fillColor=none;collapsible=0;dropTarget=0;points=[[0,0.5],[1,0.5]];portConstraint=eastwest;top=0;left=0;right=0;bottom=0;" vertex="1" parent="tR3rwMDGMJgNN5FDnddk-84">
          <mxGeometry y="120" width="203" height="30" as="geometry" />
        </mxCell>
        <mxCell id="tR3rwMDGMJgNN5FDnddk-89" value="" style="shape=partialRectangle;connectable=0;fillColor=none;top=0;left=0;bottom=0;right=0;editable=1;overflow=hidden;whiteSpace=wrap;html=1;" vertex="1" parent="tR3rwMDGMJgNN5FDnddk-88">
          <mxGeometry width="30" height="30" as="geometry">
            <mxRectangle width="30" height="30" as="alternateBounds" />
          </mxGeometry>
        </mxCell>
        <mxCell id="tR3rwMDGMJgNN5FDnddk-90" value="city" style="shape=partialRectangle;connectable=0;fillColor=none;top=0;left=0;bottom=0;right=0;align=left;spacingLeft=6;overflow=hidden;whiteSpace=wrap;html=1;" vertex="1" parent="tR3rwMDGMJgNN5FDnddk-88">
          <mxGeometry x="30" width="173" height="30" as="geometry">
            <mxRectangle width="173" height="30" as="alternateBounds" />
          </mxGeometry>
        </mxCell>
        <mxCell id="tR3rwMDGMJgNN5FDnddk-91" value="" style="shape=tableRow;horizontal=0;startSize=0;swimlaneHead=0;swimlaneBody=0;fillColor=none;collapsible=0;dropTarget=0;points=[[0,0.5],[1,0.5]];portConstraint=eastwest;top=0;left=0;right=0;bottom=0;" vertex="1" parent="tR3rwMDGMJgNN5FDnddk-84">
          <mxGeometry y="150" width="203" height="30" as="geometry" />
        </mxCell>
        <mxCell id="tR3rwMDGMJgNN5FDnddk-92" value="" style="shape=partialRectangle;connectable=0;fillColor=none;top=0;left=0;bottom=0;right=0;editable=1;overflow=hidden;" vertex="1" parent="tR3rwMDGMJgNN5FDnddk-91">
          <mxGeometry width="30" height="30" as="geometry">
            <mxRectangle width="30" height="30" as="alternateBounds" />
          </mxGeometry>
        </mxCell>
        <mxCell id="tR3rwMDGMJgNN5FDnddk-93" value="country" style="shape=partialRectangle;connectable=0;fillColor=none;top=0;left=0;bottom=0;right=0;align=left;spacingLeft=6;overflow=hidden;" vertex="1" parent="tR3rwMDGMJgNN5FDnddk-91">
          <mxGeometry x="30" width="173" height="30" as="geometry">
            <mxRectangle width="173" height="30" as="alternateBounds" />
          </mxGeometry>
        </mxCell>
        <mxCell id="tR3rwMDGMJgNN5FDnddk-97" value="fct_sales" style="shape=table;startSize=30;container=1;collapsible=1;childLayout=tableLayout;fixedRows=1;rowLines=0;fontStyle=1;align=center;resizeLast=1;html=1;" vertex="1" parent="1">
          <mxGeometry x="360" y="610" width="200" height="360" as="geometry" />
        </mxCell>
        <mxCell id="tR3rwMDGMJgNN5FDnddk-110" value="" style="shape=tableRow;horizontal=0;startSize=0;swimlaneHead=0;swimlaneBody=0;fillColor=none;collapsible=0;dropTarget=0;points=[[0,0.5],[1,0.5]];portConstraint=eastwest;top=0;left=0;right=0;bottom=0;" vertex="1" parent="tR3rwMDGMJgNN5FDnddk-97">
          <mxGeometry y="30" width="200" height="30" as="geometry" />
        </mxCell>
        <mxCell id="tR3rwMDGMJgNN5FDnddk-111" value="FK" style="shape=partialRectangle;connectable=0;fillColor=none;top=0;left=0;bottom=0;right=0;fontStyle=0;overflow=hidden;whiteSpace=wrap;html=1;" vertex="1" parent="tR3rwMDGMJgNN5FDnddk-110">
          <mxGeometry width="30" height="30" as="geometry">
            <mxRectangle width="30" height="30" as="alternateBounds" />
          </mxGeometry>
        </mxCell>
        <mxCell id="tR3rwMDGMJgNN5FDnddk-112" value="product_id" style="shape=partialRectangle;connectable=0;fillColor=none;top=0;left=0;bottom=0;right=0;align=left;spacingLeft=6;fontStyle=0;overflow=hidden;whiteSpace=wrap;html=1;" vertex="1" parent="tR3rwMDGMJgNN5FDnddk-110">
          <mxGeometry x="30" width="170" height="30" as="geometry">
            <mxRectangle width="170" height="30" as="alternateBounds" />
          </mxGeometry>
        </mxCell>
        <mxCell id="tR3rwMDGMJgNN5FDnddk-113" value="" style="shape=tableRow;horizontal=0;startSize=0;swimlaneHead=0;swimlaneBody=0;fillColor=none;collapsible=0;dropTarget=0;points=[[0,0.5],[1,0.5]];portConstraint=eastwest;top=0;left=0;right=0;bottom=0;" vertex="1" parent="tR3rwMDGMJgNN5FDnddk-97">
          <mxGeometry y="60" width="200" height="30" as="geometry" />
        </mxCell>
        <mxCell id="tR3rwMDGMJgNN5FDnddk-114" value="FK" style="shape=partialRectangle;connectable=0;fillColor=none;top=0;left=0;bottom=0;right=0;fontStyle=0;overflow=hidden;whiteSpace=wrap;html=1;" vertex="1" parent="tR3rwMDGMJgNN5FDnddk-113">
          <mxGeometry width="30" height="30" as="geometry">
            <mxRectangle width="30" height="30" as="alternateBounds" />
          </mxGeometry>
        </mxCell>
        <mxCell id="tR3rwMDGMJgNN5FDnddk-115" value="customer_id" style="shape=partialRectangle;connectable=0;fillColor=none;top=0;left=0;bottom=0;right=0;align=left;spacingLeft=6;fontStyle=0;overflow=hidden;whiteSpace=wrap;html=1;" vertex="1" parent="tR3rwMDGMJgNN5FDnddk-113">
          <mxGeometry x="30" width="170" height="30" as="geometry">
            <mxRectangle width="170" height="30" as="alternateBounds" />
          </mxGeometry>
        </mxCell>
        <mxCell id="tR3rwMDGMJgNN5FDnddk-116" value="" style="shape=tableRow;horizontal=0;startSize=0;swimlaneHead=0;swimlaneBody=0;fillColor=none;collapsible=0;dropTarget=0;points=[[0,0.5],[1,0.5]];portConstraint=eastwest;top=0;left=0;right=0;bottom=0;" vertex="1" parent="tR3rwMDGMJgNN5FDnddk-97">
          <mxGeometry y="90" width="200" height="30" as="geometry" />
        </mxCell>
        <mxCell id="tR3rwMDGMJgNN5FDnddk-117" value="FK" style="shape=partialRectangle;connectable=0;fillColor=none;top=0;left=0;bottom=0;right=0;fontStyle=0;overflow=hidden;whiteSpace=wrap;html=1;" vertex="1" parent="tR3rwMDGMJgNN5FDnddk-116">
          <mxGeometry width="30" height="30" as="geometry">
            <mxRectangle width="30" height="30" as="alternateBounds" />
          </mxGeometry>
        </mxCell>
        <mxCell id="tR3rwMDGMJgNN5FDnddk-118" value="employee_id" style="shape=partialRectangle;connectable=0;fillColor=none;top=0;left=0;bottom=0;right=0;align=left;spacingLeft=6;fontStyle=0;overflow=hidden;whiteSpace=wrap;html=1;" vertex="1" parent="tR3rwMDGMJgNN5FDnddk-116">
          <mxGeometry x="30" width="170" height="30" as="geometry">
            <mxRectangle width="170" height="30" as="alternateBounds" />
          </mxGeometry>
        </mxCell>
        <mxCell id="tR3rwMDGMJgNN5FDnddk-119" value="" style="shape=tableRow;horizontal=0;startSize=0;swimlaneHead=0;swimlaneBody=0;fillColor=none;collapsible=0;dropTarget=0;points=[[0,0.5],[1,0.5]];portConstraint=eastwest;top=0;left=0;right=0;bottom=0;" vertex="1" parent="tR3rwMDGMJgNN5FDnddk-97">
          <mxGeometry y="120" width="200" height="30" as="geometry" />
        </mxCell>
        <mxCell id="tR3rwMDGMJgNN5FDnddk-120" value="FK" style="shape=partialRectangle;connectable=0;fillColor=none;top=0;left=0;bottom=0;right=0;fontStyle=0;overflow=hidden;whiteSpace=wrap;html=1;" vertex="1" parent="tR3rwMDGMJgNN5FDnddk-119">
          <mxGeometry width="30" height="30" as="geometry">
            <mxRectangle width="30" height="30" as="alternateBounds" />
          </mxGeometry>
        </mxCell>
        <mxCell id="tR3rwMDGMJgNN5FDnddk-121" value="date_id" style="shape=partialRectangle;connectable=0;fillColor=none;top=0;left=0;bottom=0;right=0;align=left;spacingLeft=6;fontStyle=0;overflow=hidden;whiteSpace=wrap;html=1;" vertex="1" parent="tR3rwMDGMJgNN5FDnddk-119">
          <mxGeometry x="30" width="170" height="30" as="geometry">
            <mxRectangle width="170" height="30" as="alternateBounds" />
          </mxGeometry>
        </mxCell>
        <mxCell id="tR3rwMDGMJgNN5FDnddk-122" value="" style="shape=tableRow;horizontal=0;startSize=0;swimlaneHead=0;swimlaneBody=0;fillColor=none;collapsible=0;dropTarget=0;points=[[0,0.5],[1,0.5]];portConstraint=eastwest;top=0;left=0;right=0;bottom=0;" vertex="1" parent="tR3rwMDGMJgNN5FDnddk-97">
          <mxGeometry y="150" width="200" height="30" as="geometry" />
        </mxCell>
        <mxCell id="tR3rwMDGMJgNN5FDnddk-123" value="FK" style="shape=partialRectangle;connectable=0;fillColor=none;top=0;left=0;bottom=0;right=0;fontStyle=0;overflow=hidden;whiteSpace=wrap;html=1;" vertex="1" parent="tR3rwMDGMJgNN5FDnddk-122">
          <mxGeometry width="30" height="30" as="geometry">
            <mxRectangle width="30" height="30" as="alternateBounds" />
          </mxGeometry>
        </mxCell>
        <mxCell id="tR3rwMDGMJgNN5FDnddk-124" value="shipper_id" style="shape=partialRectangle;connectable=0;fillColor=none;top=0;left=0;bottom=0;right=0;align=left;spacingLeft=6;fontStyle=0;overflow=hidden;whiteSpace=wrap;html=1;" vertex="1" parent="tR3rwMDGMJgNN5FDnddk-122">
          <mxGeometry x="30" width="170" height="30" as="geometry">
            <mxRectangle width="170" height="30" as="alternateBounds" />
          </mxGeometry>
        </mxCell>
        <mxCell id="tR3rwMDGMJgNN5FDnddk-152" value="" style="shape=tableRow;horizontal=0;startSize=0;swimlaneHead=0;swimlaneBody=0;fillColor=none;collapsible=0;dropTarget=0;points=[[0,0.5],[1,0.5]];portConstraint=eastwest;top=0;left=0;right=0;bottom=0;" vertex="1" parent="tR3rwMDGMJgNN5FDnddk-97">
          <mxGeometry y="180" width="200" height="30" as="geometry" />
        </mxCell>
        <mxCell id="tR3rwMDGMJgNN5FDnddk-153" value="FK" style="shape=partialRectangle;connectable=0;fillColor=none;top=0;left=0;bottom=0;right=0;fontStyle=0;overflow=hidden;whiteSpace=wrap;html=1;" vertex="1" parent="tR3rwMDGMJgNN5FDnddk-152">
          <mxGeometry width="30" height="30" as="geometry">
            <mxRectangle width="30" height="30" as="alternateBounds" />
          </mxGeometry>
        </mxCell>
        <mxCell id="tR3rwMDGMJgNN5FDnddk-154" value="shipping_geographics_id" style="shape=partialRectangle;connectable=0;fillColor=none;top=0;left=0;bottom=0;right=0;align=left;spacingLeft=6;fontStyle=0;overflow=hidden;whiteSpace=wrap;html=1;" vertex="1" parent="tR3rwMDGMJgNN5FDnddk-152">
          <mxGeometry x="30" width="170" height="30" as="geometry">
            <mxRectangle width="170" height="30" as="alternateBounds" />
          </mxGeometry>
        </mxCell>
        <mxCell id="tR3rwMDGMJgNN5FDnddk-125" value="" style="shape=tableRow;horizontal=0;startSize=0;swimlaneHead=0;swimlaneBody=0;fillColor=none;collapsible=0;dropTarget=0;points=[[0,0.5],[1,0.5]];portConstraint=eastwest;top=0;left=0;right=0;bottom=0;" vertex="1" parent="tR3rwMDGMJgNN5FDnddk-97">
          <mxGeometry y="210" width="200" height="30" as="geometry" />
        </mxCell>
        <mxCell id="tR3rwMDGMJgNN5FDnddk-126" value="" style="shape=partialRectangle;connectable=0;fillColor=none;top=0;left=0;bottom=0;right=0;editable=1;overflow=hidden;" vertex="1" parent="tR3rwMDGMJgNN5FDnddk-125">
          <mxGeometry width="30" height="30" as="geometry">
            <mxRectangle width="30" height="30" as="alternateBounds" />
          </mxGeometry>
        </mxCell>
        <mxCell id="tR3rwMDGMJgNN5FDnddk-127" value="unit_price" style="shape=partialRectangle;connectable=0;fillColor=none;top=0;left=0;bottom=0;right=0;align=left;spacingLeft=6;overflow=hidden;" vertex="1" parent="tR3rwMDGMJgNN5FDnddk-125">
          <mxGeometry x="30" width="170" height="30" as="geometry">
            <mxRectangle width="170" height="30" as="alternateBounds" />
          </mxGeometry>
        </mxCell>
        <mxCell id="tR3rwMDGMJgNN5FDnddk-128" value="" style="shape=tableRow;horizontal=0;startSize=0;swimlaneHead=0;swimlaneBody=0;fillColor=none;collapsible=0;dropTarget=0;points=[[0,0.5],[1,0.5]];portConstraint=eastwest;top=0;left=0;right=0;bottom=0;" vertex="1" parent="tR3rwMDGMJgNN5FDnddk-97">
          <mxGeometry y="240" width="200" height="30" as="geometry" />
        </mxCell>
        <mxCell id="tR3rwMDGMJgNN5FDnddk-129" value="" style="shape=partialRectangle;connectable=0;fillColor=none;top=0;left=0;bottom=0;right=0;editable=1;overflow=hidden;" vertex="1" parent="tR3rwMDGMJgNN5FDnddk-128">
          <mxGeometry width="30" height="30" as="geometry">
            <mxRectangle width="30" height="30" as="alternateBounds" />
          </mxGeometry>
        </mxCell>
        <mxCell id="tR3rwMDGMJgNN5FDnddk-130" value="quantity" style="shape=partialRectangle;connectable=0;fillColor=none;top=0;left=0;bottom=0;right=0;align=left;spacingLeft=6;overflow=hidden;" vertex="1" parent="tR3rwMDGMJgNN5FDnddk-128">
          <mxGeometry x="30" width="170" height="30" as="geometry">
            <mxRectangle width="170" height="30" as="alternateBounds" />
          </mxGeometry>
        </mxCell>
        <mxCell id="tR3rwMDGMJgNN5FDnddk-131" value="" style="shape=tableRow;horizontal=0;startSize=0;swimlaneHead=0;swimlaneBody=0;fillColor=none;collapsible=0;dropTarget=0;points=[[0,0.5],[1,0.5]];portConstraint=eastwest;top=0;left=0;right=0;bottom=0;" vertex="1" parent="tR3rwMDGMJgNN5FDnddk-97">
          <mxGeometry y="270" width="200" height="30" as="geometry" />
        </mxCell>
        <mxCell id="tR3rwMDGMJgNN5FDnddk-132" value="" style="shape=partialRectangle;connectable=0;fillColor=none;top=0;left=0;bottom=0;right=0;editable=1;overflow=hidden;" vertex="1" parent="tR3rwMDGMJgNN5FDnddk-131">
          <mxGeometry width="30" height="30" as="geometry">
            <mxRectangle width="30" height="30" as="alternateBounds" />
          </mxGeometry>
        </mxCell>
        <mxCell id="tR3rwMDGMJgNN5FDnddk-133" value="discount" style="shape=partialRectangle;connectable=0;fillColor=none;top=0;left=0;bottom=0;right=0;align=left;spacingLeft=6;overflow=hidden;" vertex="1" parent="tR3rwMDGMJgNN5FDnddk-131">
          <mxGeometry x="30" width="170" height="30" as="geometry">
            <mxRectangle width="170" height="30" as="alternateBounds" />
          </mxGeometry>
        </mxCell>
        <mxCell id="tR3rwMDGMJgNN5FDnddk-101" value="" style="shape=tableRow;horizontal=0;startSize=0;swimlaneHead=0;swimlaneBody=0;fillColor=none;collapsible=0;dropTarget=0;points=[[0,0.5],[1,0.5]];portConstraint=eastwest;top=0;left=0;right=0;bottom=0;" vertex="1" parent="tR3rwMDGMJgNN5FDnddk-97">
          <mxGeometry y="300" width="200" height="30" as="geometry" />
        </mxCell>
        <mxCell id="tR3rwMDGMJgNN5FDnddk-102" value="" style="shape=partialRectangle;connectable=0;fillColor=none;top=0;left=0;bottom=0;right=0;editable=1;overflow=hidden;" vertex="1" parent="tR3rwMDGMJgNN5FDnddk-101">
          <mxGeometry width="30" height="30" as="geometry">
            <mxRectangle width="30" height="30" as="alternateBounds" />
          </mxGeometry>
        </mxCell>
        <mxCell id="tR3rwMDGMJgNN5FDnddk-103" value="gross_sales" style="shape=partialRectangle;connectable=0;fillColor=none;top=0;left=0;bottom=0;right=0;align=left;spacingLeft=6;overflow=hidden;" vertex="1" parent="tR3rwMDGMJgNN5FDnddk-101">
          <mxGeometry x="30" width="170" height="30" as="geometry">
            <mxRectangle width="170" height="30" as="alternateBounds" />
          </mxGeometry>
        </mxCell>
        <mxCell id="tR3rwMDGMJgNN5FDnddk-104" value="" style="shape=tableRow;horizontal=0;startSize=0;swimlaneHead=0;swimlaneBody=0;fillColor=none;collapsible=0;dropTarget=0;points=[[0,0.5],[1,0.5]];portConstraint=eastwest;top=0;left=0;right=0;bottom=0;" vertex="1" parent="tR3rwMDGMJgNN5FDnddk-97">
          <mxGeometry y="330" width="200" height="30" as="geometry" />
        </mxCell>
        <mxCell id="tR3rwMDGMJgNN5FDnddk-105" value="" style="shape=partialRectangle;connectable=0;fillColor=none;top=0;left=0;bottom=0;right=0;editable=1;overflow=hidden;whiteSpace=wrap;html=1;" vertex="1" parent="tR3rwMDGMJgNN5FDnddk-104">
          <mxGeometry width="30" height="30" as="geometry">
            <mxRectangle width="30" height="30" as="alternateBounds" />
          </mxGeometry>
        </mxCell>
        <mxCell id="tR3rwMDGMJgNN5FDnddk-106" value="net_sales" style="shape=partialRectangle;connectable=0;fillColor=none;top=0;left=0;bottom=0;right=0;align=left;spacingLeft=6;overflow=hidden;whiteSpace=wrap;html=1;" vertex="1" parent="tR3rwMDGMJgNN5FDnddk-104">
          <mxGeometry x="30" width="170" height="30" as="geometry">
            <mxRectangle width="170" height="30" as="alternateBounds" />
          </mxGeometry>
        </mxCell>
        <mxCell id="tR3rwMDGMJgNN5FDnddk-134" value="" style="edgeStyle=orthogonalEdgeStyle;fontSize=12;html=1;endArrow=ERmany;rounded=0;entryX=0;entryY=0.5;entryDx=0;entryDy=0;startArrow=ERone;startFill=0;curved=1;" edge="1" parent="1" source="tR3rwMDGMJgNN5FDnddk-2" target="tR3rwMDGMJgNN5FDnddk-110">
          <mxGeometry width="100" height="100" relative="1" as="geometry">
            <mxPoint x="320" y="800" as="sourcePoint" />
            <mxPoint x="420" y="700" as="targetPoint" />
          </mxGeometry>
        </mxCell>
        <mxCell id="tR3rwMDGMJgNN5FDnddk-135" value="" style="edgeStyle=orthogonalEdgeStyle;fontSize=12;html=1;endArrow=ERmany;rounded=0;entryX=0;entryY=0.5;entryDx=0;entryDy=0;startArrow=ERone;startFill=0;curved=1;exitX=1;exitY=0.5;exitDx=0;exitDy=0;" edge="1" parent="1" source="tR3rwMDGMJgNN5FDnddk-78" target="tR3rwMDGMJgNN5FDnddk-122">
          <mxGeometry width="100" height="100" relative="1" as="geometry">
            <mxPoint x="270" y="605" as="sourcePoint" />
            <mxPoint x="370" y="665" as="targetPoint" />
          </mxGeometry>
        </mxCell>
        <mxCell id="tR3rwMDGMJgNN5FDnddk-150" value="" style="edgeStyle=orthogonalEdgeStyle;fontSize=12;html=1;endArrow=ERmany;rounded=0;entryX=0;entryY=0.5;entryDx=0;entryDy=0;startArrow=ERone;startFill=0;curved=1;exitX=1;exitY=0.5;exitDx=0;exitDy=0;" edge="1" parent="1" source="tR3rwMDGMJgNN5FDnddk-24" target="tR3rwMDGMJgNN5FDnddk-113">
          <mxGeometry width="100" height="100" relative="1" as="geometry">
            <mxPoint x="250" y="935" as="sourcePoint" />
            <mxPoint x="370" y="785" as="targetPoint" />
          </mxGeometry>
        </mxCell>
        <mxCell id="tR3rwMDGMJgNN5FDnddk-151" value="" style="edgeStyle=orthogonalEdgeStyle;fontSize=12;html=1;endArrow=ERmany;rounded=0;entryX=1;entryY=0.5;entryDx=0;entryDy=0;startArrow=ERone;startFill=0;curved=1;exitX=0;exitY=0.5;exitDx=0;exitDy=0;" edge="1" parent="1" source="tR3rwMDGMJgNN5FDnddk-50" target="tR3rwMDGMJgNN5FDnddk-119">
          <mxGeometry width="100" height="100" relative="1" as="geometry">
            <mxPoint x="250" y="935" as="sourcePoint" />
            <mxPoint x="370" y="785" as="targetPoint" />
          </mxGeometry>
        </mxCell>
        <mxCell id="tR3rwMDGMJgNN5FDnddk-158" value="" style="edgeStyle=orthogonalEdgeStyle;fontSize=12;html=1;endArrow=ERmany;rounded=0;entryX=1;entryY=0.5;entryDx=0;entryDy=0;startArrow=ERone;startFill=0;curved=1;exitX=0;exitY=0.5;exitDx=0;exitDy=0;" edge="1" parent="1" source="tR3rwMDGMJgNN5FDnddk-85" target="tR3rwMDGMJgNN5FDnddk-152">
          <mxGeometry width="100" height="100" relative="1" as="geometry">
            <mxPoint x="577" y="1060" as="sourcePoint" />
            <mxPoint x="490" y="1100" as="targetPoint" />
          </mxGeometry>
        </mxCell>
        <mxCell id="tR3rwMDGMJgNN5FDnddk-159" value="" style="edgeStyle=orthogonalEdgeStyle;fontSize=12;html=1;endArrow=ERmany;rounded=0;entryX=1;entryY=0.5;entryDx=0;entryDy=0;startArrow=ERone;startFill=0;curved=1;exitX=0;exitY=0.5;exitDx=0;exitDy=0;" edge="1" parent="1" source="tR3rwMDGMJgNN5FDnddk-37" target="tR3rwMDGMJgNN5FDnddk-116">
          <mxGeometry width="100" height="100" relative="1" as="geometry">
            <mxPoint x="640" y="620" as="sourcePoint" />
            <mxPoint x="570" y="755" as="targetPoint" />
          </mxGeometry>
        </mxCell>
      </root>
    </mxGraphModel>
  </diagram>
</mxfile>
